<?xml version="1.0" standalone="no"?>
<!DOCTYPE svg PUBLIC "-//W3C//DTD SVG 20010904//EN"
 "http://www.w3.org/TR/2001/REC-SVG-20010904/DTD/svg10.dtd">
<svg version="1.0" xmlns="http://www.w3.org/2000/svg"
 width="520.000000pt" height="520.000000pt" viewBox="0 0 520.000000 520.000000"
 preserveAspectRatio="xMidYMid meet">
<metadata>
Created by potrace 1.11, written by Peter Selinger 2001-2013
</metadata>
<g transform="translate(0.000000,520.000000) scale(0.100000,-0.100000)"
fill="#000000" stroke="none">
<path d="M3883 4797 c-184 -46 -404 -198 -543 -373 -141 -178 -220 -379 -225
-574 -4 -140 6 -184 115 -490 63 -178 89 -257 124 -380 15 -52 33 -115 41
-140 16 -55 49 -199 60 -265 3 -16 8 -37 10 -45 2 -8 6 -33 10 -55 3 -22 7
-53 10 -70 18 -119 30 -227 41 -377 3 -51 7 -94 9 -96 3 -4 117 114 195 203
30 33 56 62 60 65 13 10 198 238 256 315 255 338 426 689 478 980 3 17 9 41
12 55 14 51 13 364 -1 445 -59 353 -222 638 -451 790 -61 41 -82 42 -201 12z"/>
<path d="M1187 4544 c-1 -1 -44 -5 -95 -8 -175 -11 -505 -97 -520 -135 -8 -21
-8 -177 0 -271 19 -201 83 -413 180 -590 100 -183 210 -305 413 -458 10 -8 66
-41 121 -72 78 -45 213 -96 422 -159 125 -38 281 -86 347 -106 630 -191 947
-352 1218 -617 52 -51 116 -119 141 -151 l46 -58 -6 53 c-11 100 -12 113 -24
188 -79 511 -310 1085 -601 1496 -297 420 -710 717 -1154 828 -55 14 -117 28
-139 32 -21 3 -48 7 -59 10 -35 6 -285 22 -290 18z"/>
<path d="M2737 2367 c-8 -12 -36 -58 -62 -102 -26 -44 -90 -140 -144 -213
-139 -192 -210 -296 -211 -306 0 -5 -6 -17 -14 -25 -17 -19 -116 -217 -144
-286 -64 -159 -84 -225 -116 -367 -30 -136 -33 -158 -43 -268 -7 -89 -7 -321
1 -355 2 -11 5 -31 5 -43 1 -22 4 -23 39 -18 20 3 55 9 77 12 72 9 286 67 350
93 348 144 609 369 783 674 75 132 155 345 176 472 21 119 24 170 14 189 -19
38 -114 150 -179 213 -117 113 -262 216 -431 306 l-88 47 -13 -23z"/>
</g>
</svg>
