<svg version="1.0" xmlns="http://www.w3.org/2000/svg" width="693.333" height="693.333" viewBox="0 0 520 520"><path d="M388.3 40.3c-18.4 4.6-40.4 19.8-54.3 37.3-14.1 17.8-22 37.9-22.5 57.4-.4 14 .6 18.4 11.5 49 6.3 17.8 8.9 25.7 12.4 38 1.5 5.2 3.3 11.5 4.1 14 1.6 5.5 4.9 19.9 6 26.5.3 1.6.8 3.7 1 4.5.2.8.6 3.3 1 5.5.3 2.2.7 5.3 1 7 1.8 11.9 3 22.7 4.1 37.7.3 5.1.7 9.4.9 9.6.3.4 11.7-11.4 19.5-20.3 3-3.3 5.6-6.2 6-6.5 1.3-1 19.8-23.8 25.6-31.5 25.5-33.8 42.6-68.9 47.8-98 .3-1.7.9-4.1 1.2-5.5 1.4-5.1 1.3-36.4-.1-44.5-5.9-35.3-22.2-63.8-45.1-79-6.1-4.1-8.2-4.2-20.1-1.2zM118.7 65.6c-.1.1-4.4.5-9.5.8-17.5 1.1-50.5 9.7-52 13.5-.8 2.1-.8 17.7 0 27.1 1.9 20.1 8.3 41.3 18 59 10 18.3 21 30.5 41.3 45.8 1 .8 6.6 4.1 12.1 7.2 7.8 4.5 21.3 9.6 42.2 15.9 12.5 3.8 28.1 8.6 34.7 10.6 63 19.1 94.7 35.2 121.8 61.7 5.2 5.1 11.6 11.9 14.1 15.1l4.6 5.8-.6-5.3c-1.1-10-1.2-11.3-2.4-18.8-7.9-51.1-31-108.5-60.1-149.6-29.7-42-71-71.7-115.4-82.8-5.5-1.4-11.7-2.8-13.9-3.2-2.1-.3-4.8-.7-5.9-1-3.5-.6-28.5-2.2-29-1.8z"/><path d="M273.7 283.3c-.8 1.2-3.6 5.8-6.2 10.2-2.6 4.4-9 14-14.4 21.3-13.9 19.2-21 29.6-21.1 30.6 0 .5-.6 1.7-1.4 2.5-1.7 1.9-11.6 21.7-14.4 28.6-6.4 15.9-8.4 22.5-11.6 36.7-3 13.6-3.3 15.8-4.3 26.8-.7 8.9-.7 32.1.1 35.5.2 1.1.5 3.1.5 4.3.1 2.2.4 2.3 3.9 1.8 2-.3 5.5-.9 7.7-1.2 7.2-.9 28.6-6.7 35-9.3 34.8-14.4 60.9-36.9 78.3-67.4 7.5-13.2 15.5-34.5 17.6-47.2 2.1-11.9 2.4-17 1.4-18.9-1.9-3.8-11.4-15-17.9-21.3-11.7-11.3-26.2-21.6-43.1-30.6L275 281l-1.3 2.3z"/></svg>