<?xml version="1.0" encoding="utf-8"?>
<!-- Generator: Adobe Illustrator 19.0.0, SVG Export Plug-In . SVG Version: 6.00 Build 0)  -->
<svg version="1.1" baseProfile="tiny" id="Layer_1" xmlns="http://www.w3.org/2000/svg" xmlns:xlink="http://www.w3.org/1999/xlink"
	 x="0px" y="0px" viewBox="0 0 165 34" xml:space="preserve">
<g id="XMLID_22_">
	<path id="XMLID_21_" fill-rule="evenodd" fill="#BFD1DA" d="M11.6,34c-0.6-5,1.5-9.4,3.6-12c4.6-5.6,4.3-9,3.8-11.9
		c2.4,3.7,3.9,8.2,4.2,12.1C23.3,25.5,21,33,11.6,34L11.6,34z"/>
	<path id="XMLID_20_" fill="#FFFFFF" d="M71.2,8.3V7.5c0-0.2-0.1-0.4-0.5-0.4c-0.4-0.1-1.3-0.1-2.1-0.1c-2.2,0-3.6,0.8-3.6,3.3v14.1
		c0,0.3,0.2,0.5,0.5,0.5h1.1c0.3,0,0.5-0.2,0.5-0.5V13.5h3.7c0.3,0,0.4-0.2,0.4-0.4v-0.8c0-0.3-0.2-0.4-0.4-0.4H67v-1.6
		c0-1.4,0.3-1.6,1.6-1.6h2.1C71,8.6,71.2,8.5,71.2,8.3L71.2,8.3z"/>
	<path id="XMLID_19_" fill="#FFFFFF" d="M78.7,13.1V12c0-0.3-0.2-0.4-0.5-0.4c-2,0-3.6,0.1-4.9,0.7c-0.3,0.1-0.4,0.3-0.4,0.5v11.4
		c0,0.3,0.2,0.5,0.4,0.5h1.2c0.3,0,0.4-0.2,0.4-0.5V13.7c0.9-0.2,1.7-0.2,3.3-0.2C78.7,13.5,78.7,13.4,78.7,13.1L78.7,13.1z"/>
	<path id="XMLID_42_" fill="#FFFFFF" d="M89,23.9V12.8c0-0.3-0.1-0.4-0.5-0.5c-1.3-0.3-2.9-0.5-4.4-0.5c-3.5,0-5.2,2.3-5.2,5.8v1.6
		c0,3.5,1.6,5.8,5.2,5.8c1.4,0,3.1-0.2,4.4-0.5C88.9,24.3,89,24.2,89,23.9L89,23.9z M86.9,23c-0.7,0.1-1.8,0.2-2.8,0.2
		c-2.3,0-3.1-1.6-3.1-4.1v-1.6c0-2.5,0.7-4.1,3.1-4.1c1,0,2.1,0.1,2.8,0.2V23L86.9,23z"/>
	<path id="XMLID_16_" fill="#FFFFFF" d="M106.1,24.3v-8.5c0-2.4-1.4-4.1-4.2-4.1h-0.5c-1.4,0-2.4,0.2-3.1,0.8
		c-0.7-0.7-1.7-0.8-3.1-0.8h-0.5c-2.8,0-4.2,1.7-4.2,4.1v8.5c0,0.3,0.2,0.5,0.4,0.5h1.2c0.3,0,0.4-0.2,0.4-0.5v-8.5
		c0-2,0.9-2.3,2.1-2.3h0.5c1.5,0,2,0.3,2,1.6v9.2c0,0.3,0.2,0.5,0.4,0.5h1.2c0.3,0,0.4-0.2,0.4-0.5v-9.2c0-1.3,0.5-1.6,2-1.6h0.5
		c1.3,0,2.1,0.3,2.1,2.3v8.5c0,0.3,0.2,0.5,0.4,0.5h1.2C106,24.8,106.1,24.6,106.1,24.3L106.1,24.3z"/>
	<path id="XMLID_38_" fill="#FFFFFF" d="M117.7,18.5v-1.3c0-3.3-1.8-5.5-5.2-5.5c-3.4,0-5.3,2.1-5.3,5.5v2.1c0,4.4,2.6,5.7,5.4,5.7
		c1.6,0,2.9-0.1,4.2-0.4c0.4-0.1,0.5-0.2,0.5-0.5v-0.8c0-0.2-0.2-0.3-0.4-0.3c0,0-0.1,0-0.1,0c-1.1,0.2-2.8,0.3-4.2,0.3
		c-2.2,0-3.3-1-3.3-3.8V19h7.9C117.5,19,117.7,18.8,117.7,18.5L117.7,18.5z M115.6,17.4h-6.3v-0.2c0-2.5,1.1-3.7,3.2-3.7
		c2.1,0,3.1,1,3.1,3.7V17.4L115.6,17.4z"/>
	<path id="XMLID_13_" fill="#FFFFFF" d="M134.9,19.7v-7.4c0-0.3-0.2-0.5-0.5-0.5h-1.1c-0.3,0-0.5,0.2-0.5,0.5v7.4
		c0,2.6-1,3.5-2.9,3.5c-0.6,0-1.2-0.1-1.9-0.3V12.3c0-0.3-0.2-0.5-0.5-0.5h-1.2c-0.3,0-0.5,0.2-0.5,0.5v10.6
		c-0.7,0.2-1.3,0.3-1.9,0.3c-2,0-2.9-0.9-2.9-3.5v-7.4c0-0.3-0.2-0.5-0.5-0.5h-1.1c-0.3,0-0.5,0.2-0.5,0.5v7.4
		c0,4.2,2.3,5.3,4.8,5.3c1.2,0,2.2-0.2,3.1-0.6c1,0.4,1.9,0.6,3.1,0.6C132.6,25,134.9,23.9,134.9,19.7L134.9,19.7z"/>
	<path id="XMLID_34_" fill="#FFFFFF" d="M147,19.2v-1.8c0-3.5-1.8-5.7-5.3-5.7c-3.5,0-5.3,2.3-5.3,5.7v1.8c0,3.5,1.8,5.7,5.3,5.7
		C145.2,25,147,22.7,147,19.2L147,19.2z M144.9,19.2c0,2.4-1,3.9-3.2,3.9c-2.2,0-3.2-1.5-3.2-3.9v-1.8c0-2.4,1-3.9,3.2-3.9
		c2.2,0,3.2,1.5,3.2,3.9V19.2L144.9,19.2z"/>
	<path id="XMLID_10_" fill="#FFFFFF" d="M154.4,13.1V12c0-0.3-0.2-0.4-0.5-0.4c-2,0-3.6,0.1-4.9,0.7c-0.3,0.1-0.4,0.3-0.4,0.5v11.4
		c0,0.3,0.2,0.5,0.4,0.5h1.2c0.3,0,0.4-0.2,0.4-0.5V13.7c0.9-0.2,1.7-0.2,3.3-0.2C154.4,13.5,154.4,13.4,154.4,13.1L154.4,13.1z"/>
	<path id="XMLID_8_" fill="#FFFFFF" d="M165,24.5c0-0.1,0-0.2-0.1-0.2l-5.3-6.3l5.2-5.6c0.1-0.1,0.1-0.2,0.1-0.3
		c0-0.1-0.1-0.3-0.4-0.3H163c-0.2,0-0.3,0-0.5,0.2l-4.7,5.3V7.6c0-0.3-0.2-0.5-0.5-0.5h-1.1c-0.3,0-0.5,0.2-0.5,0.5v16.8
		c0,0.3,0.2,0.5,0.5,0.5h1.1c0.3,0,0.5-0.2,0.5-0.5v-5.6l4.7,5.8c0.2,0.2,0.3,0.3,0.5,0.3h1.7C164.9,24.8,165,24.7,165,24.5
		L165,24.5z"/>
	<path id="XMLID_26_" fill="#BFD1DA" d="M61.5,24.2V9.3c0-0.3-0.2-0.5-0.5-0.5h-2.2c-0.3,0-0.5,0.2-0.5,0.5v14.9
		c0,0.3,0.2,0.5,0.5,0.5H61C61.3,24.6,61.5,24.4,61.5,24.2L61.5,24.2z M50.1,24.6V8.9c-1.2,0-3.1,0.8-3.1,2.5v10.7
		c-0.7,0.1-1.7,0.2-2.3,0.2c-2,0-2.5-1.4-2.5-3.3v-7.7c-0.1-1.9-2.2-2.4-3.1-2.4v10c0,3.6,1.8,5.9,5.6,5.9c0.6,0,1.8-0.2,2.3-0.3
		v0.2c0.5,3.1-3.3,1.9-5.3,1.7c-1.5,0-2.5,1.2-2.8,2.6c0.9,0.3,3.7,0.6,5.7,0.8C48.2,29.9,50.1,27.9,50.1,24.6L50.1,24.6z
		 M55.8,24.2V9.3c0-0.3-0.2-0.5-0.5-0.5h-2.2c-0.3,0-0.5,0.2-0.5,0.5v14.9c0,0.3,0.2,0.5,0.5,0.5h2.2C55.6,24.6,55.8,24.4,55.8,24.2
		L55.8,24.2z M54.2,4.6c0.9,0,1.6,0.7,1.6,1.6c0,0.9-0.7,1.6-1.6,1.6c-0.9,0-1.6-0.7-1.6-1.6C52.6,5.4,53.3,4.6,54.2,4.6L54.2,4.6z
		 M60,4.6c0.9,0,1.6,0.7,1.6,1.6c0,0.9-0.7,1.6-1.6,1.6c-0.9,0-1.6-0.7-1.6-1.6C58.4,5.4,59.1,4.6,60,4.6L60,4.6z"/>
	<path id="XMLID_2_" fill-rule="evenodd" fill="#BFD1DA" d="M20.7,9.5c-1.6-4.5,3.1-9.4,7-9.5C30,1.2,32,4.3,31.9,8.5
		c-0.3,5.2-4.1,9.6-8.2,13.7C23.5,17.2,22.4,14,20.7,9.5L20.7,9.5z"/>
	<path id="XMLID_1_" fill-rule="evenodd" fill="#BFD1DA" d="M8.3,14.8C1.4,13-0.3,7.1,0,3.1c6.7-2.6,13.9,0.1,18,5.7
		c2.9,3.9,4.7,9,5.1,13.4c-2-2.6-4.5-4-7.7-5.2C13.2,16.2,11.2,15.7,8.3,14.8L8.3,14.8z"/>
	<path id="XMLID_9_" fill-rule="evenodd" fill="#90B5C8" d="M23.2,22.2c-1.5-1.9-3.2-3.2-5.4-4.2c1.7-3.4,1.5-5.8,1.1-7.9
		c0,0,0,0.1,0.1,0.1C20.3,11.8,22.9,17.5,23.2,22.2z"/>
</g>
</svg>
