<svg xmlns="http://www.w3.org/2000/svg" width="512" height="512" viewBox="0 0 573.75 573.75"><g fill="#1e6887"><path d="M191.25 296.438h38.25v114.75h19.125v-114.75h38.25v-19.126H191.25z"/><path d="M516.375 219.938h-153v-57.375L248.625 28.688H38.25C17.212 28.688 0 45.9 0 66.938v439.875c0 21.037 17.212 38.25 38.25 38.25h286.875c21.037 0 38.25-17.213 38.25-38.25v-38.25h153c32.513 0 57.375-24.862 57.375-57.375V277.312c0-32.512-24.862-57.374-57.375-57.374zM248.625 57.375l89.888 105.188H267.75c-9.562 0-19.125-9.562-19.125-19.125V57.375zm95.625 449.437c0 9.562-7.65 19.125-19.125 19.125H38.25c-9.562 0-19.125-7.65-19.125-19.125V66.938c0-9.562 7.65-19.125 19.125-19.125H229.5v95.625c0 21.038 17.212 38.25 38.25 38.25h76.5v38.25h-153c-32.513 0-57.375 24.862-57.375 57.375v133.875c0 32.513 24.862 57.375 57.375 57.375h153v38.249zm210.375-95.624c0 21.037-17.213 38.25-38.25 38.25H191.25c-21.038 0-38.25-17.213-38.25-38.25V277.312c0-21.038 17.212-38.25 38.25-38.25h325.125c21.037 0 38.25 17.212 38.25 38.25v133.876z"/><path d="M420.75 296.438h76.5l-76.5 95.624v19.126h95.625v-19.126h-76.5l76.5-95.624v-19.126H420.75zM306 315.562v57.375c0 21.037 17.213 38.25 38.25 38.25h57.375v-76.5H344.25v19.125h38.25v38.25h-38.25c-11.475 0-19.125-7.65-19.125-19.125v-57.375c0-11.475 7.65-19.125 19.125-19.125h57.375v-19.125H344.25c-21.037 0-38.25 17.213-38.25 38.25z"/></g></svg>