<?xml version="1.0" encoding="iso-8859-1"?>
<!-- Generator: Adobe Illustrator 16.0.0, SVG Export Plug-In . SVG Version: 6.00 Build 0)  -->
<!DOCTYPE svg PUBLIC "-//W3C//DTD SVG 1.1//EN" "http://www.w3.org/Graphics/SVG/1.1/DTD/svg11.dtd">
<svg xmlns="http://www.w3.org/2000/svg" xmlns:xlink="http://www.w3.org/1999/xlink" version="1.1" id="Capa_1" x="0px" y="0px" width="512px" height="512px" viewBox="0 0 573.75 573.75" style="enable-background:new 0 0 573.75 573.75;" xml:space="preserve">
<g>
	<g>
		<polygon points="191.25,296.438 229.5,296.438 229.5,411.188 248.625,411.188 248.625,296.438 286.875,296.438 286.875,277.312     191.25,277.312   " fill="#99c1d3"/>
		<path d="M516.375,219.938h-153v-57.375L248.625,28.688H38.25C17.212,28.688,0,45.9,0,66.938v439.875    c0,21.037,17.212,38.25,38.25,38.25h286.875c21.037,0,38.25-17.213,38.25-38.25v-38.25h153c32.513,0,57.375-24.862,57.375-57.375    V277.312C573.75,244.8,548.888,219.938,516.375,219.938z M248.625,57.375l89.888,105.188H267.75    c-9.562,0-19.125-9.562-19.125-19.125V57.375z M344.25,506.812c0,9.562-7.65,19.125-19.125,19.125H38.25    c-9.562,0-19.125-7.65-19.125-19.125V66.938c0-9.562,7.65-19.125,19.125-19.125H229.5v95.625c0,21.038,17.212,38.25,38.25,38.25    h76.5v38.25h-153c-32.513,0-57.375,24.862-57.375,57.375v133.875c0,32.513,24.862,57.375,57.375,57.375h153V506.812z     M554.625,411.188c0,21.037-17.213,38.25-38.25,38.25H191.25c-21.038,0-38.25-17.213-38.25-38.25V277.312    c0-21.038,17.212-38.25,38.25-38.25h325.125c21.037,0,38.25,17.212,38.25,38.25V411.188z" fill="#99c1d3"/>
		<polygon points="420.75,296.438 497.25,296.438 420.75,392.062 420.75,411.188 516.375,411.188 516.375,392.062 439.875,392.062     516.375,296.438 516.375,277.312 420.75,277.312   " fill="#99c1d3"/>
		<path d="M306,315.562v57.375c0,21.037,17.213,38.25,38.25,38.25h57.375v-15.3v-42.075v-19.125H344.25v19.125h38.25v38.25h-38.25    c-11.475,0-19.125-7.65-19.125-19.125v-57.375c0-11.475,7.65-19.125,19.125-19.125h57.375v-19.125H344.25    C323.213,277.312,306,294.525,306,315.562z" fill="#99c1d3"/>
	</g>
</g>
<g>
</g>
<g>
</g>
<g>
</g>
<g>
</g>
<g>
</g>
<g>
</g>
<g>
</g>
<g>
</g>
<g>
</g>
<g>
</g>
<g>
</g>
<g>
</g>
<g>
</g>
<g>
</g>
<g>
</g>
</svg>
