<?xml version="1.0" encoding="UTF-8" standalone="no"?>
<svg
   xmlns:dc="http://purl.org/dc/elements/1.1/"
   xmlns:cc="http://creativecommons.org/ns#"
   xmlns:rdf="http://www.w3.org/1999/02/22-rdf-syntax-ns#"
   xmlns:svg="http://www.w3.org/2000/svg"
   xmlns="http://www.w3.org/2000/svg"
   xmlns:sodipodi="http://sodipodi.sourceforge.net/DTD/sodipodi-0.dtd"
   xmlns:inkscape="http://www.inkscape.org/namespaces/inkscape"
   viewBox="0 0 725 157"
   id="svg2"
   version="1.1"
   inkscape:version="0.91 r13725"
   sodipodi:docname="yii_logo.svg"
   width="725"
   height="157"
   inkscape:export-xdpi="90"
   inkscape:export-ydpi="90">
  <metadata
     id="metadata18">
    <rdf:RDF>
      <cc:Work
         rdf:about="">
        <dc:format>image/svg+xml</dc:format>
        <dc:type
           rdf:resource="http://purl.org/dc/dcmitype/StillImage" />
        <dc:title />
      </cc:Work>
    </rdf:RDF>
  </metadata>
  <defs
     id="defs16" />
  <sodipodi:namedview
     pagecolor="#1e6887"
     bordercolor="#666666"
     borderopacity="1"
     objecttolerance="10"
     gridtolerance="10"
     guidetolerance="10"
     inkscape:pageopacity="0"
     inkscape:pageshadow="2"
     inkscape:window-width="1621"
     inkscape:window-height="870"
     id="namedview14"
     showgrid="false"
     inkscape:zoom="0.76496097"
     inkscape:cx="70.614755"
     inkscape:cy="-44.366539"
     inkscape:window-x="144"
     inkscape:window-y="83"
     inkscape:window-maximized="0"
     inkscape:current-layer="svg2" />
  <g
     id="g4165">
    <path
       id="path4"
       d="m 54.541291,154.68908 c -3.056115,-22.70257 6.548816,-41.91243 16.153747,-53.7003 20.519625,-25.322087 19.209861,-40.602658 17.026923,-53.700291 10.914694,16.590335 17.463509,36.673372 19.209859,54.573471 0.43659,14.4074 -10.478104,48.02465 -52.390529,52.82712 z M 95.58054,44.668962 C 88.158548,24.149338 109.55135,2.7565374 127.01486,1.8833619 137.49297,7.122415 146.66131,21.093223 146.22472,39.866497 144.91496,63.005648 127.88803,83.088685 109.55135,101.42537 108.24159,79.159395 103.43912,64.751999 95.58054,44.668962 Z"
       inkscape:connector-curvature="0"
       style="fill:#d5e1e6" />
    <path
       id="path6"
       d="M 39.697307,68.681289 C 8.699576,60.386122 0.84099632,33.754268 2.5873474,16.290758 32.711903,4.5028885 65.019397,16.727346 83.792671,41.612848 96.890304,59.512946 105.18547,81.778922 106.93182,101.86196 97.763479,90.510677 86.412197,83.525273 72.004801,78.28622 61.963283,74.793518 52.79494,72.173991 39.697307,68.681289 Z"
       inkscape:connector-curvature="0"
       style="fill:#d5e1e6" />
    <path
       id="path8"
       d="M 106.49523,101.86196 C 99.946418,93.566791 92.087838,87.454563 82.482907,83.088685 c 7.85858,-15.280571 6.548817,-25.758678 5.239054,-35.363608 0,0 0,0.436587 0.436587,0.436587 5.239053,6.985405 17.463512,32.744082 18.336682,53.700296 z"
       inkscape:connector-curvature="0"
       style="fill:#ffffff" />
  </g>
  <path
     style="fill:#d5e1e6"
     inkscape:connector-curvature="0"
     d="m 188.13715,87.017975 1.74635,7.85858 0.43658,0 1.30977,-8.295168 7.85858,-28.814792 13.97081,0 -15.71716,46.714895 c -1.30977,3.92929 -2.61953,7.42199 -3.92929,10.4781 -1.30977,3.05612 -2.61953,6.11223 -3.92929,8.29517 -1.30977,2.18294 -3.05612,4.36588 -4.80247,5.23905 -1.74635,1.30977 -3.92929,1.74635 -6.11223,1.74635 -3.4927,0 -6.54881,-0.43658 -8.73175,-1.74635 l 2.61952,-10.91469 c 0.87318,0.43659 2.18294,0.43659 3.05612,0.43659 1.74635,0 3.05611,-0.87318 4.80246,-2.18294 1.30977,-1.30977 2.61953,-3.92929 3.49271,-7.42199 l -21.82939,-51.51736 16.15374,0 9.60494,30.124555 z m 29.68796,-43.658776 c 0,-2.182939 0.87318,-3.492702 2.18294,-5.239053 1.30977,-1.746351 3.4927,-2.182939 6.11223,-2.182939 2.61953,0 4.80247,0.873176 6.54882,2.182939 1.74635,1.309763 2.61952,3.056114 2.61952,5.239053 0,2.182939 -0.87317,3.492702 -2.61952,4.802465 -1.74635,1.309764 -3.92929,2.182939 -6.54882,2.182939 -2.61953,0 -4.80246,-0.873175 -6.11223,-2.182939 -1.30976,-1.309763 -2.18294,-2.619526 -2.18294,-4.802465 z m 2.18294,14.407396 13.53422,0 0,51.517355 -13.53422,0 0,-51.517355 z m 24.01233,-14.407396 c 0,-2.182939 0.87317,-3.492702 2.18294,-5.239053 1.30976,-1.746351 3.4927,-2.182939 6.11223,-2.182939 2.61952,0 4.80246,0.873176 6.54881,2.182939 1.74635,1.309763 2.61953,3.056114 2.61953,5.239053 0,2.182939 -0.87318,3.492702 -2.61953,4.802465 -1.74635,1.309764 -3.92929,2.182939 -6.54881,2.182939 -2.61953,0 -4.80247,-0.873175 -6.11223,-2.182939 -1.30977,-1.309763 -2.18294,-2.619526 -2.18294,-4.802465 z m 1.74635,14.407396 13.53422,0 0,51.517355 -13.53422,0 0,-51.517355 z"
     id="path10" />
  <path
     style="fill:#ffffff"
     inkscape:connector-curvature="0"
     d="m 267.15953,57.766595 8.29517,0 0,-3.056114 c 0,-3.056114 0.43659,-6.112229 0.87317,-8.295168 0.43659,-2.182938 1.30977,-4.365877 2.61953,-5.67564 1.30976,-1.309764 2.61953,-2.619527 4.36588,-3.492703 1.74635,-0.436587 4.36587,-0.436587 6.9854,-0.436587 2.18294,0 4.36588,0 5.67564,0.436587 1.74635,0.436588 3.4927,0.873176 5.23906,1.746351 l -1.74636,6.548817 c -1.74635,-0.873176 -3.05611,-1.309763 -4.36587,-1.309763 -1.30977,0 -2.61953,-0.436588 -3.92929,-0.436588 -1.74635,0 -3.05612,0.436588 -4.36588,0.873175 -0.87318,0.436588 -1.74635,1.309764 -2.18294,2.619527 -0.43659,0.873175 -0.87318,2.182939 -0.87318,3.92929 l 0,6.548816 13.97081,0 0,7.421992 -13.97081,0 0,44.531953 -8.29516,0 0,-44.531953 -8.29517,0 0,-7.421992 z m 63.74181,8.295168 c -2.18294,-0.873176 -3.92929,-0.873176 -6.11223,-0.873176 -3.05611,0 -5.23905,0.873176 -6.9854,2.619527 -1.74635,1.746351 -2.61953,3.492702 -3.05611,6.112228 l 0,36.236788 -8.29517,0 0,-52.390535 5.67564,0 1.74635,6.112229 0.43659,0 c 1.30976,-2.182939 3.05611,-4.365878 4.80246,-5.239053 1.74635,-1.309764 4.36588,-1.746351 6.98541,-1.746351 2.18294,0 4.36588,0.436587 6.54881,0.873175 l -1.74635,8.295168 z m 8.29517,-4.365878 c 2.61953,-1.746351 5.67564,-2.619527 9.16834,-3.492702 3.49271,-0.873176 6.98541,-1.309763 10.9147,-1.309763 3.4927,0 6.54881,0.436587 8.73175,1.309763 2.18294,0.873175 3.92929,2.182939 4.80247,3.92929 1.30976,1.746351 1.74635,3.056114 2.18294,5.239053 0.43658,2.182939 0.43658,3.92929 0.43658,5.675641 0,3.92929 0,8.295167 -0.43658,12.224457 0,3.92929 -0.43659,7.85858 -0.43659,11.351282 0,2.619526 0,4.802464 0.43659,7.421994 0,2.18294 0.43658,4.36588 1.30976,6.11223 l -6.11223,0 -2.18294,-7.422 -0.43659,0 c -0.43658,0.87318 -1.30976,1.74636 -2.18293,3.05612 -0.87318,0.87317 -2.18294,1.74635 -3.49271,2.61953 -1.30976,0.87317 -2.61952,1.30976 -4.36587,1.74635 -1.74635,0.43658 -3.49271,0.87317 -6.11223,0.87317 -2.18294,0 -4.36588,-0.43659 -6.11223,-0.87317 -1.74635,-0.87318 -3.4927,-1.74635 -4.80247,-3.05612 -1.30976,-1.30976 -2.61952,-2.61952 -3.05611,-4.80246 -0.87318,-1.74635 -1.30976,-3.929293 -1.30976,-6.112232 0,-3.056114 0.43658,-5.675641 1.74635,-7.421992 1.30976,-2.182939 3.05611,-3.492702 5.23905,-4.802465 2.18294,-1.309764 4.80247,-2.182939 8.29517,-2.619527 3.05611,-0.436588 6.54881,-0.873175 10.4781,-0.873175 l 6.11223,0 c 0,-2.182939 0.43659,-3.92929 0.43659,-5.675641 0,-3.92929 -0.87318,-6.548817 -2.18294,-7.85858 -1.30976,-1.309763 -4.36588,-2.182939 -8.29517,-2.182939 -1.30976,0 -2.61952,0 -3.92929,0.436588 -1.30976,0 -2.61952,0.436588 -4.36587,0.873176 l -3.92929,1.309763 c -1.30977,0.436588 -2.61953,0.873175 -3.49271,1.746351 l -3.05611,-7.421992 z m 14.84398,41.475835 c 1.74636,0 3.49271,-0.43659 5.23906,-0.87317 1.30976,-0.43659 2.61952,-1.30977 3.92929,-2.18294 1.30976,-0.873178 2.18294,-1.746353 2.61952,-2.619529 0.87318,-0.873175 1.30977,-1.746351 1.74635,-2.619526 l 0,-8.731755 -6.11222,0 c -2.18294,0 -4.36588,0 -6.11223,0.436587 -2.18294,0.436588 -3.92929,0.873176 -5.23906,1.309764 -1.74635,0.873175 -2.61952,1.746351 -3.92929,2.619526 -0.87317,1.309763 -1.30976,2.619527 -1.30976,4.365878 0,2.619526 0.87318,4.365877 2.61953,6.112225 1.74635,1.74635 3.92929,2.18294 6.54881,2.18294 z m 64.61499,6.54882 0,-29.251381 c 0,-2.619527 0,-5.239053 -0.43659,-6.985404 -0.43658,-2.182939 -0.87317,-3.92929 -1.30976,-5.239054 -0.87317,-1.309763 -1.74635,-2.619526 -3.05611,-3.056114 -1.30977,-0.873175 -3.05612,-0.873175 -5.23906,-0.873175 -3.05611,0 -5.67564,0.873175 -7.85858,3.056114 -2.18293,1.746351 -3.4927,4.365878 -4.36587,7.421992 l 0,35.363612 -8.29517,0 0,-52.390535 5.67564,0 1.74635,6.112229 0.43659,0 c 1.74635,-2.182939 3.92929,-3.92929 6.54882,-5.239053 2.61952,-1.309764 5.67564,-2.182939 9.60493,-2.182939 3.4927,0 6.11222,0.436588 8.29516,1.746351 2.18294,1.309763 3.92929,3.492702 4.80247,6.548816 1.74635,-2.619526 3.92929,-4.802465 6.54882,-6.112228 2.61952,-1.309764 6.11222,-2.182939 9.60493,-2.182939 3.05611,0 5.23905,0.436588 7.42199,0.873175 2.18294,0.873176 3.4927,1.746351 4.80246,3.492703 1.30977,1.746351 2.18294,3.929289 3.05612,6.548816 0.43659,2.619526 0.87317,6.548816 0.87317,10.914694 l 0,30.99773 -8.29516,0 0,-30.99773 c 0,-2.619527 0,-4.802465 -0.43659,-6.548816 -0.43659,-1.746352 -0.87318,-3.492703 -1.30977,-4.365878 -0.87317,-1.309763 -1.74635,-2.182939 -3.05611,-2.619527 -1.30976,-0.436587 -3.05611,-0.873175 -5.23905,-0.873175 -3.4927,0 -6.11223,0.873175 -8.29517,3.056114 -1.74635,1.746351 -3.4927,4.802466 -4.36588,8.295168 l 0,34.490434 -7.85858,0 z m 87.31755,-4.36588 c -2.18293,1.74635 -4.80246,3.05612 -7.85858,3.92929 -3.05611,0.87318 -6.54881,1.30976 -10.04151,1.30976 -3.92929,0 -7.422,-0.43658 -10.47811,-1.74635 -3.05611,-1.30976 -5.23905,-3.05611 -6.9854,-5.67564 -1.74635,-2.18294 -3.05612,-5.239051 -4.36588,-8.731753 -0.87318,-3.492702 -1.30976,-6.985404 -1.30976,-11.351282 0,-8.731755 2.18293,-15.717159 6.11222,-20.083037 3.92929,-4.802465 9.60493,-6.985404 17.02693,-6.985404 2.18294,0 4.80246,0.436588 6.9854,0.873176 2.18294,0.436587 4.36588,1.309763 6.11223,3.056114 1.74635,1.309763 3.4927,3.492702 4.36588,6.112229 1.30976,2.619526 1.74635,6.112228 1.74635,10.478106 0,2.182939 0,4.802465 -0.43659,7.421992 l -33.18067,0 c 0,3.056114 0.43659,5.675641 0.87318,7.858579 0.43658,2.182939 1.74635,4.365878 3.05611,6.112229 1.30976,1.746351 3.05611,3.056111 5.23905,3.929291 2.18294,0.87317 4.80247,1.30976 7.85858,1.30976 2.18294,0 4.80247,-0.43659 6.98541,-1.30976 2.18294,-0.87318 3.92929,-1.74635 5.23905,-3.056115 l 3.05611,6.548815 z M 488.07294,63.878824 c -3.92929,0 -7.422,0.873175 -9.60493,3.056114 -2.61953,2.182939 -3.92929,5.675641 -4.36588,10.914694 l 25.75868,0 c 0,-5.239053 -0.87318,-8.731755 -3.05612,-10.914694 -2.18294,-1.746351 -5.23905,-3.056114 -8.73175,-3.056114 z m 65.92475,-6.112229 11.78787,30.124556 2.61952,10.041518 2.18294,-10.041518 9.16835,-30.124556 7.85858,0 -17.46351,52.827115 -3.92929,0 -13.53423,-34.053841 -2.18293,-8.295168 -0.43659,0 -2.18294,8.731756 -13.09763,34.053843 -3.92929,0 -17.9001,-52.827117 9.16834,0 10.47811,30.124555 1.74635,10.041519 2.61953,-10.041519 10.91469,-29.687967 6.11223,0 z M 592.854,83.961861 c 0,-8.731755 1.74635,-15.280572 5.67564,-20.083037 3.92929,-4.802466 9.60493,-6.985404 17.02692,-6.985404 3.92929,0 7.42199,0.436587 10.04152,1.746351 3.05612,1.309763 5.23905,3.056114 6.98541,5.675641 1.74635,2.182938 3.05611,5.239053 4.36587,8.731755 0.87318,3.492702 1.30977,6.985404 1.30977,10.914694 0,8.731755 -1.74636,15.280571 -5.67564,20.083039 -3.92929,4.80246 -9.60494,6.9854 -17.02693,6.9854 -3.92929,0 -7.42199,-0.43659 -10.04152,-1.74635 -3.05611,-1.30976 -5.23905,-3.05611 -6.9854,-5.67564 -1.74635,-2.18294 -3.05611,-5.239053 -4.36588,-8.731755 -0.87317,-3.492702 -1.30976,-6.985404 -1.30976,-10.914694 z m 8.73175,0 c 0,2.619526 0.43659,5.239053 0.87318,7.421992 0.43659,2.619526 1.30976,4.365877 2.61953,6.112228 1.30976,1.746351 2.61952,3.056119 4.36587,4.365879 1.74635,1.30976 3.92929,1.74635 6.54882,1.74635 9.60493,0 13.97081,-6.548816 13.97081,-19.646449 0,-2.619527 -0.43659,-5.239053 -0.87318,-7.85858 -0.43658,-2.619526 -1.30976,-4.365878 -2.61952,-6.112229 -1.30977,-1.746351 -2.61953,-3.056114 -4.36588,-4.365877 -1.74635,-0.873176 -3.92929,-1.746351 -6.54882,-1.746351 -9.16834,0 -13.97081,6.548816 -13.97081,20.083037 z m 71.6004,-17.900098 c -2.18294,-0.873176 -3.92929,-0.873176 -6.11223,-0.873176 -3.05612,0 -5.23906,0.873176 -6.98541,2.619527 -1.74635,1.746351 -2.61952,3.492702 -3.05611,6.112228 l 0,36.236788 -8.73176,0 0,-52.390535 5.67565,0 1.74635,6.112229 0.43658,0 c 1.30977,-2.182939 3.05612,-4.365878 4.80247,-5.239053 1.74635,-1.309764 4.36588,-1.746351 6.9854,-1.746351 2.18294,0 4.36588,0.436587 6.54882,0.873175 l -1.30976,8.295168 z m 21.82938,20.519624 -4.80246,0 0,23.139153 -8.29517,0 0,-72.47357 8.29517,0 0,44.095364 4.36588,-1.309763 16.15374,-21.829388 9.60493,0 -15.71715,20.956212 -4.36588,3.492703 5.23905,3.929289 17.46351,23.575743 -10.4781,0 -17.46352,-23.575743 z"
     id="path12" />
</svg>
