<?xml version="1.0" encoding="UTF-8" standalone="no"?>
<!-- Generator: Adobe Illustrator 19.0.0, SVG Export Plug-In . SVG Version: 6.00 Build 0)  -->

<svg
   xmlns:dc="http://purl.org/dc/elements/1.1/"
   xmlns:cc="http://creativecommons.org/ns#"
   xmlns:rdf="http://www.w3.org/1999/02/22-rdf-syntax-ns#"
   xmlns:svg="http://www.w3.org/2000/svg"
   xmlns="http://www.w3.org/2000/svg"
   xmlns:sodipodi="http://sodipodi.sourceforge.net/DTD/sodipodi-0.dtd"
   xmlns:inkscape="http://www.inkscape.org/namespaces/inkscape"
   version="1.1"
   id="Layer_1"
   x="0px"
   y="0px"
   viewBox="0 0 165 34"
   xml:space="preserve"
   inkscape:version="0.91 r13725"
   sodipodi:docname="logo.svg"><metadata
     id="metadata4156"><rdf:RDF><cc:Work
         rdf:about=""><dc:format>image/svg+xml</dc:format><dc:type
           rdf:resource="http://purl.org/dc/dcmitype/StillImage" /></cc:Work></rdf:RDF></metadata><defs
     id="defs4154"><clipPath
       id="clipPath4181"
       clipPathUnits="userSpaceOnUse"><path
         inkscape:connector-curvature="0"
         id="path4183"
         d="M 0,792 612,792 612,0 0,0 0,792 Z" /></clipPath></defs><sodipodi:namedview
     pagecolor="#ffffff"
     bordercolor="#666666"
     borderopacity="1"
     objecttolerance="10"
     gridtolerance="10"
     guidetolerance="10"
     inkscape:pageopacity="0"
     inkscape:pageshadow="2"
     inkscape:window-width="1920"
     inkscape:window-height="1137"
     id="namedview4152"
     showgrid="false"
     inkscape:zoom="8"
     inkscape:cx="52.120044"
     inkscape:cy="9.663581"
     inkscape:window-x="1912"
     inkscape:window-y="-8"
     inkscape:window-maximized="1"
     inkscape:current-layer="Layer_1" /><g
     id="XMLID_22_"><path
       id="XMLID_20_"
       fill="#FFFFFF"
       d="M71.2,8.3V7.5c0-0.2-0.1-0.4-0.5-0.4c-0.4-0.1-1.3-0.1-2.1-0.1c-2.2,0-3.6,0.8-3.6,3.3v14.1   c0,0.3,0.2,0.5,0.5,0.5h1.1c0.3,0,0.5-0.2,0.5-0.5V13.5h3.7c0.3,0,0.4-0.2,0.4-0.4v-0.8c0-0.3-0.2-0.4-0.4-0.4H67v-1.6   c0-1.4,0.3-1.6,1.6-1.6h2.1C71,8.6,71.2,8.5,71.2,8.3L71.2,8.3z" /><path
       id="XMLID_19_"
       fill="#FFFFFF"
       d="M78.7,13.1V12c0-0.3-0.2-0.4-0.5-0.4c-2,0-3.6,0.1-4.9,0.7c-0.3,0.1-0.4,0.3-0.4,0.5v11.4   c0,0.3,0.2,0.5,0.4,0.5h1.2c0.3,0,0.4-0.2,0.4-0.5V13.7c0.9-0.2,1.7-0.2,3.3-0.2C78.7,13.5,78.7,13.4,78.7,13.1L78.7,13.1z" /><path
       id="XMLID_42_"
       fill="#FFFFFF"
       d="M89,23.9V12.8c0-0.3-0.1-0.4-0.5-0.5c-1.3-0.3-2.9-0.5-4.4-0.5c-3.5,0-5.2,2.3-5.2,5.8v1.6   c0,3.5,1.6,5.8,5.2,5.8c1.4,0,3.1-0.2,4.4-0.5C88.9,24.3,89,24.2,89,23.9L89,23.9z M86.9,23c-0.7,0.1-1.8,0.2-2.8,0.2   c-2.3,0-3.1-1.6-3.1-4.1v-1.6c0-2.5,0.7-4.1,3.1-4.1c1,0,2.1,0.1,2.8,0.2V23L86.9,23z" /><path
       id="XMLID_16_"
       fill="#FFFFFF"
       d="M106.1,24.3v-8.5c0-2.4-1.4-4.1-4.2-4.1h-0.5c-1.4,0-2.4,0.2-3.1,0.8   c-0.7-0.7-1.7-0.8-3.1-0.8h-0.5c-2.8,0-4.2,1.7-4.2,4.1v8.5c0,0.3,0.2,0.5,0.4,0.5h1.2c0.3,0,0.4-0.2,0.4-0.5v-8.5   c0-2,0.9-2.3,2.1-2.3h0.5c1.5,0,2,0.3,2,1.6v9.2c0,0.3,0.2,0.5,0.4,0.5h1.2c0.3,0,0.4-0.2,0.4-0.5v-9.2c0-1.3,0.5-1.6,2-1.6h0.5   c1.3,0,2.1,0.3,2.1,2.3v8.5c0,0.3,0.2,0.5,0.4,0.5h1.2C106,24.8,106.1,24.6,106.1,24.3L106.1,24.3z" /><path
       id="XMLID_38_"
       fill="#FFFFFF"
       d="M117.7,18.5v-1.3c0-3.3-1.8-5.5-5.2-5.5c-3.4,0-5.3,2.1-5.3,5.5v2.1c0,4.4,2.6,5.7,5.4,5.7   c1.6,0,2.9-0.1,4.2-0.4c0.4-0.1,0.5-0.2,0.5-0.5v-0.8c0-0.2-0.2-0.3-0.4-0.3c0,0-0.1,0-0.1,0c-1.1,0.2-2.8,0.3-4.2,0.3   c-2.2,0-3.3-1-3.3-3.8V19h7.9C117.5,19,117.7,18.8,117.7,18.5L117.7,18.5z M115.6,17.4h-6.3v-0.2c0-2.5,1.1-3.7,3.2-3.7   c2.1,0,3.1,1,3.1,3.7V17.4L115.6,17.4z" /><path
       id="XMLID_13_"
       fill="#FFFFFF"
       d="M134.9,19.7v-7.4c0-0.3-0.2-0.5-0.5-0.5h-1.1c-0.3,0-0.5,0.2-0.5,0.5v7.4   c0,2.6-1,3.5-2.9,3.5c-0.6,0-1.2-0.1-1.9-0.3V12.3c0-0.3-0.2-0.5-0.5-0.5h-1.2c-0.3,0-0.5,0.2-0.5,0.5v10.6   c-0.7,0.2-1.3,0.3-1.9,0.3c-2,0-2.9-0.9-2.9-3.5v-7.4c0-0.3-0.2-0.5-0.5-0.5h-1.1c-0.3,0-0.5,0.2-0.5,0.5v7.4   c0,4.2,2.3,5.3,4.8,5.3c1.2,0,2.2-0.2,3.1-0.6c1,0.4,1.9,0.6,3.1,0.6C132.6,25,134.9,23.9,134.9,19.7L134.9,19.7z" /><path
       id="XMLID_34_"
       fill="#FFFFFF"
       d="M147,19.2v-1.8c0-3.5-1.8-5.7-5.3-5.7c-3.5,0-5.3,2.3-5.3,5.7v1.8c0,3.5,1.8,5.7,5.3,5.7   C145.2,25,147,22.7,147,19.2L147,19.2z M144.9,19.2c0,2.4-1,3.9-3.2,3.9c-2.2,0-3.2-1.5-3.2-3.9v-1.8c0-2.4,1-3.9,3.2-3.9   c2.2,0,3.2,1.5,3.2,3.9V19.2L144.9,19.2z" /><path
       id="XMLID_10_"
       fill="#FFFFFF"
       d="M154.4,13.1V12c0-0.3-0.2-0.4-0.5-0.4c-2,0-3.6,0.1-4.9,0.7c-0.3,0.1-0.4,0.3-0.4,0.5v11.4   c0,0.3,0.2,0.5,0.4,0.5h1.2c0.3,0,0.4-0.2,0.4-0.5V13.7c0.9-0.2,1.7-0.2,3.3-0.2C154.4,13.5,154.4,13.4,154.4,13.1L154.4,13.1z" /><path
       id="XMLID_8_"
       fill="#FFFFFF"
       d="M165,24.5c0-0.1,0-0.2-0.1-0.2l-5.3-6.3l5.2-5.6c0.1-0.1,0.1-0.2,0.1-0.3   c0-0.1-0.1-0.3-0.4-0.3H163c-0.2,0-0.3,0-0.5,0.2l-4.7,5.3V7.6c0-0.3-0.2-0.5-0.5-0.5h-1.1c-0.3,0-0.5,0.2-0.5,0.5v16.8   c0,0.3,0.2,0.5,0.5,0.5h1.1c0.3,0,0.5-0.2,0.5-0.5v-5.6l4.7,5.8c0.2,0.2,0.3,0.3,0.5,0.3h1.7C164.9,24.8,165,24.7,165,24.5   L165,24.5z" /><path
       id="XMLID_26_"
       fill="#BFD1DA"
       d="M61.5,24.2V9.3c0-0.3-0.2-0.5-0.5-0.5h-2.2c-0.3,0-0.5,0.2-0.5,0.5v14.9   c0,0.3,0.2,0.5,0.5,0.5H61C61.3,24.6,61.5,24.4,61.5,24.2L61.5,24.2z M50.1,24.6V8.9c-1.2,0-3.1,0.8-3.1,2.5v10.7   c-0.7,0.1-1.7,0.2-2.3,0.2c-2,0-2.5-1.4-2.5-3.3v-7.7c-0.1-1.9-2.2-2.4-3.1-2.4v10c0,3.6,1.8,5.9,5.6,5.9c0.6,0,1.8-0.2,2.3-0.3   v0.2c0.5,3.1-3.3,1.9-5.3,1.7c-1.5,0-2.5,1.2-2.8,2.6c0.9,0.3,3.7,0.6,5.7,0.8C48.2,29.9,50.1,27.9,50.1,24.6L50.1,24.6z    M55.8,24.2V9.3c0-0.3-0.2-0.5-0.5-0.5h-2.2c-0.3,0-0.5,0.2-0.5,0.5v14.9c0,0.3,0.2,0.5,0.5,0.5h2.2C55.6,24.6,55.8,24.4,55.8,24.2   L55.8,24.2z M54.2,4.6c0.9,0,1.6,0.7,1.6,1.6c0,0.9-0.7,1.6-1.6,1.6c-0.9,0-1.6-0.7-1.6-1.6C52.6,5.4,53.3,4.6,54.2,4.6L54.2,4.6z    M60,4.6c0.9,0,1.6,0.7,1.6,1.6c0,0.9-0.7,1.6-1.6,1.6c-0.9,0-1.6-0.7-1.6-1.6C58.4,5.4,59.1,4.6,60,4.6L60,4.6z" /></g><g
     transform="matrix(0.50580295,0,0,-0.50580295,-72.888583,177.03598)"
     inkscape:label="yii_logo_4 cveta"
     id="g4175"><g
       id="g4177"><g
         clip-path="url(#clipPath4181)"
         id="g4179"><g
           transform="translate(183.9946,331.1367)"
           id="g4185"><path
             inkscape:connector-curvature="0"
             id="path4187"
             style="fill:#7cc734;fill-opacity:1;fill-rule:evenodd;stroke:none"
             d="M 0,0 C -3.088,8.913 5.938,18.468 13.363,18.753 17.812,16.432 21.632,10.337 21.441,2.066 20.858,-8.124 13.648,-16.906 5.802,-24.997 5.364,-15.131 3.27,-8.842 0,0" /></g><g
           transform="translate(166.4893,282.874)"
           id="g4189"><path
             inkscape:connector-curvature="0"
             id="path4191"
             style="fill:#3e7fca;fill-opacity:1;fill-rule:evenodd;stroke:none"
             d="m 0,0 c -1.242,9.949 2.797,18.436 6.806,23.611 1.905,2.43 3.369,4.647 4.484,6.689 2.106,-0.912 7.767,-3.882 10.886,-8.704 C 21.723,14.601 16.554,1.871 0,0" /></g><g
           transform="translate(160.2344,320.6611)"
           id="g4193"><path
             inkscape:connector-curvature="0"
             id="path4195"
             style="fill:#eb6e2e;fill-opacity:1;fill-rule:evenodd;stroke:none"
             d="M 0,0 C -13.175,3.685 -16.425,15.259 -15.837,23.043 -3.043,28.229 10.726,22.917 18.676,11.845 24.25,4.085 27.74,-5.864 28.448,-14.547 24.624,-9.5 19.794,-6.576 13.642,-4.286 9.434,-2.721 5.547,-1.684 0,0" /></g><g
           transform="translate(459.5723,301.9727)"
           id="g4197" /><g
           transform="translate(262.3789,302.3389)"
           id="g4201" /><g
           transform="translate(259.4429,340.7461)"
           id="g4205" /><g
           transform="translate(240.5635,301.4668)"
           id="g4209" /></g></g></g></svg>