<?xml version="1.0" encoding="UTF-8" standalone="no"?>
<!-- Created with Inkscape (http://www.inkscape.org/) -->

<svg
   xmlns:dc="http://purl.org/dc/elements/1.1/"
   xmlns:cc="http://creativecommons.org/ns#"
   xmlns:rdf="http://www.w3.org/1999/02/22-rdf-syntax-ns#"
   xmlns:svg="http://www.w3.org/2000/svg"
   xmlns="http://www.w3.org/2000/svg"
   xmlns:sodipodi="http://sodipodi.sourceforge.net/DTD/sodipodi-0.dtd"
   xmlns:inkscape="http://www.inkscape.org/namespaces/inkscape"
   id="svg2"
   version="1.1"
   inkscape:version="0.91 r13725"
   xml:space="preserve"
   width="725"
   height="157"
   viewBox="0 0 725 157"
   sodipodi:docname="yii_logo_blue.svg"
   inkscape:export-xdpi="90"
   inkscape:export-ydpi="90"><metadata
     id="metadata8"><rdf:RDF><cc:Work
         rdf:about=""><dc:format>image/svg+xml</dc:format><dc:type
           rdf:resource="http://purl.org/dc/dcmitype/StillImage" /><dc:title></dc:title></cc:Work></rdf:RDF></metadata><defs
     id="defs6" /><sodipodi:namedview
     pagecolor="#ffffff"
     bordercolor="#666666"
     borderopacity="1"
     objecttolerance="10"
     gridtolerance="10"
     guidetolerance="10"
     inkscape:pageopacity="0"
     inkscape:pageshadow="2"
     inkscape:window-width="1670"
     inkscape:window-height="956"
     id="namedview4"
     showgrid="false"
     inkscape:zoom="0.832"
     inkscape:cx="388.91429"
     inkscape:cy="117.52728"
     inkscape:window-x="0"
     inkscape:window-y="0"
     inkscape:window-maximized="0"
     inkscape:current-layer="g10" /><g
     id="g10"
     inkscape:groupmode="layer"
     inkscape:label="ink_ext_XXXXXX"
     transform="matrix(1.25,0,0,-1.25,0,157)"><path
       inkscape:connector-curvature="0"
       id="path14"
       style="fill:#44789c;fill-opacity:1;fill-rule:evenodd;stroke:none"
       d="M 42.896934,0.96153846 C 40.545624,19.255096 48.191993,34.857702 55.778175,44.37278 72.269198,64.789996 71.240855,77.054774 69.617599,87.560998 78.292631,74.10416 83.702393,57.968027 84.902114,43.69174 85.514347,31.915551 76.883297,4.6932073 42.896934,0.96153846 l 0,0" /><path
       inkscape:connector-curvature="0"
       id="path16"
       style="fill:#44789c;fill-opacity:1;fill-rule:evenodd;stroke:none"
       d="m 76.027368,89.696231 c -5.843514,16.383429 11.239867,33.952199 25.293292,34.475829 8.41881,-4.26887 15.65145,-15.47345 15.28906,-30.679504 C 115.50819,74.756784 101.86106,58.610034 87.010207,43.735722 86.179264,61.875861 82.21691,73.438448 76.027368,89.696231 l 0,0" /><path
       inkscape:connector-curvature="0"
       id="path18"
       style="fill:#44789c;fill-opacity:1;fill-rule:evenodd;stroke:none"
       d="M 31.058085,70.434593 C 6.1218699,77.207553 -0.02877427,98.488601 1.0846815,112.79986 25.299981,122.33776 51.36028,112.56676 66.406687,92.213012 76.954658,77.944068 83.56031,59.654901 84.902114,43.69174 77.662757,52.969187 68.521645,58.344385 56.879477,62.553709 48.913183,65.434477 41.559041,67.340542 31.058085,70.434593 l 0,0" /><path
       inkscape:connector-curvature="0"
       id="path20"
       style="fill:#86a8bc;fill-opacity:1;fill-rule:evenodd;stroke:none"
       d="m 84.893334,43.779704 c -5.34415,6.862199 -11.734602,11.585654 -19.414576,15.268072 6.184912,12.181284 5.32555,20.847855 4.129501,28.584263 0.09355,-0.111749 0.149666,-0.204344 0.205461,-0.316094 4.551758,-5.830184 14.206364,-26.636133 15.079614,-43.536241" /><path
       inkscape:connector-curvature="0"
       id="path22"
       style="fill:#44789c;fill-opacity:1;fill-rule:nonzero;stroke:none"
       d="m 150.22987,59.731291 1.50065,-6.503004 0.49889,0 1.08238,6.585938 6.33864,23.347795 11.17585,0 -12.67649,-37.605962 c -1.05844,-3.114328 -2.07058,-5.961732 -3.04361,-8.546281 -0.97303,-2.585427 -2.04184,-4.822034 -3.20963,-6.713731 -1.1678,-1.887625 -2.45931,-3.347805 -3.87854,-4.377427 -1.41605,-1.028025 -3.10029,-1.543115 -5.04315,-1.543115 -2.89114,0 -5.19879,0.474302 -6.92214,1.419311 l 2.00273,8.671919 c 0.83174,-0.334532 1.66748,-0.500482 2.49923,-0.500482 1.28033,0 2.51597,0.541352 3.7117,1.62613 1.19653,1.083181 2.09851,3.043445 2.71075,5.877757 l -17.42909,41.691881 13.00936,0 7.67247,-23.430729" /><path
       inkscape:connector-curvature="0"
       id="path24"
       style="fill:#44789c;fill-opacity:1;fill-rule:nonzero;stroke:none"
       d="m 175.91173,83.16202 10.8398,0 0,-41.691881 -10.8398,0 0,41.691881 z m -1.58526,11.758547 c 0,1.611602 0.59387,2.986931 1.7904,4.125989 1.19574,1.139854 2.84884,1.711374 4.96173,1.711374 2.11288,0 3.82187,-0.57152 5.12775,-1.711374 1.30589,-1.139058 1.96041,-2.514387 1.96041,-4.125989 0,-1.613997 -0.65452,-2.96059 -1.96041,-4.045368 -1.30588,-1.083183 -3.01487,-1.62597 -5.12775,-1.62597 -2.11289,0 -3.76599,0.542787 -4.96173,1.62597 -1.19653,1.084778 -1.7904,2.431371 -1.7904,4.045368" /><path
       inkscape:connector-curvature="0"
       id="path26"
       style="fill:#44789c;fill-opacity:1;fill-rule:nonzero;stroke:none"
       d="m 196.82265,83.16202 10.83979,0 0,-41.691881 -10.83979,0 0,41.691881 z m -1.58527,11.758547 c 0,1.611602 0.59787,2.986931 1.7944,4.125989 1.19653,1.139854 2.84884,1.711374 4.96172,1.711374 2.11289,0 3.82187,-0.57152 5.12775,-1.711374 1.30589,-1.139058 1.96043,-2.514387 1.96043,-4.125989 0,-1.613997 -0.65454,-2.96059 -1.96043,-4.045368 -1.30588,-1.083183 -3.01486,-1.62597 -5.12775,-1.62597 -2.11288,0 -3.76519,0.542787 -4.96172,1.62597 -1.19653,1.084778 -1.7944,2.431371 -1.7944,4.045368" /><path
       inkscape:connector-curvature="0"
       id="path28"
       style="fill:#3f4143;fill-opacity:1;fill-rule:nonzero;stroke:none"
       d="m 214.00828,83.16202 6.50388,0 0,2.335585 c 0,2.555095 0.20913,4.779728 0.6266,6.671506 0.41747,1.887784 1.09676,3.430739 2.04184,4.627268 0.94509,1.194135 2.16956,2.084148 3.67021,2.667644 1.50064,0.584297 3.36209,0.876447 5.58433,0.876447 1.78002,0 3.35092,-0.11175 4.71347,-0.33446 1.35937,-0.221103 2.79217,-0.63937 4.29282,-1.249208 l -1.50065,-5.588324 c -1.28114,0.55556 -2.48725,0.918749 -3.6271,1.084778 -1.13986,0.166031 -2.20787,0.249843 -3.20964,0.249843 -1.44717,0 -2.57266,-0.223501 -3.37646,-0.66731 -0.807,-0.446205 -1.39049,-1.099147 -1.75129,-1.958827 -0.36478,-0.863672 -0.5843,-1.918117 -0.66891,-3.168925 -0.0814,-1.250807 -0.12372,-2.709152 -0.12372,-4.378225 l 0,-1.167792 11.09044,0 0,-5.835373 -11.09044,0 0,-35.856508 -6.6715,0 0,35.856508 -6.50388,0 0,5.835373" /><path
       inkscape:connector-curvature="0"
       id="path30"
       style="fill:#3f4143;fill-opacity:1;fill-rule:nonzero;stroke:none"
       d="m 265.18762,76.74267 c -1.66668,0.553724 -3.25195,0.83342 -4.7526,0.83342 -2.38907,0 -4.28244,-0.654778 -5.66974,-1.958747 -1.39049,-1.30772 -2.25018,-2.960271 -2.58303,-4.961722 l 0,-29.185482 -6.6707,0 0,41.691881 4.66798,0 1.2492,-5.085128 0.33605,0 c 1.05445,1.887944 2.31803,3.348205 3.79313,4.377906 1.47271,1.028104 3.34852,1.542955 5.62743,1.542955 1.61321,0 3.41878,-0.279375 5.42151,-0.835733 l -1.41923,-6.41935" /><path
       inkscape:connector-curvature="0"
       id="path32"
       style="fill:#3f4143;fill-opacity:1;fill-rule:nonzero;stroke:none"
       d="m 283.61447,46.640835 c 1.55733,0 2.94782,0.208575 4.17229,0.624527 1.22128,0.417467 2.27571,0.94477 3.16813,1.585499 0.88762,0.637058 1.62357,1.346355 2.20788,2.124937 0.58429,0.778581 1.01532,1.528825 1.29151,2.252489 l 0,6.920471 c -0.77827,0.05491 -1.57089,0.09547 -2.37471,0.125639 -0.80699,0.02651 -1.59962,0.04055 -2.37788,0.04055 -1.72335,0 -3.4044,-0.0973 -5.04314,-0.291828 -1.64194,-0.194606 -3.08592,-0.555641 -4.33512,-1.082864 -1.25241,-0.529138 -2.25418,-1.250967 -3.0045,-2.169236 -0.75032,-0.916753 -1.12549,-2.070419 -1.12549,-3.459476 0,-1.946295 0.69764,-3.544248 2.08495,-4.795214 1.39049,-1.250967 3.17051,-1.875494 5.33608,-1.875494 z M 271.7769,80.078024 c 2.1097,1.277628 4.56901,2.222718 7.37873,2.83495 2.80654,0.60984 5.73998,0.916356 8.79795,0.916356 2.88796,0 5.20919,-0.38953 6.96126,-1.166197 1.7513,-0.77986 3.08592,-1.794394 4.00226,-3.045042 0.91637,-1.249371 1.5286,-2.625977 1.83272,-4.126388 0.30811,-1.50041 0.46057,-3.002655 0.46057,-4.503386 0,-3.335353 -0.0854,-6.587452 -0.25143,-9.7551 -0.16604,-3.168845 -0.24746,-6.171502 -0.24746,-9.006453 0,-2.057885 0.0814,-4.002343 0.24746,-5.837287 0.16602,-1.833109 0.47414,-3.5302 0.92034,-5.085207 l -4.92261,0 -1.7481,5.835451 -0.41826,0 c -0.50209,-0.778581 -1.1247,-1.541278 -1.87502,-2.291444 -0.75033,-0.751761 -1.65631,-1.419071 -2.71075,-2.001212 -1.05843,-0.583976 -2.27971,-1.072565 -3.6702,-1.459861 -1.39049,-0.389451 -2.97256,-0.584295 -4.75259,-0.584295 -1.78003,0 -3.43314,0.280335 -4.96172,0.833419 -1.5286,0.556279 -2.84885,1.348909 -3.95996,2.377253 -1.11511,1.027706 -1.98917,2.264304 -2.62614,3.710117 -0.64017,1.445492 -0.95865,3.08591 -0.95865,4.920853 0,2.445181 0.49887,4.487182 1.50064,6.1276 1.00096,1.640417 2.40263,2.945903 4.2106,3.91941 1.80557,0.971272 3.97432,1.668435 6.50468,2.084386 2.52716,0.417468 5.31931,0.626441 8.38048,0.626441 0.77507,0 1.53897,0 2.29328,0 0.75033,0 1.51103,-0.05675 2.2893,-0.168423 0.17002,1.668754 0.25143,3.169164 0.25143,4.503386 0,3.057573 -0.61224,5.196877 -1.8335,6.421344 -1.22446,1.220954 -3.44671,1.834943 -6.67071,1.834943 -0.9443,0 -1.96042,-0.07232 -3.0436,-0.215758 -1.08639,-0.143441 -2.1975,-0.343314 -3.33656,-0.59994 -1.13986,-0.258144 -2.22303,-0.573441 -3.25273,-0.943175 -1.02571,-0.371411 -1.93169,-0.785446 -2.70676,-1.243784 l -2.08495,5.087043" /><path
       inkscape:connector-curvature="0"
       id="path34"
       style="fill:#3f4143;fill-opacity:1;fill-rule:nonzero;stroke:none"
       d="m 335.5625,41.470139 0,23.597638 c 0,2.222557 -0.0958,4.154802 -0.29055,5.794902 -0.19397,1.640417 -0.56913,3.015108 -1.1247,4.128302 -0.55634,1.111199 -1.34898,1.944699 -2.37868,2.501855 -1.0297,0.554123 -2.37471,0.833499 -4.04457,0.833499 -2.5551,0 -4.68235,-0.778582 -6.37696,-2.33391 -1.69542,-1.557083 -2.87758,-3.503377 -3.5425,-5.837526 l 0,-28.68476 -6.67149,0 0,41.691881 4.66797,0 1.24921,-5.085128 0.33605,0 c 1.50064,1.77819 3.23837,3.236454 5.20997,4.377906 1.97398,1.13746 4.54744,1.708985 7.71477,1.708985 2.66764,0 4.84837,-0.514851 6.54699,-1.542956 1.69142,-1.029701 3.01167,-2.822179 3.95995,-5.379271 1.27715,2.169558 3.04361,3.864253 5.29378,5.087124 2.25099,1.22287 4.79571,1.835103 7.63018,1.835103 2.33557,0 4.30717,-0.265807 5.92037,-0.792632 1.61001,-0.529217 2.94462,-1.45994 4.00306,-2.79424 1.05445,-1.333902 1.81835,-3.140509 2.29249,-5.41974 0.47094,-2.278993 0.70802,-5.168462 0.70802,-8.671919 l 0,-25.015113 -6.67071,0 0,25.098047 c 0,2.001451 -0.0989,3.739173 -0.29055,5.213081 -0.19796,1.471995 -0.58349,2.694544 -1.16779,3.668052 -0.5835,0.973107 -1.39051,1.694935 -2.4202,2.167321 -1.02652,0.472704 -2.37469,0.709695 -4.04138,0.709695 -2.78179,0 -4.95135,-0.778582 -6.50468,-2.33391 -1.55731,-1.557083 -2.66844,-3.781238 -3.33735,-6.671026 l 0,-27.85126 -6.6707,0" /><path
       inkscape:connector-curvature="0"
       id="path36"
       style="fill:#3f4143;fill-opacity:1;fill-rule:nonzero;stroke:none"
       d="m 391.26533,78.326335 c -3.28067,0 -5.9068,-0.861517 -7.8816,-2.585188 -1.9708,-1.723353 -3.15296,-4.669574 -3.54248,-8.838428 l 20.67783,0 c 0,4.22377 -0.80302,7.183962 -2.417,8.880813 -1.614,1.695335 -3.89292,2.542803 -6.83675,2.542803 z m 14.34318,-33.520523 c -1.66747,-1.33446 -3.76918,-2.390583 -6.29634,-3.169484 -2.53035,-0.776666 -5.21237,-1.165478 -8.04684,-1.165478 -3.16812,0 -5.92118,0.512616 -8.25676,1.540641 -2.33239,1.027945 -4.25051,2.502173 -5.75037,4.420371 -1.50463,1.918277 -2.61575,4.211239 -3.33733,6.879681 -0.7224,2.668442 -1.0832,5.669182 -1.0832,9.004855 0,7.114757 1.58207,12.534895 4.7526,16.25938 3.16733,3.724964 7.69721,5.588005 13.59365,5.588005 1.88619,0 3.77956,-0.209133 5.66895,-0.626602 1.89017,-0.415872 3.58479,-1.208501 5.08543,-2.376295 1.50066,-1.166116 2.72113,-2.822098 3.67021,-4.961403 0.9443,-2.139304 1.41524,-4.961723 1.41524,-8.463265 0,-1.834944 -0.16602,-3.864491 -0.49887,-6.08705 l -26.76825,0 c 0,-2.447017 0.25065,-4.614658 0.75352,-6.504518 0.49888,-1.889541 1.27795,-3.487574 2.33238,-4.793378 1.05446,-1.307721 2.43138,-2.307329 4.12999,-3.002657 1.69462,-0.695647 3.76519,-1.042394 6.21014,-1.042394 1.89017,0 3.77956,0.334614 5.66974,1.001525 1.88937,0.667231 3.30861,1.443977 4.2537,2.33383 l 2.50241,-4.835764" /><path
       inkscape:connector-curvature="0"
       id="path38"
       style="fill:#3f4143;fill-opacity:1;fill-rule:nonzero;stroke:none"
       d="m 444.38035,83.16202 9.59059,-24.347483 2.08415,-8.004929 0.16683,0 1.58525,8.171117 7.42103,24.181295 6.33785,0 -14.01031,-42.607916 -3.25194,0 -10.92521,27.516328 -1.58127,6.837296 -0.25144,0 -1.66667,-6.92023 -10.50695,-27.433394 -3.25274,0 -14.50921,42.607916 7.25421,0 8.25677,-24.264229 1.41524,-8.088183 0.0854,0 1.99954,8.254372 8.92488,24.09804 4.834,0" /><path
       inkscape:connector-curvature="0"
       id="path40"
       style="fill:#3f4143;fill-opacity:1;fill-rule:nonzero;stroke:none"
       d="m 482.44497,62.316398 c 0,-2.112723 0.20914,-4.142271 0.62661,-6.08697 0.41347,-1.946295 1.06881,-3.64155 1.95722,-5.087122 0.88762,-1.445813 2.05541,-2.613525 3.50337,-3.501863 1.44398,-0.889853 3.19527,-1.334222 5.25148,-1.334222 7.56232,-0.05484 11.34188,5.281969 11.34188,16.010177 0,2.167401 -0.20833,4.22377 -0.6258,6.169986 -0.41746,1.946295 -1.06881,3.64155 -1.96041,5.087122 -0.88844,1.445811 -2.05622,2.597641 -3.50021,3.460992 -1.44796,0.860001 -3.19924,1.291837 -5.25546,1.291837 -7.55911,0.05484 -11.33868,-5.281648 -11.33868,-16.009937 z m -6.92215,0 c 0,7.060238 1.57169,12.46561 4.71428,16.21883 3.13859,3.751146 7.65411,5.628555 13.54655,5.628555 3.11465,0 5.8254,-0.514851 8.13225,-1.542956 2.30365,-1.029701 4.2114,-2.501934 5.71205,-4.420132 1.50064,-1.917957 2.61177,-4.225606 3.33335,-6.920229 0.72239,-2.69678 1.08637,-5.685387 1.08637,-8.964068 0,-7.060157 -1.57089,-12.465849 -4.71347,-16.21875 -3.13938,-3.751624 -7.6581,-5.626798 -13.55055,-5.626798 -3.11064,0 -5.82139,0.512616 -8.12905,1.540641 -2.30685,1.027945 -4.2114,2.502173 -5.71124,4.420371 -1.50066,1.918277 -2.61177,4.22377 -3.33416,6.920549 -0.72557,2.69646 -1.08638,5.683232 -1.08638,8.963987" /><path
       inkscape:connector-curvature="0"
       id="path42"
       style="fill:#3f4143;fill-opacity:1;fill-rule:nonzero;stroke:none"
       d="m 539.89591,76.74267 c -1.66669,0.553724 -3.25274,0.83342 -4.75259,0.83342 -2.38907,0 -4.28244,-0.654778 -5.66974,-1.958747 -1.3905,-1.30772 -2.25099,-2.960271 -2.58304,-4.961722 l 0,-29.185482 -6.6715,0 0,41.691881 4.66797,0 1.24922,-5.085128 0.33604,0 c 1.05525,1.887944 2.31803,3.348205 3.79394,4.377906 1.47191,1.028104 3.34772,1.542955 5.62663,1.542955 1.614,0 3.41877,-0.279375 5.42229,-0.835733 l -1.41922,-6.41935" /><path
       inkscape:connector-curvature="0"
       id="path44"
       style="fill:#3f4143;fill-opacity:1;fill-rule:nonzero;stroke:none"
       d="m 557.49102,60.231692 -3.83623,0 0,-18.761553 -6.67071,0 0,58.369047 6.67071,0 0,-35.521575 3.41876,1.167712 12.92395,17.676697 7.75708,0 -12.7611,-16.760024 -3.41877,-2.751695 4.17309,-3.335354 13.92171,-18.844808 -8.25277,0 -13.92572,18.761553" /></g></svg>