<svg xmlns="http://www.w3.org/2000/svg" viewBox="0 0 524 284"><defs><style>.a{fill:#cebeaf;}.b{fill:#e89318;}.c{fill:#ede3da;}.d{fill:#ffb24d;}.e{fill:#83bfb3;}.f{fill:#bad9c1;}.g{fill:#cc3354;}.h{fill:#eb3a58;}.i{fill:#3e7a9c;}.j{fill:#4791b2;}.k{fill:#cfdee5;}.k,.l{fill-rule:evenodd;}.l{fill:#f2f2f2;}.m{fill:#727272;}.n{fill:#4d4d4d;}.o{fill:gray;}.p{fill:#999;}.q{fill:none;}</style></defs><title>books</title><polygon class="a" points="180.16 182.43 336.15 282.68 504.85 238.18 349.89 144.67 180.16 182.43"/><polygon class="b" points="180.16 151.26 180.16 182.43 336.15 282.68 336.15 251.51 180.16 151.26"/><polygon class="c" points="495.48 236.1 495.48 208.88 336.15 251.51 336.15 279.05 495.48 236.1"/><polygon class="d" points="180.16 151.26 336.15 251.51 504.85 207.01 349.89 113.5 180.16 151.26"/><polygon class="a" points="157.47 129.01 313.46 229.26 482.16 184.76 327.2 91.25 157.47 129.01"/><polygon class="e" points="157.47 97.84 157.47 129.01 313.46 229.26 313.46 198.09 157.47 97.84"/><polygon class="c" points="472.79 182.68 472.79 155.46 313.46 198.09 313.46 225.63 472.79 182.68"/><polygon class="f" points="157.47 97.84 313.46 198.09 482.16 153.59 327.2 60.08 157.47 97.84"/><polygon class="a" points="176.7 94.13 332.7 194.37 501.39 149.88 346.44 56.37 176.7 94.13"/><polygon class="g" points="176.7 62.96 176.7 94.13 332.7 194.37 332.7 163.2 176.7 62.96"/><polygon class="c" points="492.03 147.8 492.03 120.57 332.7 163.2 332.7 190.74 492.03 147.8"/><polygon class="h" points="176.7 62.96 332.7 163.2 501.39 118.71 346.44 25.2 176.7 62.96"/><polygon class="a" points="199.31 68.94 355.3 169.18 524 124.68 369.04 31.17 199.31 68.94"/><polygon class="i" points="199.31 37.77 199.31 68.94 355.3 169.18 355.3 138.01 199.31 37.77"/><polygon class="c" points="514.63 122.6 514.63 95.38 355.3 138.01 355.3 165.55 514.63 122.6"/><polygon class="j" points="199.31 37.77 355.3 138.01 524 93.51 369.04 0 199.31 37.77"/><path class="k" d="M397.61,62.91c-10.09-5.44-24.65-10.15-40-12.58,8,3.74,16.67,8.42,17,22.7,0.21,6.62,4.28,15.77,17.84,22.45C416.4,81.81,405.64,67.54,397.61,62.91Z"/><path class="k" d="M390.3,31.11C380.83,24.73,368,22.7,358.74,24c-10.58,5.23-12.59,18.56,2.46,23.21,15.24,4.48,25.74,7.82,38,15C401.22,50.72,401.47,39.21,390.3,31.11Z"/><path class="k" d="M352.12,49.56c-24.75-3-51.27,2.29-64,14.85,8.32,6.28,26.75,12.84,50.47,6.72,10.14-2.48,17.08-4.32,25.12-6,11.75-2.43,22.3-3.48,33.87-2.25C386.33,56.83,369.47,51.66,352.12,49.56Z"/><path class="l" d="M358,50.4a2.53,2.53,0,0,0-.36-0.06c5.89,2.75,12.12,6,15.13,13.23a96.58,96.58,0,0,1,24.88-.65C386.09,56.28,365.24,51.17,358,50.4Z"/><path class="m" d="M3.57,214.82s3.57,12,2,14.26-3.12,1.34-4.68-.89-0.22-4.9,0-8.69-0.53-7.82-.71-11.25C0,205.15,3.57,214.82,3.57,214.82Z"/><path class="m" d="M72.72,240.67S5.58,207.91,4.46,207,0,206.57,0,208.35a50.47,50.47,0,0,0,.77,6.27c-0.35-.35,41.7,24.74,47.15,27.65,5.83,3.11,21.67,10.87,21.67,10.87Z"/><path class="n" d="M204,199l0.44,0.1a43.65,43.65,0,0,0-7.43,7.46l-0.66-.17-1.9-.49-4.65-1.2c-21.71-5.58-43.86-11.13-46.4-11.25-5.13-.23-17.4,6.68-21,12.25l-0.14.21a18.43,18.43,0,0,1-2.76,3.25,19.54,19.54,0,0,1-8.61,4.77,8.29,8.29,0,0,1-1.88.24,2.07,2.07,0,0,1-1.94-1.28c-1-2-.43-5.87.38-7.63,1.12-2.45,20.52-12.71,27.21-15.82s12.72-1.56,22.09-.45c4.16,0.49,21.9,4.34,40.32,8.45l4.5,1Z"/><path class="n" d="M244.25,208.13l-8,6-0.13.1-0.91.67-1.37,1-0.24.18-1.46-.38A37.8,37.8,0,0,0,230.75,205l2.22,0.51,1,0.23,0.94,0.21,0.38,0.09,2.15,0.49,5,1.16,1.75,0.4h0Z"/><path class="o" d="M234.57,216.83c-5.16-1.35-21.7-5.7-40-10.42a49.69,49.69,0,0,1,8.46-8.5c11,2.48,21.7,4.91,29.93,6.79A43,43,0,0,1,234.57,216.83Z"/><path class="o" d="M145.88,209.91s-4.91-4.68-18.07-4.68-29,12.48-35.24,21.17-6.91,11.14-10.48,11.81-11.82,2-12.49,4.23-1.54,10.38,0,10.7a42.2,42.2,0,0,1,4.83,1.77L88.33,252s2.9-12.26,6.25-18.27,15.17-19.83,26.54-23.4S145.88,209.91,145.88,209.91Z"/><path class="o" d="M227.64,192.6s-6-3.2-11.05-3.64c-1.56-.13-9.72.57-15.61,5.13-3.67,2.83-13.61,12.48-15.61,16s-4.46,6.91-5.8,7.13-4.46-1.34-9.15-.45-12.49,4.46-13.16,5.13,0.67,4.46,7.14,3.34,21.86-2.45,22.53-4.46,6-11.14,12-17.38S215,191,221.28,192.09,227.64,192.6,227.64,192.6Z"/><path class="o" d="M83.46,254.22a21.94,21.94,0,0,1,2.68,5.54c1,3.17,6.6,14.37,11.33,17.17s3.86,0.93,3.86.93-11.39-14-12.39-20.9S83.46,254.22,83.46,254.22Z"/><path class="o" d="M97.94,273.28A20.87,20.87,0,0,0,112,278.33c22.59-1,33.37-16,38.2-35.21,4.06-16.11-.79-29-12.71-33.09,0,0,10,1.23,13.61,7.69s6.91,25.63.67,36.88-16.28,25.52-28.77,26.3S103.42,279.7,97.94,273.28Z"/><path class="p" d="M100.28,274.61a22.56,22.56,0,0,0,14.09,5.05c17.25,0.24,33.37-16,38.2-35.21,4.06-16.11-.59-29.39-12.51-33.43l0.26,0.08c11.92,4,17,17.91,12.92,34-4.84,19.2-21,35.45-38.2,35.21a22.56,22.56,0,0,1-14.09-5.05Z"/><path class="p" d="M236.24,214.1c0.06,7.39-2.05,14-6.09,23.59-0.31.74-.63,1.5-1,2.29l-0.1.24a32.78,32.78,0,0,1-15.29,16.21,27.59,27.59,0,0,1-9.8,3.06,13.62,13.62,0,0,1-3.49-.14h-0.05a12.32,12.32,0,0,1-4.76-1.92,11.44,11.44,0,0,1-1.34-1.08,6.37,6.37,0,0,1-.51-0.53l0.11,0.05c6.22,3,13.75-.07,18.62-3.28s12.12-8.5,16.68-22a49.3,49.3,0,0,0,2.89-14.92A37.8,37.8,0,0,0,230.75,205c-0.13-.47-0.25-0.93-0.38-1.4-2-7-9.42-10.21-9.42-10.21a10.59,10.59,0,0,1,1.4.09c0.26,0,.53.07,0.79,0.12a14.71,14.71,0,0,1,9,5.77,18.76,18.76,0,0,1,3.17,6.67,23.11,23.11,0,0,1,.57,3A40.83,40.83,0,0,1,236.24,214.1Z"/><path class="q" d="M235.21,214.87A46.83,46.83,0,0,1,233.82,226c-4.32,17.85-18.72,32.52-31.5,32.51a14.32,14.32,0,0,1-6.85-1.67,12.89,12.89,0,0,1-1.51-1c-6.93-5-9.65-16.58-6.41-29.93A51.13,51.13,0,0,1,197,206.53c16,4.15,30.58,8,35.11,9.16A37.8,37.8,0,0,0,230.75,205c-7.23-1.66-16.62-3.79-26.29-6,4.75-3.69,9.91-5.87,14.8-5.87a14.77,14.77,0,0,1,3.08.31q0.54,0.11,1.06.26c5.16,1.52,8.81,5.91,10.58,12A32.93,32.93,0,0,1,235.21,214.87Z"/><path class="o" d="M222.95,193.53a21.22,21.22,0,0,1,11,20.28c-0.75,14.22-7,26.85-12.71,32.76-6,6.22-16.73,14.71-27.1,9.69,0,0,4.57,4.57,12.49,3.12s19.74-11.59,23.42-21.5,7.92-18.61,5.13-30.75S225.29,193.65,222.95,193.53Z"/><path class="o" d="M176.14,227.3a73.24,73.24,0,0,0,2.08,11.89c1.49,5.05,7.36,14.48,9.37,16.27,0,0-5.35-25.33-6.1-27.41S176.37,226.7,176.14,227.3Z"/><path class="n" d="M244.25,208.13h0a1.86,1.86,0,0,0-1.75-.4c-1.27.21-2.72,1.07-3.59,1.07-0.5,0-.93-0.89-1.44-2.23-0.87-2.28-2-5.88-3.92-8.69a15.71,15.71,0,0,0-5.9-5.27h0c-3.56-1.75-8.61-2.34-15.94-.07a29.26,29.26,0,0,0-10,5.9,57.5,57.5,0,0,0-7.16,7.44,79.37,79.37,0,0,0-7.33,10.73c-1.34,2.45-2,2.67-5.58,2.23s-10.93,2.23-16.73,4.9c-3.44,1.58-5.39.19-7.14-2.09-1.21-1.56-2.33-3.54-3.79-5.27a25.85,25.85,0,0,0-8.71-7c-4.37-2.11-10.38-3.38-18.73-2.14a30.48,30.48,0,0,0-6.91,1.9,41.54,41.54,0,0,0-8.61,4.77c-8.93,6.35-15.68,15.54-19.06,21-5.13,8.24-12.27,7.35-15.62,8.24s-3.14,11.11-1.91,11.78H74.5c1.32,0,5.06-.44,9.27-0.23h0.1c4,0.21,5.21,12.85,12,21,0.43,0.52.88,1,1.35,1.49,8,8,19.85,8.24,31,4.23s21.46-16.56,25.65-24.73c4.47-8.69,8-20.5,9.59-23.85,1.22-2.62,8.35-5,12.66-5.43a7.26,7.26,0,0,1,2.73.08c2.68,0.89,3.12,19.17,7.36,26.07a16.59,16.59,0,0,0,1.3,1.83l0,0c4.43,5.34,11.58,6.48,19.65,5.07,8.92-1.56,17-10,21.19-16.27,5.54-8.19,8.47-20.94,8.92-22.51s5.13-2.9,5.8-3.57S245.26,209.14,244.25,208.13Zm-91,37c-4.84,19.2-21,35.45-38.2,35.21a22.5,22.5,0,0,1-13.58-4.65l-0.51-.4c-7.43-6.06-11.24-17-8.38-29.71,4.46-19.84,21.64-35.66,40.15-35.66a23.55,23.55,0,0,1,7,1l0.37,0.11,0.23,0.07C152.25,215.15,157.3,229,153.24,245.12Zm34.3-19.19A51.13,51.13,0,0,1,197,206.53a43.65,43.65,0,0,1,7.43-7.46c4.75-3.69,9.91-5.87,14.8-5.87a14.77,14.77,0,0,1,3.08.31q0.54,0.11,1.06.26c5.16,1.52,8.81,5.91,10.58,12a32.93,32.93,0,0,1,1.22,9.1A46.83,46.83,0,0,1,233.82,226c-4.32,17.85-18.72,32.52-31.5,32.51a14.32,14.32,0,0,1-6.85-1.67,12.89,12.89,0,0,1-1.51-1C187,250.88,184.31,239.28,187.54,225.94Z"/></svg>