<svg xmlns="http://www.w3.org/2000/svg" id="Res" viewBox="0 0 1140 480"><defs><style>.cls-10{fill:#fff}.cls-2{fill:#d1d1d1}.cls-10,.cls-2{fill-rule:evenodd}.cls-3{fill:#247ba0}.cls-4{fill:#70c1b3}.cls-5{fill:#b2dbbf}.cls-6{fill:#ff1654}.cls-7{fill:gray}</style></defs><path d="M0 0h1140v480H0z" fill="#fff"/><g id="Res-2" data-name="Res"><g id="lines"><path d="M665 37.784l.67-.775L839 209.21l-.67.775zM836.964 211.5l.072 1-181 13-.072-1z" class="cls-2"/><path d="M836.51 210.9l.98.208-29 136-.98-.208z" class="cls-2"/><path d="M807.83 346.53l.34.94-141 51-.34-.94z" class="cls-2"/><path d="M807.7 347.4l.6-.8 103 77-.6.8zm30.95-135.043l.7-.714 174 171-.7.714z" class="cls-2"/><path d="M1012.82 382.535l.36.93-102.995 41-.37-.93zm0-1.07l.36-.93 95 37-.36.93zm-175.936-167.98l.232-.97 180 43-.24.97z" class="cls-2"/><path d="M840.235 213.442l-.47-.884 209.005-111 .46.884zm-.78-.237l-.91-.41 71-158 .91.41zM667.213 401.547l-.424.906-143-67 .42-.906zM656.033 225.5l-.066 1-228-15 .066-1z" class="cls-2"/><path d="M655.678 224.618l.644.764-134 113-.644-.764z" class="cls-2"/><path d="M522.758 337.563l.484.874-103 57-.484-.874zM420.09 395.508l-.18.984-133-24 .18-.984z" class="cls-2"/><path d="M429.617 206.678l.766.644-142 169-.766-.644z" class="cls-2"/><path d="M429.86 208.52l.28.96-133 39-.28-.96z" class="cls-2"/><path d="M296.98 247.5l.04 1-133 5-.04-1z" class="cls-2"/><path d="M163.524 252.847l.952.306-38 118-.952-.306zM297.5 247.96l1 .08-10 128-1-.08z" class="cls-2"/><path d="M288.015 375.5l-.03 1-162-5 .03-1z" class="cls-2"/><path d="M126.026 370.5l-.052 1-115-6 .052-1z" class="cls-2"/><path d="M11.3 365.4l-.6-.8 153-114 .6.8zm512.89-26.863l-.38.926-226-92 .38-.926zm284.975 6.99l-.33.945-381-133 .33-.944zm211.635-92.984l.4.914-214 95-.406-.914zM653.5 229.04l-1-.08 15-182 1 .08z" class="cls-2"/><path d="M524.4 339.7l-.794.608-99-129 .794-.608zm132.1-116.686l1-.028 5 180-1 .028zM906.414 423.28l-.828-.56 114-168 .82.56z" class="cls-2"/><path d="M1107.44 418.765l-.88.47-88-165 .88-.47z" class="cls-2"/><path d="M1019.5 254.972l1 .056-7 126-1-.056zM663.93 48.5l.14-.99 394 56-.14.99z" class="cls-2"/><path d="M1058.16 103.526l-.32.948-148-50 .32-.947z" class="cls-2"/><path d="M909.56 54.238l.88-.477 109 201-.88.48z" class="cls-2"/></g><g id="balls"><circle cx="839" cy="210" r="77" class="cls-3"/><circle cx="665" cy="50" r="50" class="cls-4"/><circle cx="665" cy="393" r="50" class="cls-5"/><circle cx="524" cy="337" r="31" class="cls-3"/><circle cx="656" cy="225" r="31" class="cls-6"/><circle cx="428" cy="210" r="31" class="cls-7"/><circle cx="1049" cy="102" r="31" class="cls-3"/><circle cx="910.5" cy="56.5" r="19.5" class="cls-5"/><circle cx="910.5" cy="423.5" r="19.5" class="cls-3"/><circle cx="1107.5" cy="417.5" r="19.5" class="cls-4"/><circle cx="421.5" cy="395.5" r="4.5" class="cls-4"/><circle cx="298" cy="248" r="3" class="cls-4"/><circle cx="126" cy="371" r="5" class="cls-6"/><circle cx="1012.5" cy="381.5" r="4.5" fill="#4d4d4d"/><circle cx="809" cy="347" r="4" class="cls-4"/><circle cx="1018" cy="256" r="31" fill="#bacd65"/><circle cx="288" cy="370" r="47" class="cls-6"/><circle cx="162.5" cy="252.5" r="27.5" class="cls-3"/><circle cx="11" cy="365" r="11" class="cls-7"/></g><path id="yii" d="M852.8 221.83v.032-.034m-11.742-9.128a51.3 51.3 0 01-5.88 8.875c-4.6 5.79-9.227 15.286-7.8 26.42 20.586-2.27 25.814-18.84 25.443-26.006v-.11l.01.11v-.01a.025.025 0 010 .01 31.712 31.712 0 00-11.75-9.29m21.71-39.69c-8.51.31-18.86 11.01-15.32 20.98 3.75 9.89 6.15 16.93 6.65 27.97 9-9.06 17.26-18.88 17.93-30.29.22-9.26-4.16-16.08-9.26-18.67m-9.95 48.85a.136.136 0 000 .02.15.15 0 010-.02m-39.12-44.16a31.55 31.55 0 00-11.64 2.23c-.67 8.71 3.05 21.66 18.158 25.78 6.36 1.88 10.815 3.04 15.64 4.8a55.153 55.153 0 015.21 2.18c3.74-7.41 3.22-12.68 2.5-17.39l.01.01v-.027l.18.283q-1.01-1.6-2.12-3.114c-6.72-9.134-17.07-14.766-27.92-14.766m39.1 44.128c0 .05.004.1.006.157l.006.01-.01-.11a.136.136 0 010-.02v-.034m-9.245-26.53v.026l.118.18.063.08-.18-.28m-2.5 17.4a.047.047 0 010 .01v-.01m2.68-17.11q.945 1.5 1.8 3.055v.01l.05.095.053.1.21.39a.08.08 0 01.006.016l.04.073.02.034.038.07.02.045.035.063.024.045.03.06.03.057.023.05.03.062.02.04.04.08c0 .01.01.016.013.025l.117.22a.134.134 0 01.006.01l.05.1.01.02.05.09.01.017.048.1a.14.14 0 01.01.02l.05.1.01.01a60.24 60.24 0 016.17 20.782v.01c0 .03.01.06.01.1v.02l.01.09a.15.15 0 000 .02c0 .03 0 .06.01.09a.194.194 0 000 .02v.06c-.58-10.18-6.3-22.617-9.06-26.25m9.045 26.083c0 .03 0 .06.01.09 0-.03 0-.06-.003-.09m-.01-.116l.01.09-.01-.095m-.01-.115c0 .03.01.064.01.1 0-.034-.005-.067-.01-.1m-11.7-8.735v.01a31.712 31.712 0 0111.757 9.29.025.025 0 000-.01 31.91 31.91 0 00-11.75-9.29m5.533-12.06a60.247 60.247 0 016.17 20.79 60.24 60.24 0 00-6.17-20.782m-.055-.11l.05.1-.05-.1m-.06-.11c.02.03.034.06.05.1l-.05-.1m-.056-.114l.046.094-.044-.096m-.06-.12l.05.1-.05-.1m-.12-.23l.118.228-.11-.223m-.056-.105l.04.08-.04-.08m-.056-.108l.03.06a.874.874 0 00-.032-.06m-.053-.105l.03.052-.03-.06m-.054-.105l.025.05-.024-.05m-.057-.1l.03.044-.023-.046m-.056-.1l.018.033-.013-.035m-.05-.09a.08.08 0 01.01.017.08.08 0 00-.01-.016m-.268-.49v.005-.004m-.054-.1v.01-.006m7.25 23.11a.194.194 0 000 .023.194.194 0 010-.026m-.01-.11v.02a.15.15 0 010-.02m-.02-.22a.038.038 0 010 .01v-.01m-6.177-20.8l.003.01-.01-.01m-.06-.116a.14.14 0 01.01.016.14.14 0 00-.01-.017m-.057-.11l.01.015-.01-.02m-.06-.113l.01.02-.01-.02m-.06-.11l.008.01a.134.134 0 00-.005-.01m-.13-.25l.01.025c0-.01-.01-.016-.01-.025m-.066-.127l.028.05-.03-.043m-.06-.113l.03.05-.03-.05m-.06-.115l.03.06-.03-.055m-.054-.11l.03.067-.03-.06m-.06-.11l.03.062-.036-.066m-.05-.11l.04.07-.04-.072m-.22-.405l.21.39-.21-.39m-.054-.1l.057.1c-.02-.03-.035-.064-.052-.1m-.057-.1l.05.095-.05-.095m-1.81-3.062q.95 1.5 1.807 3.055-.853-1.557-1.8-3.055m-.18-.276c.725 4.705 1.245 9.976-2.5 17.385 3.745-7.4 3.225-12.676 2.5-17.374l-.01-.02m.01.013c.72 4.7 1.24 9.974-2.5 17.373a31.91 31.91 0 0111.75 9.3c0-.05 0-.1-.01-.156v-.06a.194.194 0 010-.02c0-.03-.005-.06-.007-.09v-.02l-.01-.09v-.02c0-.03-.01-.062-.01-.1a.038.038 0 000-.01 60.247 60.247 0 00-6.17-20.782l-.007-.01-.05-.1a.14.14 0 00-.01-.014l-.05-.1-.01-.02c-.016-.03-.03-.062-.05-.094l-.01-.016-.05-.1-.006-.016-.12-.22-.01-.028-.04-.08-.026-.043-.035-.06-.028-.05-.03-.055-.03-.06-.026-.05-.03-.06-.024-.044-.033-.067-.02-.03c-.015-.02-.028-.05-.04-.07a.08.08 0 00-.01-.018l-.21-.39-.054-.1v-.003l-.05-.09v-.01q-.86-1.56-1.804-3.055c-.02-.03-.04-.055-.06-.08l-.116-.18" class="cls-10"/><path id="docs" d="M681.507 33.207h-1.32v33.045a3.953 3.953 0 01-3.915 3.982H652.23v1.225a2.52 2.52 0 002.5 2.54h26.77a2.52 2.52 0 002.5-2.54V35.74a2.517 2.517 0 00-2.493-2.54zM662.88 68.793h13.388a2.52 2.52 0 002.5-2.54V30.54a2.52 2.52 0 00-2.5-2.54h-17.84v.84a2.363 2.363 0 01.014.27v6.96a3.55 3.55 0 01-3.516 3.58h-6.84c-.07 0-.147 0-.218-.01H647v26.61a2.52 2.52 0 002.5 2.54h13.38zm.5-8.637h-8.73a1.2 1.2 0 010-2.4h8.735a1.2 1.2 0 010 2.4zm8.733-6.13h-17.457a1.2 1.2 0 010-2.4h17.462a1.2 1.2 0 010 2.4zm-17.462-8.91h17.47a1.2 1.2 0 010 2.4h-17.46a1.2 1.2 0 010-2.4zm-6.57-6.908h6.86a2.115 2.115 0 002.08-2.114V29.11a1.06 1.06 0 00-1.06-1.07 1.014 1.014 0 00-.73.316l-7.89 8.027a1.072 1.072 0 00.75 1.825z" class="cls-10"/><path id="video" d="M288 345a25 25 0 1025 25 25 25 0 00-25-25zm11.963 27.007l-14.913 10.26a2.436 2.436 0 01-3.818-2.008v-20.52a2.436 2.436 0 013.818-2.01l14.913 10.26a2.437 2.437 0 010 4.01z" class="cls-10"/><path id="community" d="M670.172 379.2a9.068 9.068 0 014.228 6.74 7.316 7.316 0 10-4.228-6.74zm-4.8 14.99a7.32 7.32 0 10-7.335-7.32 7.327 7.327 0 007.33 7.322zm3.11.5h-6.222a9.393 9.393 0 00-9.39 9.374v7.6l.02.12.524.163A42.81 42.81 0 00666.177 414c6.9 0 10.9-1.964 11.147-2.09l.49-.247h.052v-7.6a9.39 9.39 0 00-9.387-9.372zm12.133-7.558h-6.174a9.02 9.02 0 01-2.79 6.285 11.14 11.14 0 017.97 10.658v2.34a25.335 25.335 0 009.85-2.062l.49-.248h.04v-7.6a9.392 9.392 0 00-9.39-9.372zm-28.11-.5a7.29 7.29 0 003.9-1.13 9.057 9.057 0 013.41-5.78c.008-.136.02-.272.02-.41a7.333 7.333 0 10-7.335 7.323zm6.585 6.783a9.02 9.02 0 01-2.787-6.25c-.23-.017-.456-.035-.69-.035h-6.22a9.392 9.392 0 00-9.39 9.373v7.6l.018.117.53.166a44.127 44.127 0 0010.58 1.984v-2.295a11.144 11.144 0 017.97-10.657z" class="cls-10"/><path id="books" d="M1033 112.28a3.74 3.74 0 003.76 3.72h27.15v-1.653h-1.74v-4.133h1.74v-.723h2.09v-1.65h-1.25v-4.13h1.25v-1.65h-1.36v-1.41l-2.06-3.82h2.17V94.6l-5.45-6.6h-19.21l-4.96 7.733a3.68 3.68 0 00-1.4 2.875 3.744 3.744 0 003.72 3.716 3.72 3.72 0 00-2.36 3.447 3.68 3.68 0 001.33 2.83 3.725 3.725 0 00-3.42 3.69zm2.4-13.672a2.047 2.047 0 011.07-1.792h24.87v3.86h-23.85a2.083 2.083 0 01-2.09-2.068zm3.44 5.1h24.24v4.133h-24.24a2.067 2.067 0 110-4.13zm-2.08 6.51h23.75v4.132h-23.75a2.067 2.067 0 110-4.136z" class="cls-10"/><path id="plugins" d="M671.714 220.143h-2.57v-6.857a3.44 3.44 0 00-3.43-3.43h-6.857v-2.57a4.286 4.286 0 10-8.57 0v2.57h-6.858a3.44 3.44 0 00-3.43 3.43v6.514h2.57a4.63 4.63 0 110 9.257H640v6.514a3.44 3.44 0 003.43 3.43h6.513v-2.57a4.63 4.63 0 119.257 0V239h6.514a3.44 3.44 0 003.43-3.43v-6.856h2.57a4.286 4.286 0 100-8.57z" class="cls-10"/><path id="cube" d="M1029.3 260.86v-11.213a2.437 2.437 0 10-2.81-3.656l-7.1-2.33a1.68 1.68 0 00.02-.22 2.46 2.46 0 00-4.92 0 1.817 1.817 0 00.01.24l-6.99 2.32a2.472 2.472 0 00-2.05-1.08 2.432 2.432 0 00-.52 4.82v11.08a2.432 2.432 0 00.52 4.82 2.463 2.463 0 002.27-1.5l7.08 3.26a2.453 2.453 0 104.6 1.2 2.42 2.42 0 00-.32-1.194l7.17-3.277a2.466 2.466 0 004.74-.924 2.432 2.432 0 00-1.7-2.31zm-23.08 0v-11.213a2.535 2.535 0 001.12-.75l7.2 3.32a2.858 2.858 0 00-.05.51 2.44 2.44 0 001.94 2.38v2.946l-9.52 3.155a2.49 2.49 0 00-.69-.35zm1.52 1.412l8.69-2.88v6.8a2.36 2.36 0 00-.63.23l-7.91-3.643a2.786 2.786 0 00-.15-.51zm9.97 3.98v-6.78l8.54 2.804a2.035 2.035 0 00-.13.49l-8.02 3.655a2.142 2.142 0 00-.39-.16zm0-8.12v-3.09a2.434 2.434 0 001.7-2.314 2.1 2.1 0 00-.06-.5l7.3-3.33a2.5 2.5 0 001.37.82v11.08a2.54 2.54 0 00-.94.417zm8.38-10.935a.633.633 0 00-.01.137 1.846 1.846 0 00.04.408l-7.35 3.352a2.52 2.52 0 00-1.06-.68v-4.667a2.525 2.525 0 001.24-.9zm-11.14-2.34a2.487 2.487 0 001.48.957v4.535a2.47 2.47 0 00-1.3.73l-7.25-3.34a1.915 1.915 0 00.04-.42.69.69 0 00-.01-.15z" class="cls-10"/><path id="tags" d="M543.748 336.41l-10.21-10.063a.88.88 0 00-1.2 0l-2.213 2.182a.825.825 0 000 1.18l7.4 7.29-7.4 7.29a.827.827 0 000 1.18l2.214 2.18a.854.854 0 001.2 0l10.2-10.06a.826.826 0 000-1.18zm-25.89 7.882l-7.4-7.292 7.4-7.29a.826.826 0 000-1.18l-2.214-2.182a.854.854 0 00-1.2 0l-10.21 10.062a.825.825 0 000 1.18l10.21 10.063a.854.854 0 001.2 0l2.213-2.182a.823.823 0 000-1.17zm11.94-21.33a.842.842 0 00-.5-.4l-1.8-.522a.848.848 0 00-1.05.564l-8.33 27.805a.827.827 0 00.067.63.844.844 0 00.5.4l1.795.52a.864.864 0 00.24.03.845.845 0 00.81-.6l8.332-27.81a.82.82 0 00-.062-.63z" class="cls-10"/><path id="search" d="M442.265 220.72l-6.517-6.517c-.035-.035-.075-.06-.112-.09a12.34 12.34 0 10-3.525 3.523c.04.036.06.077.1.112l6.52 6.517a2.507 2.507 0 103.55-3.545zm-16.932-5.328a8.06 8.06 0 118.058-8.058 8.058 8.058 0 01-8.05 8.058z" class="cls-10"/><path id="browser" d="M177.56 241h-29.12a1.445 1.445 0 00-1.44 1.45v21.1a1.445 1.445 0 001.44 1.45h29.12a1.446 1.446 0 001.44-1.45v-21.1a1.445 1.445 0 00-1.44-1.45zm-2.884 2.095a1.35 1.35 0 11-1.34 1.348 1.344 1.344 0 011.34-1.343zm-3.6 0a1.35 1.35 0 11-1.34 1.348 1.344 1.344 0 011.336-1.343zm-3.6 0a1.35 1.35 0 11-1.34 1.348 1.344 1.344 0 011.332-1.343zm8.65 19h-26.243V247.6h26.234v14.5z" class="cls-10"/><path id="php" d="M916.515 422.083a2.086 2.086 0 00-.538.053v1.7a2.12 2.12 0 00.435.033.957.957 0 001.117-.94.86.86 0 00-1.02-.85zm2.332-7.1h-15.69a1.15 1.15 0 00-1.15 1.15v15.727a1.15 1.15 0 001.15 1.15h15.69a1.15 1.15 0 001.153-1.15v-15.722a1.15 1.15 0 00-1.153-1.15zm-11.385 9.272a2.66 2.66 0 01-1.865.605 3.253 3.253 0 01-.442-.026v2.066h-1.286v-5.674a10.62 10.62 0 011.75-.12 2.75 2.75 0 011.75.462 1.682 1.682 0 01.61 1.33 1.84 1.84 0 01-.53 1.362zm6.093 2.636h-1.295v-2.4h-2.136v2.42h-1.3v-5.75h1.3v2.21h2.136v-2.21h1.295v5.75zm4.73-2.63a2.66 2.66 0 01-1.865.61 3.28 3.28 0 01-.443-.02v2.07h-1.284v-5.67a10.6 10.6 0 011.754-.12 2.752 2.752 0 011.754.47 1.682 1.682 0 01.62 1.33 1.847 1.847 0 01-.53 1.36zm-12.593-2.17a2.065 2.065 0 00-.537.06v1.7a2.1 2.1 0 00.435.04.956.956 0 001.115-.94.858.858 0 00-1.013-.84z" class="cls-10"/><path id="sett" d="M1116.85 415.287a.533.533 0 00-.24-.374.586.586 0 00-.45-.073 1.683 1.683 0 01-1.02-.06 1.7 1.7 0 01-.32-3.02.576.576 0 00.25-.373.57.57 0 00-.11-.436 9.842 9.842 0 00-2.19-2.11.568.568 0 00-.44-.09.555.555 0 00-.36.26 1.7 1.7 0 01-.77.68 1.68 1.68 0 01-.69.15 1.706 1.706 0 01-1.67-2.05.56.56 0 00-.47-.67 9.926 9.926 0 00-3.04.05.572.572 0 00-.38.25.566.566 0 00-.07.44 1.686 1.686 0 01-.07 1.016 1.712 1.712 0 01-1.59 1.1 1.69 1.69 0 01-.61-.113 1.673 1.673 0 01-.82-.664.554.554 0 00-.8-.145 9.868 9.868 0 00-2.13 2.19.53.53 0 00-.09.44.538.538 0 00.26.36 1.748 1.748 0 01.68.77 1.693 1.693 0 01.03 1.306 1.674 1.674 0 01-.9.946 1.7 1.7 0 01-1.06.107.565.565 0 00-.44.087.553.553 0 00-.24.38 10.128 10.128 0 00.04 3.06.582.582 0 00.25.374.568.568 0 00.45.07 1.7 1.7 0 011.04.05 1.7 1.7 0 01.98 2.21 1.69 1.69 0 01-.69.83.55.55 0 00-.26.37.574.574 0 00.1.44 9.93 9.93 0 002.21 2.14.55.55 0 00.44.09.584.584 0 00.37-.27 1.7 1.7 0 011.47-.85 1.7 1.7 0 011.56 1.01 1.678 1.678 0 01.1 1.08.585.585 0 00.09.45.57.57 0 00.38.24 10.16 10.16 0 001.38.1 9.87 9.87 0 001.69-.15.546.546 0 00.38-.25.584.584 0 00.07-.445 1.648 1.648 0 01.05-1.054 1.713 1.713 0 011.59-1.1 1.69 1.69 0 011.44.807.567.567 0 00.82.15 9.955 9.955 0 002.13-2.21.556.556 0 00-.18-.81 1.7 1.7 0 01.17-3.03 1.688 1.688 0 011.06-.1.55.55 0 00.44-.09.557.557 0 00.24-.386 9.78 9.78 0 00-.06-3.064zm-8.1 5.64a4.3 4.3 0 112.18-5.675 4.28 4.28 0 01-2.18 5.675zm-1.75-7.105a3.178 3.178 0 000 6.355 3.176 3.176 0 002.9-4.47 3.18 3.18 0 00-2.9-1.885z" class="cls-10"/><path id="speed" d="M920 57.82a10 10 0 00-20 0c0 .063.017.118.018.18h7.758c0-.06-.018-.118-.018-.18a2.223 2.223 0 012.242-2.2 2.255 2.255 0 011.117.3l5.337-4.69.2.2-4.734 5.28a2.163 2.163 0 01.32 1.116c0 .06-.015.12-.02.18h7.757c.006-.068.023-.123.023-.185zm-17.54-.7h-.916a.385.385 0 110-.77h.915a.385.385 0 110 .773zm7.934-6.816a.393.393 0 01-.786 0v-.9a.393.393 0 01.786 0v.9zm8.067 6.817h-.91a.385.385 0 110-.77h.92a.385.385 0 110 .78z" class="cls-10"/></g><path d="M843.564 195.32c.72 4.7 1.24 9.976-2.5 17.375a31.91 31.91 0 0111.75 9.29c0-.05 0-.1-.01-.155v-.058a.194.194 0 010-.024c0-.03-.005-.06-.007-.09v-.02l-.01-.092v-.02c0-.032-.006-.065-.01-.1a.038.038 0 000-.01 60.247 60.247 0 00-6.167-20.785l-.006-.01-.05-.1a.14.14 0 00-.01-.01l-.047-.1-.01-.01-.047-.09-.01-.01-.05-.1-.006-.01-.115-.22-.02-.023-.04-.08-.03-.05-.04-.06-.03-.05-.03-.056-.03-.06-.03-.05-.03-.06-.03-.044-.037-.07-.016-.034-.04-.07a.08.08 0 00-.01-.016l-.21-.39-.053-.1v-.003l-.05-.09v-.01q-.858-1.56-1.805-3.06l-.06-.08-.115-.18" fill="#a5d2e5" fill-rule="evenodd"/></svg>