<svg xmlns="http://www.w3.org/2000/svg" viewBox="0 0 600 295"><defs><style>.a{fill:#ebf1f2;}.b{fill:#4d4d4d;}.c{fill:#6a9990;}.d{fill:#b22d49;}.e{fill:#295366;}.f{fill:gray;}.g,.k{fill:#fff;}.h{fill:#b0b0b0;}.h,.i,.j,.k{fill-rule:evenodd;}.i{fill:#ced1d2;}.j{fill:#4c4c4c;}.l{fill:#cacaca;}.m{fill:#aaaaab;}.n{fill:#f9ffff;}.o{fill:#fcb;}.p{fill:#3d7a9c;}.q{fill:#4a4c47;}.r{fill:#333530;}.s{fill:#eb3a58;}.t{fill:#264057;}.u{fill:#07253e;}.v{fill:#83bfb3;}.w{fill:#e8af58;}.x{fill:#cc9650;}</style></defs><title>team</title><path class="a" d="M277.83,192.39A72.3,72.3,0,0,0,271.36,177l7.82-9.85a8.08,8.08,0,0,0-.61-10.71L265.11,143a8.06,8.06,0,0,0-10.72-.61l-9.79,7.75a71.18,71.18,0,0,0-16-6.76l-1.47-12.59a8.07,8.07,0,0,0-8-7.14h-19a8.07,8.07,0,0,0-8,7.14L190.69,143a72,72,0,0,0-17.13,6.92l-9.47-7.49a8.1,8.1,0,0,0-10.72.61L139.9,156.44a8,8,0,0,0-.61,10.71l7.37,9.34a70.21,70.21,0,0,0-7,16.83l-11.36,1.31a8.06,8.06,0,0,0-7.15,8v19a8.07,8.07,0,0,0,7.15,8l11.2,1.31a70.66,70.66,0,0,0,6.76,16.64l-6.89,8.7a8.08,8.08,0,0,0,.61,10.71l13.43,13.42a8.06,8.06,0,0,0,10.72.61l8.45-6.69A71,71,0,0,0,190,281.67l1.28,10.93a8.07,8.07,0,0,0,8,7.14h19a8.07,8.07,0,0,0,8-7.14l1.28-10.93a70.73,70.73,0,0,0,18-7.59l8.77,6.95a8.1,8.1,0,0,0,10.72-.61L278.57,267a8,8,0,0,0,.61-10.71L271.84,247a69.3,69.3,0,0,0,6.64-16.8l11.74-1.34a8.07,8.07,0,0,0,7.15-8v-19a8.07,8.07,0,0,0-7.15-8Zm-69,51.47a31.46,31.46,0,1,1,31.48-31.46A31.52,31.52,0,0,1,208.84,243.87Z" transform="translate(0 -5)"/><path class="a" d="M20.57,187.71l10,8.48a8,8,0,0,0,10.59-.29l5.55-5.2a57.41,57.41,0,0,0,14.8,4.78l1.56,7.65a8,8,0,0,0,8.49,6.37l13.11-1.12a8,8,0,0,0,7.3-7.68l0.25-7.78a57.55,57.55,0,0,0,14.13-7.43l6.63,4.4a8,8,0,0,0,10.49-1.5l8.49-10.1a7.94,7.94,0,0,0-.29-10.58l-5.81-6.18a59.37,59.37,0,0,0,4.27-14.15l8.29-1.69a8,8,0,0,0,6.38-8.48l-1.12-13.1a8,8,0,0,0-7.69-7.3l-9-.29a58.51,58.51,0,0,0-6.35-12.11l5-7.55a8,8,0,0,0-1.5-10.49l-10-8.48a8,8,0,0,0-10.59.29l-6.57,6.15a57.63,57.63,0,0,0-13.49-4.4l-1.82-9a8,8,0,0,0-8.49-6.37L60.15,65.7a8,8,0,0,0-7.3,7.68l-0.29,8.8A59,59,0,0,0,39.07,89l-7.24-4.78a8,8,0,0,0-10.49,1.5l-8.49,10a7.94,7.94,0,0,0,.29,10.58L19,112.52a57.37,57.37,0,0,0-4.59,14.22l-8,1.63A8,8,0,0,0,0,136.84l1.12,13.1a8,8,0,0,0,7.69,7.3l8,0.25a57.86,57.86,0,0,0,6.67,13.13l-4.37,6.57A7.92,7.92,0,0,0,20.57,187.71ZM70,112A25.75,25.75,0,1,1,46.47,139.8,25.77,25.77,0,0,1,70,112Z" transform="translate(0 -5)"/><path class="a" d="M232,76.73a8,8,0,0,0,7.15-7.84l0.1-8.06a8,8,0,0,0-7-8l-5.93-.76a46,46,0,0,0-4.21-10.3L225.93,37a7.94,7.94,0,0,0-.48-10.58l-5.65-5.77A8,8,0,0,0,209.22,20l-4.75,3.67A46.61,46.61,0,0,0,193.88,19l-0.64-6.12a8,8,0,0,0-7.85-7.14l-8.07-.1a8,8,0,0,0-8,6.95l-0.73,5.8a48,48,0,0,0-11.48,4.46l-4.47-3.6a8,8,0,0,0-10.59.48l-5.77,5.64A8,8,0,0,0,135.53,36l3.41,4.43a46.2,46.2,0,0,0-4.85,11.16l-5.3.54a8,8,0,0,0-7.15,7.84L121.56,68a8,8,0,0,0,7,8l5.17,0.67a48,48,0,0,0,4.37,11.16l-3.22,4a7.94,7.94,0,0,0,.48,10.58l5.65,5.77a8,8,0,0,0,10.59.73l3.86-3a46.94,46.94,0,0,0,11.61,5l0.51,5a8,8,0,0,0,7.85,7.14l8.07,0.1a8,8,0,0,0,8-6.95l0.64-5a48.2,48.2,0,0,0,12-4.91l4,3.25a8,8,0,0,0,10.59-.48l5.81-5.67a8,8,0,0,0,.73-10.58l-3.41-4.4a46.63,46.63,0,0,0,4.56-11.16Zm-52.09,9.12a21,21,0,1,1,21.25-20.72A21,21,0,0,1,179.87,85.84Z" transform="translate(0 -5)"/><path class="b" d="M244.54,191.4c-4.63.74-8.42,4.55-8.42,8.46v36.33c0,3.91,3.8,7.69,8.44,8.39l32.8,5c4.64,0.7,8.44-1.92,8.44-5.83V191.91c0-3.91-3.79-6.5-8.42-5.76Z" transform="translate(0 -5)"/><polyline class="c" points="285.98 209.53 285.98 192.43 241.91 192.43 241.91 234.62 285.98 234.62 285.98 217.78"/><path class="b" d="M540.08,269a11.26,11.26,0,0,0,9.23-10.18l2-45.42a11.12,11.12,0,0,0-8.3-10.88l-33.81-7.74a7.18,7.18,0,0,0-9.09,6.9l-2.9,64.79a7.09,7.09,0,0,0,8.43,7.59Z" transform="translate(0 -5)"/><polygon class="d" points="486.05 227.04 516.38 233.31 485.62 236.57 484.74 256.33 537.47 253.84 538.84 209.54 486.92 207.58 486.05 227.04"/><path class="b" d="M432.15,66.7c-0.74-4.62-4.56-8.4-8.48-8.4H387.24c-3.92,0-7.71,3.79-8.41,8.42l-5,32.71c-0.71,4.63,1.92,8.42,5.84,8.42h52c3.92,0,6.52-3.78,5.78-8.4Z" transform="translate(0 -5)"/><path class="b" d="M375.57,36c0.83,3.48,5.11,6.32,9.51,6.32h40.84c4.4,0,8.64-2.85,9.43-6.33L441,11.33C441.75,7.85,438.8,5,434.4,5H376.14c-4.4,0-7.31,2.84-6.48,6.32Z" transform="translate(0 -5)"/><polygon class="e" points="400.15 103.03 404.95 79.64 409.47 103.03 428.79 103.03 428.79 60.74 381.12 62.84 381.12 103.03 400.15 103.03"/><path class="f" d="M525.58,279.78A20.24,20.24,0,0,1,505.3,300h-221A20.25,20.25,0,0,1,264,279.78V118a20.25,20.25,0,0,1,20.27-20.22h221A20.24,20.24,0,0,1,525.58,118V279.78Z" transform="translate(0 -5)"/><path class="g" d="M294.86,184.51h46.07a1.66,1.66,0,0,1,1.66,1.66v71a1.66,1.66,0,0,1-1.66,1.66H294.86a1.65,1.65,0,0,1-1.65-1.65v-71A1.66,1.66,0,0,1,294.86,184.51Z"/><path class="h" d="M342.58,194.39v4.11h-2.35a0.39,0.39,0,0,1-.39-0.39v-3.34a0.39,0.39,0,0,1,.39-0.39h2.35Z" transform="translate(0 -5)"/><path class="h" d="M342.58,254.8v4.11h-2.35a0.39,0.39,0,0,1-.39-0.39v-3.34a0.39,0.39,0,0,1,.39-0.39h2.35Z" transform="translate(0 -5)"/><path class="i" d="M364.43,184.31v84.54c0,2-1,2.65-2.26,1.82l-18.75-7.07V189.51l17.61-6.3C363.27,181.8,364.43,182.07,364.43,184.31Z" transform="translate(0 -5)"/><polygon class="j" points="361.05 261.34 344.92 256.2 344.92 186.97 361.05 181.77 361.05 261.34"/><path class="k" d="M364.12,183.84v85.68a0.33,0.33,0,0,1-.33.33h0a0.33,0.33,0,0,1-.33-0.33V183.84a0.33,0.33,0,0,1,.33-0.33h0A0.33,0.33,0,0,1,364.12,183.84Z" transform="translate(0 -5)"/><rect class="g" x="340.55" y="189.63" width="4.17" height="3.63" rx="0.34" ry="0.34"/><rect class="g" x="340.55" y="250.04" width="4.17" height="3.63" rx="0.34" ry="0.34"/><rect class="l" x="333.35" y="251.09" width="2.65" height="3.24" rx="0.47" ry="0.47"/><rect class="l" x="329.28" y="251.09" width="3.47" height="3.24" rx="0.58" ry="0.58"/><rect class="l" x="325.21" y="251.09" width="3.47" height="3.24" rx="0.58" ry="0.58"/><rect class="l" x="321.15" y="251.09" width="3.47" height="3.24" rx="0.58" ry="0.58"/><rect class="l" x="317.08" y="251.09" width="3.47" height="3.24" rx="0.58" ry="0.58"/><rect class="l" x="313.01" y="251.09" width="3.47" height="3.24" rx="0.58" ry="0.58"/><rect class="l" x="333.35" y="247.04" width="2.65" height="3.24" rx="0.47" ry="0.47"/><rect class="l" x="329.28" y="243.3" width="3.47" height="6.98" rx="0.62" ry="0.62"/><rect class="l" x="325.21" y="245.94" width="3.47" height="4.34" rx="0.62" ry="0.62"/><rect class="l" x="321.15" y="242.84" width="3.47" height="7.44" rx="0.62" ry="0.62"/><rect class="l" x="317.08" y="247.04" width="3.47" height="3.24" rx="0.58" ry="0.58"/><rect class="l" x="313.01" y="247.04" width="3.47" height="3.24" rx="0.58" ry="0.58"/><rect class="l" x="333.35" y="243.3" width="2.65" height="2.93" rx="0.47" ry="0.47"/><rect class="l" x="333.35" y="239.5" width="2.65" height="2.93" rx="0.47" ry="0.47"/><rect class="l" x="333.35" y="235.7" width="2.65" height="2.93" rx="0.47" ry="0.47"/><rect class="l" x="333.35" y="231.9" width="2.65" height="2.93" rx="0.47" ry="0.47"/><rect class="l" x="333.35" y="228.1" width="2.65" height="2.93" rx="0.47" ry="0.47"/><rect class="l" x="333.35" y="224.3" width="2.65" height="2.93" rx="0.47" ry="0.47"/><rect class="l" x="333.35" y="220.5" width="2.65" height="2.93" rx="0.47" ry="0.47"/><rect class="l" x="333.35" y="216.7" width="2.65" height="2.93" rx="0.47" ry="0.47"/><rect class="l" x="333.35" y="212.89" width="2.65" height="2.93" rx="0.47" ry="0.47"/><rect class="l" x="333.35" y="209.09" width="2.65" height="2.93" rx="0.47" ry="0.47"/><rect class="l" x="333.35" y="205.29" width="2.65" height="2.93" rx="0.47" ry="0.47"/><rect class="l" x="333.35" y="201.49" width="2.65" height="2.93" rx="0.47" ry="0.47"/><rect class="l" x="333.35" y="197.69" width="2.65" height="2.93" rx="0.47" ry="0.47"/><rect class="l" x="333.35" y="193.89" width="2.65" height="2.93" rx="0.47" ry="0.47"/><rect class="l" x="333.35" y="189.62" width="2.65" height="3.24" rx="0.47" ry="0.47"/><rect class="l" x="329.28" y="239.25" width="3.47" height="3.18" rx="0.57" ry="0.57"/><rect class="l" x="329.28" y="235.13" width="3.47" height="3.18" rx="0.57" ry="0.57"/><rect class="l" x="329.28" y="231" width="3.47" height="3.18" rx="0.57" ry="0.57"/><rect class="l" x="329.28" y="226.88" width="3.47" height="3.18" rx="0.57" ry="0.57"/><rect class="l" x="329.28" y="222.76" width="3.47" height="3.18" rx="0.57" ry="0.57"/><rect class="l" x="329.28" y="218.63" width="3.47" height="3.18" rx="0.57" ry="0.57"/><rect class="l" x="329.28" y="214.51" width="3.47" height="3.18" rx="0.57" ry="0.57"/><rect class="l" x="329.28" y="210.39" width="3.47" height="3.18" rx="0.57" ry="0.57"/><rect class="l" x="329.28" y="206.26" width="3.47" height="3.18" rx="0.57" ry="0.57"/><rect class="l" x="329.28" y="202.14" width="3.47" height="3.18" rx="0.57" ry="0.57"/><rect class="l" x="329.28" y="198.01" width="3.47" height="3.18" rx="0.57" ry="0.57"/><rect class="l" x="329.28" y="193.89" width="3.47" height="3.18" rx="0.57" ry="0.57"/><rect class="l" x="329.28" y="189.62" width="3.47" height="3.24" rx="0.58" ry="0.58"/><rect class="l" x="325.21" y="189.62" width="3.47" height="5.52" rx="0.62" ry="0.62"/><rect class="l" x="321.15" y="189.62" width="3.47" height="6.33" rx="0.62" ry="0.62"/><rect class="l" x="317.08" y="189.62" width="3.47" height="8.54" rx="0.62" ry="0.62"/><rect class="l" x="313.01" y="189.62" width="3.47" height="4.27" rx="0.62" ry="0.62"/><rect class="l" x="325.21" y="195.66" width="3.47" height="3.4" rx="0.61" ry="0.61"/><rect class="l" x="325.21" y="199.86" width="3.47" height="3.4" rx="0.61" ry="0.61"/><rect class="l" x="325.21" y="204.06" width="3.47" height="3.4" rx="0.61" ry="0.61"/><rect class="l" x="325.21" y="208.26" width="3.47" height="3.4" rx="0.61" ry="0.61"/><rect class="l" x="325.21" y="212.46" width="3.47" height="3.4" rx="0.61" ry="0.61"/><rect class="l" x="325.21" y="216.66" width="3.47" height="3.4" rx="0.61" ry="0.61"/><rect class="l" x="325.21" y="220.86" width="3.47" height="3.4" rx="0.61" ry="0.61"/><rect class="l" x="325.21" y="225.06" width="3.47" height="3.4" rx="0.61" ry="0.61"/><rect class="l" x="325.21" y="229.27" width="3.47" height="3.4" rx="0.61" ry="0.61"/><rect class="l" x="325.21" y="233.47" width="3.47" height="3.4" rx="0.61" ry="0.61"/><rect class="l" x="325.21" y="237.67" width="3.47" height="3.4" rx="0.61" ry="0.61"/><rect class="l" x="325.21" y="241.87" width="3.47" height="3.4" rx="0.61" ry="0.61"/><rect class="l" x="321.15" y="196.83" width="3.47" height="3.4" rx="0.61" ry="0.61"/><rect class="l" x="321.15" y="201.03" width="3.47" height="3.4" rx="0.61" ry="0.61"/><rect class="l" x="321.15" y="205.23" width="3.47" height="3.4" rx="0.61" ry="0.61"/><rect class="l" x="321.15" y="209.43" width="3.47" height="3.4" rx="0.61" ry="0.61"/><rect class="l" x="321.15" y="213.63" width="3.47" height="3.4" rx="0.61" ry="0.61"/><rect class="l" x="321.15" y="217.83" width="3.47" height="3.4" rx="0.61" ry="0.61"/><rect class="l" x="321.15" y="222.03" width="3.47" height="3.4" rx="0.61" ry="0.61"/><rect class="l" x="321.15" y="226.23" width="3.47" height="3.4" rx="0.61" ry="0.61"/><rect class="l" x="321.15" y="230.43" width="3.47" height="3.4" rx="0.61" ry="0.61"/><rect class="l" x="321.15" y="234.63" width="3.47" height="3.4" rx="0.61" ry="0.61"/><rect class="l" x="321.15" y="238.84" width="3.47" height="3.4" rx="0.61" ry="0.61"/><rect class="l" x="317.08" y="199.03" width="3.47" height="3.4" rx="0.61" ry="0.61"/><rect class="l" x="317.08" y="203.23" width="3.47" height="3.4" rx="0.61" ry="0.61"/><rect class="l" x="317.08" y="207.43" width="3.47" height="3.4" rx="0.61" ry="0.61"/><rect class="l" x="317.08" y="211.63" width="3.47" height="3.4" rx="0.61" ry="0.61"/><rect class="l" x="317.08" y="215.83" width="3.47" height="3.4" rx="0.61" ry="0.61"/><rect class="l" x="317.08" y="220.03" width="3.47" height="3.4" rx="0.61" ry="0.61"/><rect class="l" x="317.08" y="224.23" width="3.47" height="3.4" rx="0.61" ry="0.61"/><rect class="l" x="317.08" y="228.43" width="3.47" height="3.4" rx="0.61" ry="0.61"/><rect class="l" x="317.08" y="232.63" width="3.47" height="3.4" rx="0.61" ry="0.61"/><rect class="l" x="317.08" y="236.83" width="3.47" height="3.4" rx="0.61" ry="0.61"/><rect class="l" x="317.08" y="241.04" width="3.47" height="5.19" rx="0.62" ry="0.62"/><rect class="l" x="313.01" y="194.76" width="3.47" height="3.4" rx="0.61" ry="0.61"/><rect class="l" x="313.01" y="198.96" width="3.47" height="3.4" rx="0.61" ry="0.61"/><rect class="l" x="313.01" y="203.16" width="3.47" height="3.4" rx="0.61" ry="0.61"/><rect class="l" x="313.01" y="207.36" width="3.47" height="3.4" rx="0.61" ry="0.61"/><rect class="l" x="313.01" y="211.56" width="3.47" height="3.4" rx="0.61" ry="0.61"/><rect class="l" x="313.01" y="215.76" width="3.47" height="3.4" rx="0.61" ry="0.61"/><rect class="l" x="313.01" y="219.96" width="3.47" height="3.4" rx="0.61" ry="0.61"/><rect class="l" x="313.01" y="224.16" width="3.47" height="3.4" rx="0.61" ry="0.61"/><rect class="l" x="313.01" y="228.36" width="3.47" height="3.4" rx="0.61" ry="0.61"/><rect class="l" x="313.01" y="232.56" width="3.47" height="3.4" rx="0.61" ry="0.61"/><rect class="l" x="313.01" y="236.77" width="3.47" height="5.19" rx="0.62" ry="0.62"/><rect class="l" x="313.01" y="242.99" width="3.47" height="3.24" rx="0.58" ry="0.58"/><path class="m" d="M299,210.13h10.51a0.6,0.6,0,0,1,.6.6v21.83a0.61,0.61,0,0,1-.61.61H299a0.6,0.6,0,0,1-.6-0.6V210.74A0.61,0.61,0,0,1,299,210.13Z"/><rect class="m" x="295.16" y="210.13" width="2.43" height="11.11" rx="0.13" ry="0.13"/><rect class="m" x="295.16" y="222.06" width="2.43" height="11.11" rx="0.13" ry="0.13"/><path class="g" d="M441.62,184.58h46.07a1.66,1.66,0,0,1,1.66,1.66v71a1.66,1.66,0,0,1-1.66,1.66H441.62A1.65,1.65,0,0,1,440,257.2v-71a1.66,1.66,0,0,1,1.66-1.66Z"/><path class="h" d="M440,259v-4.11h2.35a0.39,0.39,0,0,1,.39.39v3.34a0.39,0.39,0,0,1-.39.39H440Z" transform="translate(0 -5)"/><path class="h" d="M440,198.57v-4.11h2.35a0.39,0.39,0,0,1,.39.39v3.34a0.39,0.39,0,0,1-.39.39H440Z" transform="translate(0 -5)"/><path class="i" d="M418.12,269.06V184.52c0-2,1-2.65,2.26-1.82l18.75,7.07v74.08l-17.61,6.3C419.28,271.57,418.12,271.3,418.12,269.06Z" transform="translate(0 -5)"/><polygon class="j" points="421.5 182.03 437.63 187.17 437.63 256.4 421.5 261.6 421.5 182.03"/><path class="k" d="M418.43,269.53V183.84a0.33,0.33,0,0,1,.33-0.33h0a0.33,0.33,0,0,1,.33.33v85.68a0.33,0.33,0,0,1-.33.33h0A0.33,0.33,0,0,1,418.43,269.53Z" transform="translate(0 -5)"/><rect class="g" x="437.83" y="250.11" width="4.17" height="3.63" rx="0.34" ry="0.34"/><rect class="g" x="437.83" y="189.7" width="4.17" height="3.63" rx="0.34" ry="0.34"/><rect class="l" x="446.55" y="189.04" width="2.65" height="3.24" rx="0.47" ry="0.47"/><rect class="l" x="449.8" y="189.04" width="3.47" height="3.24" rx="0.58" ry="0.58"/><rect class="l" x="453.87" y="189.04" width="3.47" height="3.24" rx="0.58" ry="0.58"/><rect class="l" x="457.93" y="189.04" width="3.47" height="3.24" rx="0.58" ry="0.58"/><rect class="l" x="462" y="189.04" width="3.47" height="3.24" rx="0.58" ry="0.58"/><rect class="l" x="466.07" y="189.04" width="3.47" height="3.24" rx="0.58" ry="0.58"/><rect class="l" x="446.55" y="193.09" width="2.65" height="3.24" rx="0.47" ry="0.47"/><rect class="l" x="449.8" y="193.09" width="3.47" height="6.98" rx="0.62" ry="0.62"/><rect class="l" x="453.87" y="193.09" width="3.47" height="4.34" rx="0.62" ry="0.62"/><rect class="l" x="457.93" y="193.09" width="3.47" height="7.44" rx="0.62" ry="0.62"/><rect class="l" x="462" y="193.09" width="3.47" height="3.24" rx="0.58" ry="0.58"/><rect class="l" x="466.07" y="193.09" width="3.47" height="3.24" rx="0.58" ry="0.58"/><rect class="l" x="446.55" y="197.14" width="2.65" height="2.93" rx="0.47" ry="0.47"/><rect class="l" x="446.55" y="200.94" width="2.65" height="2.93" rx="0.47" ry="0.47"/><rect class="l" x="446.55" y="204.74" width="2.65" height="2.93" rx="0.47" ry="0.47"/><rect class="l" x="446.55" y="208.54" width="2.65" height="2.93" rx="0.47" ry="0.47"/><rect class="l" x="446.55" y="212.34" width="2.65" height="2.93" rx="0.47" ry="0.47"/><rect class="l" x="446.55" y="216.14" width="2.65" height="2.93" rx="0.47" ry="0.47"/><rect class="l" x="446.55" y="219.94" width="2.65" height="2.93" rx="0.47" ry="0.47"/><rect class="l" x="446.55" y="223.74" width="2.65" height="2.93" rx="0.47" ry="0.47"/><rect class="l" x="446.55" y="227.55" width="2.65" height="2.93" rx="0.47" ry="0.47"/><rect class="l" x="446.55" y="231.35" width="2.65" height="2.93" rx="0.47" ry="0.47"/><rect class="l" x="446.55" y="235.15" width="2.65" height="2.93" rx="0.47" ry="0.47"/><rect class="l" x="446.55" y="238.95" width="2.65" height="2.93" rx="0.47" ry="0.47"/><rect class="l" x="446.55" y="242.75" width="2.65" height="2.93" rx="0.47" ry="0.47"/><rect class="l" x="446.55" y="246.55" width="2.65" height="2.93" rx="0.47" ry="0.47"/><rect class="l" x="446.55" y="250.51" width="2.65" height="3.24" rx="0.47" ry="0.47"/><rect class="l" x="449.8" y="200.94" width="3.47" height="3.18" rx="0.57" ry="0.57"/><rect class="l" x="449.8" y="205.06" width="3.47" height="3.18" rx="0.57" ry="0.57"/><rect class="l" x="449.8" y="209.19" width="3.47" height="3.18" rx="0.57" ry="0.57"/><rect class="l" x="449.8" y="213.31" width="3.47" height="3.18" rx="0.57" ry="0.57"/><rect class="l" x="449.8" y="217.44" width="3.47" height="3.18" rx="0.57" ry="0.57"/><rect class="l" x="449.8" y="221.56" width="3.47" height="3.18" rx="0.57" ry="0.57"/><rect class="l" x="449.8" y="225.68" width="3.47" height="3.18" rx="0.57" ry="0.57"/><rect class="l" x="449.8" y="229.81" width="3.47" height="3.18" rx="0.57" ry="0.57"/><rect class="l" x="449.8" y="233.93" width="3.47" height="3.18" rx="0.57" ry="0.57"/><rect class="l" x="449.8" y="238.05" width="3.47" height="3.18" rx="0.57" ry="0.57"/><rect class="l" x="449.8" y="242.18" width="3.47" height="3.18" rx="0.57" ry="0.57"/><rect class="l" x="449.8" y="246.3" width="3.47" height="3.18" rx="0.57" ry="0.57"/><rect class="l" x="449.8" y="250.51" width="3.47" height="3.24" rx="0.58" ry="0.58"/><rect class="l" x="453.87" y="248.23" width="3.47" height="5.52" rx="0.62" ry="0.62"/><rect class="l" x="457.93" y="247.42" width="3.47" height="6.33" rx="0.62" ry="0.62"/><rect class="l" x="462" y="245.21" width="3.47" height="8.54" rx="0.62" ry="0.62"/><rect class="l" x="466.07" y="249.48" width="3.47" height="4.27" rx="0.62" ry="0.62"/><rect class="l" x="453.87" y="244.31" width="3.47" height="3.4" rx="0.61" ry="0.61"/><rect class="l" x="453.87" y="240.11" width="3.47" height="3.4" rx="0.61" ry="0.61"/><rect class="l" x="453.87" y="235.91" width="3.47" height="3.4" rx="0.61" ry="0.61"/><rect class="l" x="453.87" y="231.7" width="3.47" height="3.4" rx="0.61" ry="0.61"/><rect class="l" x="453.87" y="227.5" width="3.47" height="3.4" rx="0.61" ry="0.61"/><rect class="l" x="453.87" y="223.3" width="3.47" height="3.4" rx="0.61" ry="0.61"/><rect class="l" x="453.87" y="219.1" width="3.47" height="3.4" rx="0.61" ry="0.61"/><rect class="l" x="453.87" y="214.9" width="3.47" height="3.4" rx="0.61" ry="0.61"/><rect class="l" x="453.87" y="210.7" width="3.47" height="3.4" rx="0.61" ry="0.61"/><rect class="l" x="453.87" y="206.5" width="3.47" height="3.4" rx="0.61" ry="0.61"/><rect class="l" x="453.87" y="202.3" width="3.47" height="3.4" rx="0.61" ry="0.61"/><rect class="l" x="453.87" y="198.1" width="3.47" height="3.4" rx="0.61" ry="0.61"/><rect class="l" x="457.93" y="243.14" width="3.47" height="3.4" rx="0.61" ry="0.61"/><rect class="l" x="457.93" y="238.94" width="3.47" height="3.4" rx="0.61" ry="0.61"/><rect class="l" x="457.93" y="234.74" width="3.47" height="3.4" rx="0.61" ry="0.61"/><rect class="l" x="457.93" y="230.54" width="3.47" height="3.4" rx="0.61" ry="0.61"/><rect class="l" x="457.93" y="226.33" width="3.47" height="3.4" rx="0.61" ry="0.61"/><rect class="l" x="457.93" y="222.13" width="3.47" height="3.4" rx="0.61" ry="0.61"/><rect class="l" x="457.93" y="217.93" width="3.47" height="3.4" rx="0.61" ry="0.61"/><rect class="l" x="457.93" y="213.73" width="3.47" height="3.4" rx="0.61" ry="0.61"/><rect class="l" x="457.93" y="209.53" width="3.47" height="3.4" rx="0.61" ry="0.61"/><rect class="l" x="457.93" y="205.33" width="3.47" height="3.4" rx="0.61" ry="0.61"/><rect class="l" x="457.93" y="201.13" width="3.47" height="3.4" rx="0.61" ry="0.61"/><rect class="l" x="462" y="240.94" width="3.47" height="3.4" rx="0.61" ry="0.61"/><rect class="l" x="462" y="236.74" width="3.47" height="3.4" rx="0.61" ry="0.61"/><rect class="l" x="462" y="232.54" width="3.47" height="3.4" rx="0.61" ry="0.61"/><rect class="l" x="462" y="228.34" width="3.47" height="3.4" rx="0.61" ry="0.61"/><rect class="l" x="462" y="224.14" width="3.47" height="3.4" rx="0.61" ry="0.61"/><rect class="l" x="462" y="219.93" width="3.47" height="3.4" rx="0.61" ry="0.61"/><rect class="l" x="462" y="215.73" width="3.47" height="3.4" rx="0.61" ry="0.61"/><rect class="l" x="462" y="211.53" width="3.47" height="3.4" rx="0.61" ry="0.61"/><rect class="l" x="462" y="207.33" width="3.47" height="3.4" rx="0.61" ry="0.61"/><rect class="l" x="462" y="203.13" width="3.47" height="3.4" rx="0.61" ry="0.61"/><rect class="l" x="462" y="197.14" width="3.47" height="5.19" rx="0.62" ry="0.62"/><rect class="l" x="466.07" y="245.21" width="3.47" height="3.4" rx="0.61" ry="0.61"/><rect class="l" x="466.07" y="241.01" width="3.47" height="3.4" rx="0.61" ry="0.61"/><rect class="l" x="466.07" y="236.81" width="3.47" height="3.4" rx="0.61" ry="0.61"/><rect class="l" x="466.07" y="232.61" width="3.47" height="3.4" rx="0.61" ry="0.61"/><rect class="l" x="466.07" y="228.4" width="3.47" height="3.4" rx="0.61" ry="0.61"/><rect class="l" x="466.07" y="224.2" width="3.47" height="3.4" rx="0.61" ry="0.61"/><rect class="l" x="466.07" y="220" width="3.47" height="3.4" rx="0.61" ry="0.61"/><rect class="l" x="466.07" y="215.8" width="3.47" height="3.4" rx="0.61" ry="0.61"/><rect class="l" x="466.07" y="211.6" width="3.47" height="3.4" rx="0.61" ry="0.61"/><rect class="l" x="466.07" y="207.4" width="3.47" height="3.4" rx="0.61" ry="0.61"/><rect class="l" x="466.07" y="201.41" width="3.47" height="5.19" rx="0.62" ry="0.62"/><rect class="l" x="466.07" y="197.14" width="3.47" height="3.24" rx="0.58" ry="0.58"/><path class="m" d="M473.06,210.2h10.51a0.6,0.6,0,0,1,.6.6v21.83a0.61,0.61,0,0,1-.61.61h-10.5a0.61,0.61,0,0,1-.61-0.61V210.8A0.6,0.6,0,0,1,473.06,210.2Z"/><rect class="m" x="484.95" y="222.13" width="2.43" height="11.11" rx="0.13" ry="0.13"/><rect class="m" x="484.95" y="210.2" width="2.43" height="11.11" rx="0.13" ry="0.13"/><path class="g" d="M359.33,99.82h71a1.66,1.66,0,0,1,1.66,1.66v46a1.66,1.66,0,0,1-1.66,1.66h-71a1.65,1.65,0,0,1-1.65-1.65v-46a1.66,1.66,0,0,1,1.66-1.66Z"/><path class="h" d="M427.13,154.15H423V151.8a0.39,0.39,0,0,1,.39-0.39h3.34a0.39,0.39,0,0,1,.39.39v2.35Z" transform="translate(0 -5)"/><path class="h" d="M366.68,154.15h-4.12V151.8a0.39,0.39,0,0,1,.39-0.39h3.34a0.39,0.39,0,0,1,.39.39v2.35Z" transform="translate(0 -5)"/><path class="i" d="M437.22,176H352.61c-2,0-2.65-.95-1.82-2.26L357.87,155H432l6.31,17.59C439.74,174.83,439.46,176,437.22,176Z" transform="translate(0 -5)"/><polygon class="j" points="355.12 167.6 360.27 151.49 429.56 151.49 434.76 167.6 355.12 167.6"/><path class="k" d="M437.69,175.68H351.94a0.33,0.33,0,0,1-.33-0.33h0a0.33,0.33,0,0,1,.33-0.33h85.75a0.33,0.33,0,0,1,.33.33h0A0.33,0.33,0,0,1,437.69,175.68Z" transform="translate(0 -5)"/><rect class="g" x="423.26" y="147.12" width="3.63" height="4.16" rx="0.34" ry="0.34"/><rect class="g" x="362.8" y="147.12" width="3.63" height="4.16" rx="0.34" ry="0.34"/><rect class="l" x="362.14" y="139.93" width="3.24" height="2.65" rx="0.47" ry="0.47"/><rect class="l" x="362.14" y="135.86" width="3.24" height="3.47" rx="0.58" ry="0.58"/><rect class="l" x="362.14" y="131.8" width="3.24" height="3.46" rx="0.58" ry="0.58"/><rect class="l" x="362.14" y="127.74" width="3.24" height="3.46" rx="0.58" ry="0.58"/><rect class="l" x="362.14" y="123.67" width="3.24" height="3.46" rx="0.58" ry="0.58"/><rect class="l" x="362.14" y="119.61" width="3.24" height="3.46" rx="0.58" ry="0.58"/><rect class="l" x="366.2" y="139.93" width="3.24" height="2.65" rx="0.47" ry="0.47"/><rect class="l" x="366.2" y="135.86" width="6.98" height="3.47" rx="0.62" ry="0.62"/><rect class="l" x="366.2" y="131.8" width="4.35" height="3.46" rx="0.62" ry="0.62"/><rect class="l" x="366.2" y="127.74" width="7.44" height="3.46" rx="0.62" ry="0.62"/><rect class="l" x="366.2" y="123.67" width="3.24" height="3.46" rx="0.58" ry="0.58"/><rect class="l" x="366.2" y="119.61" width="3.24" height="3.46" rx="0.58" ry="0.58"/><rect class="l" x="370.25" y="139.93" width="2.93" height="2.65" rx="0.47" ry="0.47"/><rect class="l" x="374.05" y="139.93" width="2.93" height="2.65" rx="0.47" ry="0.47"/><rect class="l" x="377.85" y="139.93" width="2.93" height="2.65" rx="0.47" ry="0.47"/><rect class="l" x="381.66" y="139.93" width="2.93" height="2.65" rx="0.47" ry="0.47"/><path class="l" d="M385.94,139.93h2a0.47,0.47,0,0,1,.47.47v1.7a0.47,0.47,0,0,1-.47.47h-2a0.48,0.48,0,0,1-.48-0.48v-1.7A0.47,0.47,0,0,1,385.94,139.93Z"/><rect class="l" x="389.27" y="139.93" width="2.93" height="2.65" rx="0.47" ry="0.47"/><rect class="l" x="393.07" y="139.93" width="2.93" height="2.65" rx="0.47" ry="0.47"/><rect class="l" x="396.87" y="139.93" width="2.93" height="2.65" rx="0.47" ry="0.47"/><rect class="l" x="400.68" y="139.93" width="2.93" height="2.65" rx="0.47" ry="0.47"/><rect class="l" x="404.48" y="139.93" width="2.93" height="2.65" rx="0.47" ry="0.47"/><rect class="l" x="408.29" y="139.93" width="2.93" height="2.65" rx="0.47" ry="0.47"/><rect class="l" x="412.09" y="139.93" width="2.93" height="2.65" rx="0.47" ry="0.47"/><rect class="l" x="415.89" y="139.93" width="2.93" height="2.65" rx="0.47" ry="0.47"/><rect class="l" x="419.7" y="139.93" width="2.93" height="2.65" rx="0.47" ry="0.47"/><rect class="l" x="423.66" y="139.93" width="3.24" height="2.65" rx="0.47" ry="0.47"/><rect class="l" x="374.05" y="135.86" width="3.18" height="3.47" rx="0.57" ry="0.57"/><rect class="l" x="378.18" y="135.86" width="3.18" height="3.47" rx="0.57" ry="0.57"/><rect class="l" x="382.31" y="135.86" width="3.18" height="3.47" rx="0.57" ry="0.57"/><rect class="l" x="386.43" y="135.86" width="3.18" height="3.47" rx="0.57" ry="0.57"/><rect class="l" x="390.56" y="135.86" width="3.18" height="3.47" rx="0.57" ry="0.57"/><rect class="l" x="394.69" y="135.86" width="3.18" height="3.47" rx="0.57" ry="0.57"/><rect class="l" x="398.81" y="135.86" width="3.18" height="3.47" rx="0.57" ry="0.57"/><rect class="l" x="402.94" y="135.86" width="3.18" height="3.47" rx="0.57" ry="0.57"/><rect class="l" x="407.07" y="135.86" width="3.18" height="3.47" rx="0.57" ry="0.57"/><rect class="l" x="411.19" y="135.86" width="3.18" height="3.47" rx="0.57" ry="0.57"/><rect class="l" x="415.32" y="135.86" width="3.18" height="3.47" rx="0.57" ry="0.57"/><rect class="l" x="419.45" y="135.86" width="3.18" height="3.47" rx="0.57" ry="0.57"/><rect class="l" x="423.66" y="135.86" width="3.24" height="3.47" rx="0.58" ry="0.58"/><rect class="l" x="421.38" y="131.8" width="5.53" height="3.46" rx="0.62" ry="0.62"/><rect class="l" x="420.57" y="127.74" width="6.34" height="3.46" rx="0.62" ry="0.62"/><rect class="l" x="418.36" y="123.67" width="8.55" height="3.46" rx="0.62" ry="0.62"/><rect class="l" x="422.63" y="119.61" width="4.27" height="3.46" rx="0.62" ry="0.62"/><rect class="l" x="417.45" y="131.8" width="3.41" height="3.46" rx="0.61" ry="0.61"/><rect class="l" x="413.25" y="131.8" width="3.41" height="3.46" rx="0.61" ry="0.61"/><rect class="l" x="409.04" y="131.8" width="3.41" height="3.46" rx="0.61" ry="0.61"/><rect class="l" x="404.84" y="131.8" width="3.41" height="3.46" rx="0.61" ry="0.61"/><rect class="l" x="400.64" y="131.8" width="3.41" height="3.46" rx="0.61" ry="0.61"/><rect class="l" x="396.43" y="131.8" width="3.41" height="3.46" rx="0.61" ry="0.61"/><rect class="l" x="392.23" y="131.8" width="3.41" height="3.46" rx="0.61" ry="0.61"/><rect class="l" x="388.02" y="131.8" width="3.41" height="3.46" rx="0.61" ry="0.61"/><rect class="l" x="383.82" y="131.8" width="3.41" height="3.46" rx="0.61" ry="0.61"/><rect class="l" x="379.61" y="131.8" width="3.41" height="3.46" rx="0.61" ry="0.61"/><rect class="l" x="375.41" y="131.8" width="3.41" height="3.46" rx="0.61" ry="0.61"/><rect class="l" x="371.21" y="131.8" width="3.41" height="3.46" rx="0.61" ry="0.61"/><rect class="l" x="416.28" y="127.74" width="3.41" height="3.46" rx="0.61" ry="0.61"/><rect class="l" x="412.08" y="127.74" width="3.41" height="3.46" rx="0.61" ry="0.61"/><rect class="l" x="407.87" y="127.74" width="3.41" height="3.46" rx="0.61" ry="0.61"/><rect class="l" x="403.67" y="127.74" width="3.41" height="3.46" rx="0.61" ry="0.61"/><rect class="l" x="399.47" y="127.74" width="3.41" height="3.46" rx="0.61" ry="0.61"/><rect class="l" x="395.26" y="127.74" width="3.41" height="3.46" rx="0.61" ry="0.61"/><rect class="l" x="391.06" y="127.74" width="3.41" height="3.46" rx="0.61" ry="0.61"/><rect class="l" x="386.85" y="127.74" width="3.41" height="3.46" rx="0.61" ry="0.61"/><rect class="l" x="382.65" y="127.74" width="3.41" height="3.46" rx="0.61" ry="0.61"/><rect class="l" x="378.44" y="127.74" width="3.41" height="3.46" rx="0.61" ry="0.61"/><rect class="l" x="374.24" y="127.74" width="3.41" height="3.46" rx="0.61" ry="0.61"/><rect class="l" x="414.08" y="123.67" width="3.41" height="3.46" rx="0.61" ry="0.61"/><rect class="l" x="409.88" y="123.67" width="3.41" height="3.46" rx="0.61" ry="0.61"/><rect class="l" x="405.67" y="123.67" width="3.41" height="3.46" rx="0.61" ry="0.61"/><rect class="l" x="401.47" y="123.67" width="3.41" height="3.46" rx="0.61" ry="0.61"/><rect class="l" x="397.27" y="123.67" width="3.41" height="3.46" rx="0.61" ry="0.61"/><rect class="l" x="393.06" y="123.67" width="3.41" height="3.46" rx="0.61" ry="0.61"/><rect class="l" x="388.86" y="123.67" width="3.41" height="3.46" rx="0.61" ry="0.61"/><rect class="l" x="384.65" y="123.67" width="3.41" height="3.46" rx="0.61" ry="0.61"/><rect class="l" x="380.45" y="123.67" width="3.41" height="3.46" rx="0.61" ry="0.61"/><rect class="l" x="376.24" y="123.67" width="3.41" height="3.46" rx="0.61" ry="0.61"/><rect class="l" x="370.25" y="123.67" width="5.2" height="3.46" rx="0.62" ry="0.62"/><rect class="l" x="418.36" y="119.61" width="3.41" height="3.46" rx="0.61" ry="0.61"/><rect class="l" x="414.15" y="119.61" width="3.41" height="3.46" rx="0.61" ry="0.61"/><rect class="l" x="409.95" y="119.61" width="3.41" height="3.46" rx="0.61" ry="0.61"/><rect class="l" x="405.74" y="119.61" width="3.41" height="3.46" rx="0.61" ry="0.61"/><rect class="l" x="401.54" y="119.61" width="3.41" height="3.46" rx="0.61" ry="0.61"/><rect class="l" x="397.33" y="119.61" width="3.41" height="3.46" rx="0.61" ry="0.61"/><rect class="l" x="393.13" y="119.61" width="3.41" height="3.46" rx="0.61" ry="0.61"/><rect class="l" x="388.93" y="119.61" width="3.41" height="3.46" rx="0.61" ry="0.61"/><rect class="l" x="384.72" y="119.61" width="3.41" height="3.46" rx="0.61" ry="0.61"/><rect class="l" x="380.52" y="119.61" width="3.41" height="3.46" rx="0.61" ry="0.61"/><rect class="l" x="374.52" y="119.61" width="5.2" height="3.46" rx="0.62" ry="0.62"/><rect class="l" x="370.25" y="119.61" width="3.24" height="3.46" rx="0.58" ry="0.58"/><path class="m" d="M383.92,105h21.85a0.6,0.6,0,0,1,.6.6v10.5a0.61,0.61,0,0,1-.61.61H383.92a0.61,0.61,0,0,1-.61-0.61v-10.5A0.6,0.6,0,0,1,383.92,105Z"/><rect class="m" x="395.26" y="101.77" width="11.12" height="2.43" rx="0.13" ry="0.13"/><rect class="m" x="383.32" y="101.77" width="11.12" height="2.43" rx="0.13" ry="0.13"/><polygon class="n" points="439.8 112.3 450.51 116.69 448.81 120.82 438.1 116.43 439.8 112.3"/><rect class="n" x="341.01" y="110.8" width="11.57" height="4.47" transform="translate(-10.81 36.17) rotate(-6.69)"/><path class="o" d="M344.41,115.56s-2.4,11.12-2.91,15.52,1.17,4.2,3.31,7.52,3.69,6.67,5.41,6.87l0.16-.58s0.69,1.82,2.07,1.87,0.77-1.55.46-2.5c0.83,2,1.79,2.51,2.81,2.12s0.89-2.14.37-3.72a2.57,2.57,0,0,0,2.92,1.85c0.89-.2,1.73-1.62.25-4.08s-4-9.92-4-9.92,4.11,6.89,4.34,7.43,2.87,0,1.21-3.31-2.17-7.67-3.33-11.06-3.63-8.13-5.7-8.88Z" transform="translate(0 -5)"/><path class="o" d="M447.09,124.89s-0.69,11.36-1.39,15.73-2.26,3.73-5.22,6.36-5.36,5.44-7.07,5.16v-0.6s-1.16,1.57-2.5,1.24-0.32-1.7.23-2.53c-1.34,1.7-2.4,1.93-3.28,1.29s-0.28-2.3.65-3.68a2.57,2.57,0,0,1-3.31,1c-0.8-.43-1.23-2,0.86-4s6.56-8.48,6.56-8.48-5.82,5.53-6.19,6-2.77-.76-0.28-3.51,4.16-6.81,6.19-9.75,5.69-6.86,7.88-7Z" transform="translate(0 -5)"/><path class="p" d="M461.73,75.46c-3.45-14.5-8.47-27.19-13.86-31.88s-23.34-7.92-33-8.91a3.67,3.67,0,0,0-.47,0H414.3l-0.31,0-0.16,0-0.27.07-0.15.05-0.25.11L413,35l-0.25.15-0.12.08-0.26.21-0.08.07a4.71,4.71,0,0,0-.63.74h0c-0.09.13-.19,0.28-0.27,0.43l0,0.08-0.22.4,0,0.1-0.19.43,0,0.11q-0.1.24-.18,0.49l0,0.08q-0.1.29-.19,0.59h0c-1.29,4.35-1.25,11.26-.83,17.41a68.11,68.11,0,0,0-10,0l-0.78.07a56.78,56.78,0,0,0,2.62-11.33c0.39-4.05,2.8-8.81.1-9.27-9.52-1.63-25.05-1.41-34,2.22s-18,13.22-25.26,26.26-2.44,47.73-2.44,47.73,1.28,0,3.45-.21h0.06c2.31-.17,5.61-0.46,9.48-0.95-3.17-21.55,5.92-48.48,16.27-48.46a26.26,26.26,0,0,1,8.6,1.74l4.81,8.4c1,1.66,4.15,3,7.1,3h30.86c3,0,5.88-1.41,6.52-3.12l2.49-6.77a24.05,24.05,0,0,1,6.91.73c10,2.76,11.46,31.14,2.59,51,3.59,1.51,6.69,2.68,8.87,3.46h0l0.09,0c2,0.73,3.24,1.12,3.24,1.12S465.17,90,461.73,75.46Z" transform="translate(0 -5)"/><ellipse class="q" cx="405.24" cy="45.29" rx="23.34" ry="25.32"/><path class="r" d="M416.47,47.77C416.47,61.09,407,72,394.94,73a21.75,21.75,0,0,0,10.31,2.6c12.89,0,23.34-11.33,23.34-25.32S418.14,25,405.24,25c-0.61,0-1.21,0-1.81.08C411.15,29.18,416.47,37.8,416.47,47.77Z" transform="translate(0 -5)"/><path class="b" d="M559.57,202.69a12.24,12.24,0,0,0-8.22,10.44L549.25,260a10.64,10.64,0,0,0,7.55,10.26l26.94,7.15a7.78,7.78,0,0,0,9.66-5.88l5.5-25a60.77,60.77,0,0,0,.91-16.09l-3.15-30.19a6.59,6.59,0,0,0-8.7-5.83Z" transform="translate(0 -5)"/><path class="b" d="M582.86,195.9a7.11,7.11,0,0,1,1.53,3.8l3.15,30.19a60.84,60.84,0,0,1-.91,16.09l-5.5,25a7.77,7.77,0,0,1-3.32,4.85l5.92,1.57a7.78,7.78,0,0,0,9.66-5.88l5.5-25a60.77,60.77,0,0,0,.91-16.09l-3.15-30.19a6.59,6.59,0,0,0-8.7-5.83Z" transform="translate(0 -5)"/><polygon class="n" points="497.96 269.64 494.23 280.85 489.88 279.41 493.61 268.2 497.96 269.64"/><path class="o" d="M499.84,174.75s-11.52-1.81-16.06-2.09-4.24,1.43-7.52,3.8-6.62,4.14-6.73,5.9l0.6,0.13s-1.82.81-1.8,2.21,1.64,0.7,2.59.33c-2,1-2.47,2-2,3s2.25,0.78,3.83.17a2.62,2.62,0,0,0-1.73,3.08c0.25,0.89,1.76,1.67,4.19,0s9.94-4.66,9.94-4.66-6.82,4.58-7.36,4.84,0.15,2.93,3.46,1.05,7.73-2.64,11.13-4,8.12-4.16,8.77-6.3Z" transform="translate(0 -5)"/><polygon class="n" points="503.62 179.78 501.43 168.18 496.93 169.02 499.12 180.62 503.62 179.78"/><path class="o" d="M490.71,282.6s-11.67.1-16.19-.3-4-2-6.87-4.86-5.94-5.07-5.78-6.83l0.61,0s-1.68-1.06-1.45-2.45,1.72-.45,2.61.06c-1.84-1.24-2.15-2.31-1.55-3.25s2.34-.45,3.82.4a2.62,2.62,0,0,1-1.26-3.3c0.38-.84,2-1.4,4.15.6s9.13,6.08,9.13,6.08-6.07-5.53-6.56-5.88,0.58-2.87,3.58-.53,7.26,3.75,10.42,5.61,7.42,5.31,7.74,7.53Z" transform="translate(0 -5)"/><path class="s" d="M576.44,230.07h0.08l0.53-.08,0.11,0,0.47-.1,0.12,0,0.44-.13,0.1,0,0.47-.18h0a4.84,4.84,0,0,0,.87-0.48l0.09-.07,0.26-.21,0.11-.1,0.2-.21,0.1-.12,0.16-.23,0.08-.14c0-.08.09-0.17,0.13-0.26l0.06-.15c0-.1.07-0.2,0.1-0.3l0-.14a3.73,3.73,0,0,0,.08-0.47c1-9.8,1.51-25.3-3.25-34.49s-14.19-14.25-28-20.7-49,.88-49,0.88,0,0.19.06,0.53h0v0.26c0.07,0.61.2,1.55,0.37,2.76h0c0.34,2.34.87,5.68,1.64,9.58,21.82-4.74,50,2.6,50.73,13.14a26.27,26.27,0,0,1-1.09,8.58l-16.08,6.63c-2.19,1.13-3.82,4.5-3.61,7.51l-0.06,31.25c0.21,3,2.32,5.85,4.7,6.34L550,260.67a24.22,24.22,0,0,1-.27,6.94c-2.12,10.35-31.05,13.85-52,6.23-1.29,3.76-2.26,7-2.91,9.27h0c-0.26.92-.47,1.66-0.62,2.24l0,0.11-0.09.33,0,0.18,0,0.16-0.05.21v0l0,0.16v0.06s33.85,12,48.44,7.43,21.77-6.61,30.82-16.3c7.28-7.81,7.28-24.36,7.61-34.2a3.72,3.72,0,0,0,0-.48c0-.05,0-0.1,0-0.15s0-.21-0.05-0.3l0-.16c0-.09-0.05-0.18-0.09-0.26l-0.07-.16-0.12-.24-0.08-.14-0.17-.24-0.09-.12-0.23-.25-0.08-.08a4.83,4.83,0,0,0-.79-0.59h0l-0.44-.24-0.09,0-0.42-.19-0.12,0-0.44-.16-0.12,0-0.5-.15-0.09,0-0.61-.15h0c-4.56-1-11.65-.47-17.93.39a52.18,52.18,0,0,0-.68-10.23l0.53-2.13C564.35,229.1,571.77,230.68,576.44,230.07Z" transform="translate(0 -5)"/><path class="t" d="M562.44,211c-14.31,1-25.17,12.42-24.26,25.54s13.24,23,27.55,22S590.9,246.09,590,233,576.75,210,562.44,211Z" transform="translate(0 -5)"/><path class="u" d="M567.45,246c-13.63.94-25.46-7.94-27.33-20.13a22.09,22.09,0,0,0-1.93,10.67c0.91,13.12,13.24,23,27.55,22S590.9,246.09,590,233c0-.62-0.12-1.23-0.21-1.84C586.1,239.28,577.66,245.3,567.45,246Z" transform="translate(0 -5)"/><path class="b" d="M230.69,244.29c3-.74,5.42-4.55,5.42-8.46V199.5c0-3.91-2.45-7.69-5.43-8.39l-21.12-5c-3-.7-5.43,1.92-5.43,5.83v51.82c0,3.91,2.44,6.5,5.42,5.76Z" transform="translate(0 -5)"/><polygon class="n" points="295.28 178.77 299.68 168.1 303.82 169.79 299.42 180.47 295.28 178.77"/><polygon class="n" points="289.26 264.75 291.4 276.09 295.81 275.26 293.67 263.92 289.26 264.75"/><path class="o" d="M295.23,277.2S306.52,278.83,311,279s4.12-1.45,7.3-3.81,6.42-4.13,6.5-5.86l-0.59-.12s1.77-.81,1.73-2.18-1.61-.66-2.53-0.29c1.95-1,2.39-2,1.93-2.94s-2.21-.74-3.75-0.11a2.56,2.56,0,0,0,1.65-3c-0.26-.87-1.74-1.61-4.1,0s-9.65,4.69-9.65,4.69,6.61-4.57,7.13-4.83-0.19-2.86-3.39-1-7.52,2.68-10.83,4.07-7.89,4.17-8.49,6.28Z" transform="translate(0 -5)"/><path class="o" d="M302.89,176.5s11.39,0.69,15.77,1.38,3.74,2.26,6.38,5.21,5.45,5.34,5.17,7h-0.6s1.57,1.15,1.25,2.49-1.71.32-2.54-.23c1.71,1.34,1.94,2.39,1.29,3.27s-2.31.28-3.7-.64a2.56,2.56,0,0,1,1,3.3c-0.43.8-2,1.23-4-.86s-8.5-6.54-8.5-6.54,5.54,5.8,6,6.17-0.76,2.76-3.52.28-6.82-4.15-9.78-6.17-6.88-5.68-7-7.86Z" transform="translate(0 -5)"/><path class="v" d="M299,175.49c0.69-1.93,1.06-3.07,1.06-3.07s-32.22-13.94-46.75-10.5-27.12,7.33-32,13.82-7.95,23.28-8.93,32.86a3.65,3.65,0,0,0,0,.47c0,0.05,0,.1,0,0.15s0,0.2,0,.29,0,0.11,0,.16,0,0.17.07,0.26l0.06,0.16,0.1,0.24,0.08,0.15,0.15,0.24,0.09,0.13,0.2,0.25,0.08,0.09a4.72,4.72,0,0,0,.73.63l0,0,0.41,0.26,0.09,0.05,0.39,0.21,0.11,0.05,0.42,0.19,0.12,0,0.47,0.18,0.09,0,0.57,0.18h0c4.19,1.24,10.73,1.24,16.71.87V214a59.33,59.33,0,0,0-.07,9.42l0.08,0.87a10.24,10.24,0,0,0-1.39,2.76c-5.15-1.25-10.41-2.1-14-1.64H218l-0.51.08-0.12,0-0.45.1-0.12,0-0.42.12-0.11,0-0.43.17,0,0a4.73,4.73,0,0,0-.84.47l-0.1.08-0.25.2-0.11.11-0.19.2-0.1.13-0.15.21-0.09.14c0,0.08-.08.16-0.12,0.24l-0.07.15c0,0.09-.06.19-0.09,0.29l0,0.14a3.64,3.64,0,0,0-.08.46c-1,9.58-1.41,26.85,2.08,34s15,13.68,28.5,20S292,282,292,282s-0.11-1-.34-2.7h0l-0.09-.64,0-.13h0c-0.33-2.29-.85-5.55-1.6-9.36-21.34,4.64-48.91-2.55-49.6-12.86-0.34-5,1.58-10.81,3.65-15.48l1.83-1a10.27,10.27,0,0,0,4.71-15.09v-12a10.27,10.27,0,0,0-6.86-15.71,27.35,27.35,0,0,1,.55-9.78c2.77-10,31.23-11.42,51.18-2.58,1.51-3.58,2.68-6.67,3.47-8.85h0Z" transform="translate(0 -5)"/><ellipse class="w" cx="228.08" cy="213.23" rx="25.39" ry="23.28"/><path class="x" d="M225.56,207c13.36,0,24.3,9.46,25.3,21.47a21.59,21.59,0,0,0,2.61-10.28c0-12.86-11.37-23.28-25.39-23.28s-25.39,10.42-25.39,23.28c0,0.61,0,1.21.08,1.81C206.92,212.34,215.56,207,225.56,207Z" transform="translate(0 -5)"/><ellipse class="w" cx="202.69" cy="213.23" rx="12.69" ry="12.66"/><path class="x" d="M202.69,209.77a12.68,12.68,0,0,1,12.51,10.56,12.69,12.69,0,1,0-25,0A12.68,12.68,0,0,1,202.69,209.77Z" transform="translate(0 -5)"/></svg>