<svg xmlns="http://www.w3.org/2000/svg" viewBox="0 0 567.67 272.69">
  <defs>
    <style>
      .a {
        fill: #eb3a58;
      }

      .b {
        fill: #ff4d6a;
      }

      .c {
        fill: #83bfb3;
      }

      .d {
        fill: #bad9c1;
      }

      .e {
        fill: #6bb3a4;
      }

      .f {
        fill: #ffcc80;
      }

      .g {
        fill: #e6b873;
      }

      .h {
        fill: #e9af58;
      }

      .i {
        fill: #cc994d;
      }

      .j {
        fill: #1d1d1b;
      }

      .k {
        fill: #3e7a9c;
      }

      .l {
        fill: #4d4d4d;
      }

      .m {
        fill: gray;
      }

      .n {
        fill: #fff;
      }

      .o {
        fill: #d5d5d5;
      }

      .p {
        fill: #f5fec4;
      }

      .q {
        font-size: 6px;
        font-family: Courier;
      }

      .r {
        fill: #009980;
      }

      .s, .t {
        fill: #ff9f16;
      }

      .t {
        white-space: pre;
      }
    </style>
  </defs>
  <title>downloads</title>
  <g>
    <g>
      <g>
        <path class="a" d="M62.8,13a25.72,25.72,0,0,0,3.39,13,25.71,25.71,0,0,0,3.39-13A25.7,25.7,0,0,0,66.19,0,25.71,25.71,0,0,0,62.8,13Z" transform="translate(-12.33)"/>
        <path class="a" d="M74.21,18.33a21.26,21.26,0,0,0-8,7.72A21.24,21.24,0,0,0,77,23.22a21.24,21.24,0,0,0,8-7.72A21.26,21.26,0,0,0,74.21,18.33Z" transform="translate(-12.33)"/>
        <path class="a" d="M58.1,18.33a21.25,21.25,0,0,1,8,7.72,21.24,21.24,0,0,1-10.76-2.83,21.24,21.24,0,0,1-8-7.72A21.26,21.26,0,0,1,58.1,18.33Z" transform="translate(-12.33)"/>
        <path class="b" d="M68.83,12.85a25.71,25.71,0,0,0-2.63,13.2,25.69,25.69,0,0,0,8.74-10.24,25.71,25.71,0,0,0,2.63-13.2A25.71,25.71,0,0,0,68.83,12.85Z" transform="translate(-12.33)"/>
        <path class="b" d="M63.49,12.85a25.73,25.73,0,0,1,2.63,13.2,25.69,25.69,0,0,1-8.74-10.24,25.68,25.68,0,0,1-2.63-13.2A25.73,25.73,0,0,1,63.49,12.85Z" transform="translate(-12.33)"/>
      </g>
      <g>
        <path class="a" d="M20.78,36.05a21.94,21.94,0,0,0,2.89,11.11,21.93,21.93,0,0,0,2.89-11.11V35.93c0-3.75-5.77-3.75-5.79,0v0.13Z" transform="translate(-12.33)"/>
        <path class="b" d="M25.92,35.9a21.93,21.93,0,0,0-2.24,11.26,21.92,21.92,0,0,0,7.45-8.74l0.06-.13c1.61-3.38-3.55-5.88-5.21-2.52Z" transform="translate(-12.33)"/>
        <path class="b" d="M21.37,35.9a22,22,0,0,1,2.24,11.26,21.91,21.91,0,0,1-7.45-8.74l-0.07-.14c-1.61-3.38,3.55-5.88,5.21-2.53Z" transform="translate(-12.33)"/>
      </g>
      <g>
        <g>
          <path class="c" d="M66.16,23A24.78,24.78,0,0,0,41.38,47.82V128.7a8.93,8.93,0,0,1-4.93-7.89h0s0,0,0-.06,0,0,0,0,0-.09,0-0.13V54.14a12.06,12.06,0,1,0-24.12,0v66.52c0,0.05,0,.1,0,0.15h0a29.07,29.07,0,0,0,29,29.07v34.62a24.78,24.78,0,0,0,49.57,0V47.82A24.79,24.79,0,0,0,66.16,23Z" transform="translate(-12.33)"/>
          <path class="d" d="M41.38,47.82V128.7a8.93,8.93,0,0,1-4.93-7.89h0s0,0,0-.06,0,0,0,0,0-.09,0-0.13V54.14a12.06,12.06,0,1,0-24.12,0v66.52c0,0.05,0,.1,0,0.15h0a29.07,29.07,0,0,0,29,29.07v34.62a24.78,24.78,0,0,0,24.78,24.78V23A24.78,24.78,0,0,0,41.38,47.82Z" transform="translate(-12.33)"/>
        </g>
        <g>
          <g>
            <g>
              <path class="e" d="M87.65,48.76a1.23,1.23,0,0,1-.87-2.09l6-6a1.23,1.23,0,0,1,1.73,1.73l-6.05,6A1.22,1.22,0,0,1,87.65,48.76Z" transform="translate(-12.33)"/>
              <path class="e" d="M87.65,69.59a1.23,1.23,0,0,1-.87-2.09l6-6a1.23,1.23,0,0,1,1.73,1.73l-6.05,6A1.22,1.22,0,0,1,87.65,69.59Z" transform="translate(-12.33)"/>
              <path class="e" d="M87.65,90.42a1.23,1.23,0,0,1-.87-2.09l6-6A1.23,1.23,0,0,1,94.56,84l-6.05,6A1.22,1.22,0,0,1,87.65,90.42Z" transform="translate(-12.33)"/>
              <path class="e" d="M87.65,111.25a1.23,1.23,0,0,1-.87-2.09l6-6a1.23,1.23,0,0,1,1.73,1.73l-6.05,6A1.22,1.22,0,0,1,87.65,111.25Z" transform="translate(-12.33)"/>
              <path class="e" d="M87.65,132.08a1.22,1.22,0,0,1-.87-2.09l6-6.05a1.23,1.23,0,0,1,1.73,1.73l-6.05,6A1.22,1.22,0,0,1,87.65,132.08Z" transform="translate(-12.33)"/>
              <path class="e" d="M87.65,152.91a1.23,1.23,0,0,1-.87-2.09l6-6a1.22,1.22,0,0,1,1.73,1.73l-6.05,6.05A1.22,1.22,0,0,1,87.65,152.91Z" transform="translate(-12.33)"/>
              <path class="e" d="M87.65,171.29a1.23,1.23,0,0,1-.87-2.09l6-6a1.23,1.23,0,0,1,1.73,1.73l-6.05,6A1.22,1.22,0,0,1,87.65,171.29Z" transform="translate(-12.33)"/>
            </g>
            <g>
              <path class="e" d="M45.29,48.76a1.22,1.22,0,0,1-.87-0.36l-6-6a1.23,1.23,0,1,1,1.73-1.73l6,6A1.23,1.23,0,0,1,45.29,48.76Z" transform="translate(-12.33)"/>
              <path class="e" d="M45.29,69.59a1.22,1.22,0,0,1-.87-0.36l-6-6a1.23,1.23,0,0,1,1.73-1.73l6,6A1.23,1.23,0,0,1,45.29,69.59Z" transform="translate(-12.33)"/>
              <path class="e" d="M45.29,90.42a1.23,1.23,0,0,1-.87-0.36l-6-6a1.23,1.23,0,0,1,1.73-1.73l6,6A1.23,1.23,0,0,1,45.29,90.42Z" transform="translate(-12.33)"/>
              <path class="e" d="M45.29,111.25a1.22,1.22,0,0,1-.87-0.36l-6-6a1.23,1.23,0,1,1,1.73-1.73l6,6A1.23,1.23,0,0,1,45.29,111.25Z" transform="translate(-12.33)"/>
              <path class="e" d="M45.29,132.08a1.22,1.22,0,0,1-.87-0.36l-6-6a1.23,1.23,0,0,1,1.73-1.73l6,6.05A1.22,1.22,0,0,1,45.29,132.08Z" transform="translate(-12.33)"/>
              <path class="e" d="M45.29,152.91a1.22,1.22,0,0,1-.87-0.36l-6-6.05a1.22,1.22,0,0,1,1.73-1.73l6,6A1.23,1.23,0,0,1,45.29,152.91Z" transform="translate(-12.33)"/>
              <path class="e" d="M45.29,171.29a1.22,1.22,0,0,1-.87-0.36l-6-6a1.23,1.23,0,0,1,1.73-1.73l6,6A1.23,1.23,0,0,1,45.29,171.29Z" transform="translate(-12.33)"/>
            </g>
            <g>
              <g>
                <path class="e" d="M58.91,65.94A1.22,1.22,0,0,1,58,65.58l-6-6a1.22,1.22,0,1,1,1.73-1.73l6.05,6A1.23,1.23,0,0,1,58.91,65.94Z" transform="translate(-12.33)"/>
                <path class="e" d="M58.91,86.76A1.22,1.22,0,0,1,58,86.41l-6-6a1.22,1.22,0,1,1,1.73-1.73l6.05,6A1.23,1.23,0,0,1,58.91,86.76Z" transform="translate(-12.33)"/>
                <path class="e" d="M58.91,107.59a1.22,1.22,0,0,1-.87-0.36l-6-6a1.22,1.22,0,0,1,1.73-1.73l6.05,6A1.23,1.23,0,0,1,58.91,107.59Z" transform="translate(-12.33)"/>
                <path class="e" d="M58.91,128.42a1.22,1.22,0,0,1-.87-0.36l-6-6a1.22,1.22,0,0,1,1.73-1.73l6.05,6.05A1.22,1.22,0,0,1,58.91,128.42Z" transform="translate(-12.33)"/>
                <path class="e" d="M58.91,149.25a1.22,1.22,0,0,1-.87-0.36l-6-6a1.22,1.22,0,1,1,1.73-1.73l6.05,6A1.23,1.23,0,0,1,58.91,149.25Z" transform="translate(-12.33)"/>
                <path class="e" d="M58.91,170.08a1.22,1.22,0,0,1-.87-0.36l-6-6a1.22,1.22,0,1,1,1.73-1.73l6.05,6A1.23,1.23,0,0,1,58.91,170.08Z" transform="translate(-12.33)"/>
                <path class="e" d="M58.91,188.46A1.22,1.22,0,0,1,58,188.1l-6-6a1.23,1.23,0,1,1,1.73-1.73l6.05,6.05A1.23,1.23,0,0,1,58.91,188.46Z" transform="translate(-12.33)"/>
              </g>
              <g>
                <path class="e" d="M61.94,28a1.22,1.22,0,0,1-.87-0.36l-6-6a1.22,1.22,0,1,1,1.73-1.73l6.05,6A1.23,1.23,0,0,1,61.94,28Z" transform="translate(-12.33)"/>
                <path class="e" d="M61.94,46.39A1.22,1.22,0,0,1,61.07,46l-6-6a1.22,1.22,0,1,1,1.73-1.73l6.05,6A1.23,1.23,0,0,1,61.94,46.39Z" transform="translate(-12.33)"/>
              </g>
            </g>
            <g>
              <g>
                <path class="e" d="M75.25,65.94a1.23,1.23,0,0,1-.87-2.09l6-6a1.22,1.22,0,0,1,1.73,1.73l-6,6A1.22,1.22,0,0,1,75.25,65.94Z" transform="translate(-12.33)"/>
                <path class="e" d="M75.25,86.76a1.23,1.23,0,0,1-.87-2.09l6-6a1.22,1.22,0,0,1,1.73,1.73l-6,6A1.22,1.22,0,0,1,75.25,86.76Z" transform="translate(-12.33)"/>
                <path class="e" d="M75.25,107.59a1.23,1.23,0,0,1-.87-2.09l6-6a1.22,1.22,0,0,1,1.73,1.73l-6,6A1.22,1.22,0,0,1,75.25,107.59Z" transform="translate(-12.33)"/>
                <path class="e" d="M75.25,128.42a1.22,1.22,0,0,1-.87-2.09l6-6.05A1.22,1.22,0,0,1,82.16,122l-6,6A1.22,1.22,0,0,1,75.25,128.42Z" transform="translate(-12.33)"/>
                <path class="e" d="M75.25,149.25a1.23,1.23,0,0,1-.87-2.09l6-6a1.22,1.22,0,0,1,1.73,1.73l-6,6A1.22,1.22,0,0,1,75.25,149.25Z" transform="translate(-12.33)"/>
                <path class="e" d="M75.25,170.08a1.23,1.23,0,0,1-.87-2.09l6-6a1.22,1.22,0,0,1,1.73,1.73l-6,6A1.22,1.22,0,0,1,75.25,170.08Z" transform="translate(-12.33)"/>
                <path class="e" d="M75.25,188.46a1.23,1.23,0,0,1-.87-2.09l6-6.05A1.23,1.23,0,1,1,82.16,182l-6,6A1.22,1.22,0,0,1,75.25,188.46Z" transform="translate(-12.33)"/>
              </g>
              <g>
                <path class="e" d="M72.22,28a1.23,1.23,0,0,1-.87-2.09l6-6a1.22,1.22,0,1,1,1.73,1.73l-6,6A1.22,1.22,0,0,1,72.22,28Z" transform="translate(-12.33)"/>
                <path class="e" d="M72.22,46.39a1.23,1.23,0,0,1-.87-2.09l6-6A1.22,1.22,0,0,1,79.14,40l-6,6A1.22,1.22,0,0,1,72.22,46.39Z" transform="translate(-12.33)"/>
              </g>
            </g>
          </g>
          <g>
            <g>
              <path class="e" d="M27.43,59.22a1.23,1.23,0,0,1-.87-2.09l6.05-6a1.23,1.23,0,1,1,1.73,1.73l-6,6A1.22,1.22,0,0,1,27.43,59.22Z" transform="translate(-12.33)"/>
              <path class="e" d="M27.43,80A1.23,1.23,0,0,1,26.57,78l6.05-6a1.22,1.22,0,1,1,1.73,1.73l-6,6A1.22,1.22,0,0,1,27.43,80Z" transform="translate(-12.33)"/>
              <path class="e" d="M27.43,100.88a1.23,1.23,0,0,1-.87-2.09l6.05-6a1.22,1.22,0,1,1,1.73,1.73l-6,6A1.22,1.22,0,0,1,27.43,100.88Z" transform="translate(-12.33)"/>
              <path class="e" d="M27.43,121.71a1.23,1.23,0,0,1-.87-2.09l6.05-6a1.22,1.22,0,1,1,1.73,1.73l-6,6A1.22,1.22,0,0,1,27.43,121.71Z" transform="translate(-12.33)"/>
              <path class="e" d="M27.43,140.08a1.22,1.22,0,0,1-.87-2.09l6.05-6a1.22,1.22,0,1,1,1.73,1.73l-6,6A1.22,1.22,0,0,1,27.43,140.08Z" transform="translate(-12.33)"/>
            </g>
            <g>
              <path class="e" d="M21.4,50.58a1.22,1.22,0,0,1-.87-0.36l-6-6.05a1.22,1.22,0,1,1,1.73-1.73l6,6A1.23,1.23,0,0,1,21.4,50.58Z" transform="translate(-12.33)"/>
              <path class="e" d="M21.4,71.41a1.22,1.22,0,0,1-.87-0.36l-6-6a1.23,1.23,0,0,1,1.73-1.73l6,6A1.23,1.23,0,0,1,21.4,71.41Z" transform="translate(-12.33)"/>
              <path class="e" d="M21.4,92.24a1.22,1.22,0,0,1-.87-0.36l-6-6a1.22,1.22,0,1,1,1.73-1.73l6,6A1.22,1.22,0,0,1,21.4,92.24Z" transform="translate(-12.33)"/>
              <path class="e" d="M21.4,113.07a1.23,1.23,0,0,1-.87-0.36l-6-6.05a1.22,1.22,0,1,1,1.73-1.73l6,6A1.23,1.23,0,0,1,21.4,113.07Z" transform="translate(-12.33)"/>
              <path class="e" d="M21.4,133.9a1.22,1.22,0,0,1-.87-0.36l-6-6a1.23,1.23,0,1,1,1.73-1.73l6,6A1.23,1.23,0,0,1,21.4,133.9Z" transform="translate(-12.33)"/>
            </g>
          </g>
        </g>
      </g>
    </g>
    <g>
      <rect class="f" x="10.85" y="179.96" width="85.96" height="20.7" rx="2.14" ry="2.14"/>
      <path class="g" d="M107,180H66.16v20.7H107a2.14,2.14,0,0,0,2.14-2.14V182.1A2.14,2.14,0,0,0,107,180Z" transform="translate(-12.33)"/>
      <path class="h" d="M103.58,200.65H28.74a2.12,2.12,0,0,0,0,.4l11,64.83A2.14,2.14,0,0,0,41.8,268H90.51a2.14,2.14,0,0,0,2.14-2.14l11-64.83A2,2,0,0,0,103.58,200.65Z" transform="translate(-12.33)"/>
      <path class="i" d="M103.58,200.65H66.16V268H90.51a2.14,2.14,0,0,0,2.14-2.14l11-64.83A2,2,0,0,0,103.58,200.65Z" transform="translate(-12.33)"/>
    </g>
  </g>
  <path class="j" d="M516.32,247.16c0,6.34-3.83,11.48-8.55,11.48H152.23c-4.72,0-8.55-5.14-8.55-11.48V19.06c0-6.34,3.83-11.48,8.55-11.48H507.77c4.72,0,8.55,5.14,8.55,11.48v228.1Z" transform="translate(-12.33)"/>
  <rect class="k" x="146.21" y="21.36" width="343.94" height="212.03"/>
  <path class="l" d="M80.21,262.11s-3.1,5.78,18.93,10.59H560.29s15.43-1,19.49-8.26l0-4Z" transform="translate(-12.33)"/>
  <path class="m" d="M80.32,250.45H580v12.83s0.75,1.71-5.13,1.28H85s-4.6,1.28-5-1.71Z" transform="translate(-12.33)"/>
  <path class="l" d="M556.76,257.94a0.83,0.83,0,0,1-.74.9H539a0.83,0.83,0,0,1-.74-0.9h0A0.83,0.83,0,0,1,539,257h17a0.83,0.83,0,0,1,.74.9h0Z" transform="translate(-12.33)"/>
  <path class="l" d="M363.71,250.9v-0.15h0C363.7,250.8,363.7,250.85,363.71,250.9Z" transform="translate(-12.33)"/>
  <path class="l" d="M296.21,251.4s-1.93,6.42,4.49,7.06h58s6.17,0.8,5.35-6.84Z" transform="translate(-12.33)"/>
  <rect class="n" x="185.67" y="30.28" width="266" height="193.33" rx="3" ry="3"/>
  <path class="o" d="M188.67,30.28h260a3,3,0,0,1,3,3V38a0,0,0,0,1,0,0h-266a0,0,0,0,1,0,0V33.28A3,3,0,0,1,188.67,30.28Z"/>
  <circle class="a" cx="189.69" cy="34.04" r="1.75"/>
  <circle class="p" cx="195.17" cy="34.04" r="1.75"/>
  <circle class="c" cx="200.65" cy="34.04" r="1.75"/>
  <text class="q" transform="translate(192.58 49.73)">$ curl -sS https://getcomposer.org/installer | php<tspan x="0" y="14.4">#!/usr/bin/env php</tspan><tspan class="r"><tspan x="0" y="21.6">All settings correct for using Composer</tspan></tspan><tspan class="s"><tspan x="0" y="28.8">Downloading...</tspan></tspan><tspan class="r"><tspan x="0" y="43.2">Composer successfully installed to: ~\composer.phar</tspan></tspan><tspan class="s"><tspan x="0" y="50.4">Use it: php composer.phar</tspan></tspan><tspan x="0" y="64.8">$ mv composer.phar /usr/local/bin/composer</tspan><tspan x="0" y="79.2">$ composer global require &quot;fxp/composer-asset-plugin:~1.4.2&quot;</tspan><tspan class="s"><tspan x="0" y="93.6">Changed current directory to ~/.composer/</tspan><tspan x="0" y="100.8">./composer.json has been updated</tspan><tspan x="0" y="108">Loading composer repositories with package information</tspan><tspan x="0" y="115.2">Updating dependencies (including require-dev)</tspan></tspan><tspan class="t"><tspan x="0" y="122.4">  - Updating fxp/composer-asset-plugin dev-master (daca454 =&gt; 550c98e)</tspan><tspan x="0" y="129.6">    Checking out 550c98e61045eaabee1b687f1a94a1cb166cd4c0</tspan></tspan><tspan class="s"><tspan x="0" y="144">Writing lock file</tspan><tspan x="0" y="151.2">Generating autoload files</tspan></tspan><tspan x="0" y="165.6">$ composer create-project --prefer-dist yiisoft/yii2-app-basic basic</tspan></text>
</svg>
