<svg xmlns="http://www.w3.org/2000/svg" viewBox="0 0 567.67 272.69"><defs><style>.a{fill:#eb3a58}.b{fill:#ff4d6a}.c{fill:#83bfb3}.e{fill:#6bb3a4}.l{fill:#4d4d4d}.r{fill:#009980}.s{fill:#ff9f16}</style></defs><path class="a" d="M50.47 13a25.72 25.72 0 003.39 13 25.71 25.71 0 003.39-13 25.7 25.7 0 00-3.39-13 25.71 25.71 0 00-3.39 13zM61.88 18.33a21.26 21.26 0 00-8 7.72 21.24 21.24 0 0010.79-2.83 21.24 21.24 0 008-7.72 21.26 21.26 0 00-10.79 2.83zM45.77 18.33a21.25 21.25 0 018 7.72 21.24 21.24 0 01-10.76-2.83 21.24 21.24 0 01-8-7.72 21.26 21.26 0 0110.76 2.83z"/><path class="b" d="M56.5 12.85a25.71 25.71 0 00-2.63 13.2 25.69 25.69 0 008.74-10.24 25.71 25.71 0 002.63-13.2 25.71 25.71 0 00-8.74 10.24z"/><path class="b" d="M51.16 12.85a25.73 25.73 0 012.63 13.2 25.69 25.69 0 01-8.74-10.24 25.68 25.68 0 01-2.63-13.2 25.73 25.73 0 018.74 10.24z"/><path class="a" d="M8.45 36.05a21.94 21.94 0 002.89 11.11 21.93 21.93 0 002.89-11.11v-.12c0-3.75-5.77-3.75-5.79 0v.13z"/><path class="b" d="M13.59 35.9a21.93 21.93 0 00-2.24 11.26 21.92 21.92 0 007.45-8.74l.06-.13c1.61-3.38-3.55-5.88-5.21-2.52z"/><path class="b" d="M9.04 35.9a22 22 0 012.24 11.26 21.91 21.91 0 01-7.45-8.74l-.07-.14c-1.61-3.38 3.55-5.88 5.21-2.53z"/><path class="c" d="M53.83 23a24.78 24.78 0 00-24.78 24.82v80.88a8.93 8.93 0 01-4.93-7.89v-.06c0-.06 0 0 0 0V54.14a12.06 12.06 0 10-24.12 0v66.67a29.07 29.07 0 0029 29.07v34.62a24.785 24.785 0 0049.57 0V47.82A24.79 24.79 0 0053.83 23z"/><path d="M29.05 47.82v80.88a8.93 8.93 0 01-4.93-7.89v-.06c0-.06 0 0 0 0V54.14a12.06 12.06 0 10-24.12 0v66.67a29.07 29.07 0 0029 29.07v34.62a24.78 24.78 0 0024.78 24.78V23a24.78 24.78 0 00-24.73 24.82z" fill="#bad9c1"/><path class="e" d="M75.32 48.76a1.23 1.23 0 01-.87-2.09l6-6a1.23 1.23 0 011.73 1.73l-6.05 6a1.22 1.22 0 01-.81.36zM75.32 69.59a1.23 1.23 0 01-.87-2.09l6-6a1.23 1.23 0 011.73 1.73l-6.05 6a1.22 1.22 0 01-.81.36zM75.32 90.42a1.23 1.23 0 01-.87-2.09l6-6A1.23 1.23 0 0182.23 84l-6.05 6a1.22 1.22 0 01-.86.42zM75.32 111.25a1.23 1.23 0 01-.87-2.09l6-6a1.23 1.23 0 011.73 1.73l-6.05 6a1.22 1.22 0 01-.81.36zM75.32 132.08a1.22 1.22 0 01-.87-2.09l6-6.05a1.23 1.23 0 011.73 1.73l-6.05 6a1.22 1.22 0 01-.81.41zM75.32 152.91a1.23 1.23 0 01-.87-2.09l6-6a1.223 1.223 0 011.73 1.73l-6.05 6.05a1.22 1.22 0 01-.81.31zM75.32 171.29a1.23 1.23 0 01-.87-2.09l6-6a1.23 1.23 0 011.73 1.73l-6.05 6a1.22 1.22 0 01-.81.36z"/><g><path class="e" d="M32.96 48.76a1.22 1.22 0 01-.87-.36l-6-6a1.23 1.23 0 111.73-1.73l6 6a1.23 1.23 0 01-.86 2.09zM32.96 69.59a1.22 1.22 0 01-.87-.36l-6-6a1.23 1.23 0 011.73-1.73l6 6a1.23 1.23 0 01-.86 2.09zM32.96 90.42a1.23 1.23 0 01-.87-.36l-6-6a1.23 1.23 0 011.73-1.73l6 6a1.23 1.23 0 01-.86 2.09zM32.96 111.25a1.22 1.22 0 01-.87-.36l-6-6a1.23 1.23 0 111.73-1.73l6 6a1.23 1.23 0 01-.86 2.09zM32.96 132.08a1.22 1.22 0 01-.87-.36l-6-6a1.23 1.23 0 011.73-1.73l6 6.05a1.22 1.22 0 01-.86 2.04zM32.96 152.91a1.22 1.22 0 01-.87-.36l-6-6.05a1.223 1.223 0 011.73-1.73l6 6a1.23 1.23 0 01-.86 2.14zM32.96 171.29a1.22 1.22 0 01-.87-.36l-6-6a1.23 1.23 0 011.73-1.73l6 6a1.23 1.23 0 01-.86 2.09z"/></g><g><path class="e" d="M46.58 65.94a1.22 1.22 0 01-.91-.36l-6-6a1.223 1.223 0 111.73-1.73l6.05 6a1.23 1.23 0 01-.87 2.09zM46.58 86.76a1.22 1.22 0 01-.91-.35l-6-6a1.223 1.223 0 111.73-1.73l6.05 6a1.23 1.23 0 01-.87 2.08zM46.58 107.59a1.22 1.22 0 01-.87-.36l-6-6a1.223 1.223 0 011.73-1.73l6.05 6a1.23 1.23 0 01-.91 2.09zM46.58 128.42a1.22 1.22 0 01-.87-.36l-6-6a1.223 1.223 0 011.73-1.73l6.05 6.05a1.22 1.22 0 01-.91 2.04zM46.58 149.25a1.22 1.22 0 01-.87-.36l-6-6a1.223 1.223 0 111.73-1.73l6.05 6a1.23 1.23 0 01-.91 2.09zM46.58 170.08a1.22 1.22 0 01-.87-.36l-6-6a1.223 1.223 0 111.73-1.73l6.05 6a1.23 1.23 0 01-.91 2.09zM46.58 188.46a1.22 1.22 0 01-.91-.36l-6-6a1.23 1.23 0 111.73-1.73l6.05 6.05a1.23 1.23 0 01-.87 2.04z"/><g><path class="e" d="M49.61 28a1.22 1.22 0 01-.87-.36l-6-6a1.223 1.223 0 111.73-1.73l6.05 6a1.23 1.23 0 01-.91 2.09zM49.61 46.39a1.22 1.22 0 01-.87-.39l-6-6a1.223 1.223 0 111.73-1.73l6.05 6a1.23 1.23 0 01-.91 2.12z"/></g></g><g><path class="e" d="M62.92 65.94a1.23 1.23 0 01-.87-2.09l6-6a1.223 1.223 0 011.73 1.73l-6 6a1.22 1.22 0 01-.86.36zM62.92 86.76a1.23 1.23 0 01-.87-2.09l6-6a1.223 1.223 0 011.73 1.73l-6 6a1.22 1.22 0 01-.86.36zM62.92 107.59a1.23 1.23 0 01-.87-2.09l6-6a1.223 1.223 0 011.73 1.73l-6 6a1.22 1.22 0 01-.86.36zM62.92 128.42a1.22 1.22 0 01-.87-2.09l6-6.05a1.238 1.238 0 011.78 1.72l-6 6a1.22 1.22 0 01-.91.42zM62.92 149.25a1.23 1.23 0 01-.87-2.09l6-6a1.223 1.223 0 011.73 1.73l-6 6a1.22 1.22 0 01-.86.36zM62.92 170.08a1.23 1.23 0 01-.87-2.09l6-6a1.223 1.223 0 011.73 1.73l-6 6a1.22 1.22 0 01-.86.36zM62.92 188.46a1.23 1.23 0 01-.87-2.09l6-6.05a1.23 1.23 0 111.78 1.68l-6 6a1.22 1.22 0 01-.91.46z"/><g><path class="e" d="M59.89 28a1.23 1.23 0 01-.87-2.09l6-6a1.223 1.223 0 111.73 1.73l-6 6a1.22 1.22 0 01-.86.36zM59.89 46.39a1.23 1.23 0 01-.87-2.09l6-6a1.234 1.234 0 011.79 1.7l-6 6a1.22 1.22 0 01-.92.39z"/></g></g><g><path class="e" d="M15.1 59.22a1.23 1.23 0 01-.87-2.09l6.05-6a1.23 1.23 0 111.73 1.73l-6 6a1.22 1.22 0 01-.91.36zM15.1 80a1.23 1.23 0 01-.86-2l6.05-6a1.223 1.223 0 111.73 1.73l-6 6a1.22 1.22 0 01-.92.27zM15.1 100.88a1.23 1.23 0 01-.87-2.09l6.05-6a1.223 1.223 0 111.73 1.73l-6 6a1.22 1.22 0 01-.91.36zM15.1 121.71a1.23 1.23 0 01-.87-2.09l6.05-6a1.223 1.223 0 111.73 1.73l-6 6a1.22 1.22 0 01-.91.36zM15.1 140.08a1.22 1.22 0 01-.87-2.09l6.05-6a1.223 1.223 0 111.73 1.73l-6 6a1.22 1.22 0 01-.91.36z"/><g><path class="e" d="M9.07 50.58a1.22 1.22 0 01-.87-.36l-6-6.05a1.223 1.223 0 111.73-1.73l6 6a1.23 1.23 0 01-.86 2.14zM9.07 71.41a1.22 1.22 0 01-.87-.36l-6-6a1.23 1.23 0 011.73-1.73l6 6a1.23 1.23 0 01-.86 2.09zM9.07 92.24a1.22 1.22 0 01-.87-.36l-6-6a1.223 1.223 0 111.73-1.73l6 6a1.22 1.22 0 01-.86 2.09zM9.07 113.07a1.23 1.23 0 01-.87-.36l-6-6.05a1.223 1.223 0 111.73-1.73l6 6a1.23 1.23 0 01-.86 2.14zM9.07 133.9a1.22 1.22 0 01-.87-.36l-6-6a1.23 1.23 0 111.73-1.73l6 6a1.23 1.23 0 01-.86 2.09z"/></g></g><g><rect x="10.85" y="179.96" width="85.96" height="20.7" rx="2.14" ry="2.14" fill="#ffcc80"/><path d="M94.67 180H53.83v20.7h40.84a2.14 2.14 0 002.14-2.14V182.1a2.14 2.14 0 00-2.14-2.1z" fill="#e6b873"/><path d="M91.25 200.65H16.41a2.12 2.12 0 000 .4l11 64.83a2.14 2.14 0 002.06 2.12h48.71a2.14 2.14 0 002.14-2.14l11-64.83a2 2 0 00-.07-.38z" fill="#e9af58"/><path d="M91.25 200.65H53.83V268h24.35a2.14 2.14 0 002.14-2.14l11-64.83a2 2 0 00-.07-.38z" fill="#cc994d"/></g><path d="M503.99 247.16c0 6.34-3.83 11.48-8.55 11.48H139.9c-4.72 0-8.55-5.14-8.55-11.48V19.06c0-6.34 3.83-11.48 8.55-11.48h355.54c4.72 0 8.55 5.14 8.55 11.48v228.1z" fill="#1d1d1b"/><path fill="#3e7a9c" d="M146.21 21.36h343.94v212.03H146.21z"/><path class="l" d="M67.88 262.11s-3.1 5.78 18.93 10.59h461.15s15.43-1 19.49-8.26v-4z"/><path d="M67.99 250.45h499.68v12.83s.75 1.71-5.13 1.28H72.67s-4.6 1.28-5-1.71z" fill="gray"/><path class="l" d="M544.43 257.94a.83.83 0 01-.74.9h-17.02a.83.83 0 01-.74-.9.83.83 0 01.74-.94h17a.83.83 0 01.74.9zM351.38 250.9v-.15c-.01.05-.01.1 0 .15zM283.88 251.4s-1.93 6.42 4.49 7.06h58s6.17.8 5.35-6.84z"/><rect x="185.67" y="30.28" width="266" height="193.33" rx="3" ry="3" fill="#fff"/><path d="M188.67 30.28h260a3 3 0 013 3V38h-266v-4.72a3 3 0 013-3z" fill="#d5d5d5"/><circle class="a" cx="189.69" cy="34.04" r="1.75"/><circle cx="195.17" cy="34.04" r="1.75" fill="#f5fec4"/><circle class="c" cx="200.65" cy="34.04" r="1.75"/><text transform="translate(192.58 49.73)" font-size="6" font-family="Courier">$ curl -sS https://getcomposer.org/installer | php<tspan x="0" y="14.4">#!/usr/bin/env php</tspan><tspan class="r"><tspan x="0" y="21.6">All settings correct for using Composer</tspan></tspan><tspan class="s"><tspan x="0" y="28.8">Downloading...</tspan></tspan><tspan class="r"><tspan x="0" y="43.2">Composer successfully installed to: ~\composer.phar</tspan></tspan><tspan class="s"><tspan x="0" y="50.4">Use it: php composer.phar</tspan></tspan><tspan x="0" y="64.8">$ mv composer.phar /usr/local/bin/composer</tspan><tspan x="0" y="79.2">$ composer global require &quot;fxp/composer-asset-plugin:~1.4.2&quot;</tspan><tspan class="s"><tspan x="0" y="93.6">Changed current directory to ~/.composer/</tspan><tspan x="0" y="100.8">./composer.json has been updated</tspan><tspan x="0" y="108">Loading composer repositories with package information</tspan><tspan x="0" y="115.2">Updating dependencies (including require-dev)</tspan></tspan><tspan style="white-space:pre" fill="#ff9f16"><tspan x="0" y="122.4"> - Updating fxp/composer-asset-plugin dev-master (daca454 =&gt; 550c98e)</tspan><tspan x="0" y="129.6"> Checking out 550c98e61045eaabee1b687f1a94a1cb166cd4c0</tspan></tspan><tspan class="s"><tspan x="0" y="144">Writing lock file</tspan><tspan x="0" y="151.2">Generating autoload files</tspan></tspan><tspan x="0" y="165.6">$ composer create-project --prefer-dist yiisoft/yii2-app-basic basic</tspan></text></svg>