<?xml version="1.0" encoding="UTF-8" standalone="no"?>
<!-- Created with Inkscape (http://www.inkscape.org/) -->

<svg
   xmlns:dc="http://purl.org/dc/elements/1.1/"
   xmlns:cc="http://creativecommons.org/ns#"
   xmlns:rdf="http://www.w3.org/1999/02/22-rdf-syntax-ns#"
   xmlns:svg="http://www.w3.org/2000/svg"
   xmlns="http://www.w3.org/2000/svg"
   xmlns:sodipodi="http://sodipodi.sourceforge.net/DTD/sodipodi-0.dtd"
   xmlns:inkscape="http://www.inkscape.org/namespaces/inkscape"
   id="svg2"
   version="1.1"
   inkscape:version="0.91 r13725"
   xml:space="preserve"
   width="906.25"
   height="192.95"
   viewBox="0 0 906.25 192.95"
   sodipodi:docname="logo_blue.svg"><metadata
     id="metadata8"><rdf:RDF><cc:Work
         rdf:about=""><dc:format>image/svg+xml</dc:format><dc:type
           rdf:resource="http://purl.org/dc/dcmitype/StillImage" /><dc:title></dc:title></cc:Work></rdf:RDF></metadata><defs
     id="defs6" /><sodipodi:namedview
     pagecolor="#ffffff"
     bordercolor="#666666"
     borderopacity="1"
     objecttolerance="10"
     gridtolerance="10"
     guidetolerance="10"
     inkscape:pageopacity="0"
     inkscape:pageshadow="2"
     inkscape:window-width="1670"
     inkscape:window-height="956"
     id="namedview4"
     showgrid="false"
     inkscape:zoom="0.832"
     inkscape:cx="412.19505"
     inkscape:cy="21.97921"
     inkscape:window-x="0"
     inkscape:window-y="0"
     inkscape:window-maximized="0"
     inkscape:current-layer="g10" /><g
     id="g10"
     inkscape:groupmode="layer"
     inkscape:label="ink_ext_XXXXXX"
     transform="matrix(1.25,0,0,-1.25,0,192.95)"><path
       inkscape:connector-curvature="0"
       id="path14"
       style="fill:#44789c;fill-opacity:1;fill-rule:evenodd;stroke:none"
       d="M 52.5363,0 C 49.5906,22.918 59.1699,42.4648 68.6738,54.3852 89.3336,79.9637 88.0453,95.3289 86.0117,108.491 96.8797,91.6324 103.657,71.4172 105.16,53.532 105.927,38.7789 95.1141,4.675 52.5363,0 l 0,0" /><path
       inkscape:connector-curvature="0"
       id="path16"
       style="fill:#44789c;fill-opacity:1;fill-rule:evenodd;stroke:none"
       d="m 94.0418,111.166 c -7.3207,20.525 14.0812,42.535 31.6872,43.191 10.547,-5.348 19.608,-19.385 19.154,-38.435 -1.38,-23.472 -18.477,-43.7005 -37.082,-62.3349 -1.041,22.7258 -6.005,37.2113 -13.7592,57.5789 l 0,0" /><path
       inkscape:connector-curvature="0"
       id="path18"
       style="fill:#44789c;fill-opacity:1;fill-rule:evenodd;stroke:none"
       d="M 37.7047,87.0352 C 6.46484,95.5203 -1.24063,122.181 0.154297,140.11 30.491,152.059 63.1391,139.818 81.9891,114.319 95.2035,96.443 103.479,73.5305 105.16,53.532 96.0906,65.1547 84.6387,71.8887 70.0535,77.1621 60.0734,80.7711 50.8602,83.159 37.7047,87.0352 l 0,0" /><path
       inkscape:connector-curvature="0"
       id="path20"
       style="fill:#86a8bc;fill-opacity:1;fill-rule:evenodd;stroke:none"
       d="M 105.149,53.6422 C 98.4539,62.2391 90.448,68.1566 80.8266,72.7699 88.575,88.0305 87.4984,98.8879 86,108.58 c 0.1172,-0.14 0.1875,-0.256 0.2574,-0.396 5.7024,-7.304 17.7976,-33.3695 18.8916,-54.5418" /><path
       inkscape:connector-curvature="0"
       id="path22"
       style="fill:#44789c;fill-opacity:1;fill-rule:nonzero;stroke:none"
       d="m 187.002,73.6262 1.88,-8.1469 0.625,0 1.356,8.2508 7.941,29.2499 14.001,0 -15.881,-47.1124 c -1.326,-3.9016 -2.594,-7.4688 -3.813,-10.7067 -1.219,-3.239 -2.558,-6.041 -4.021,-8.4109 -1.463,-2.3648 -3.081,-4.1941 -4.859,-5.484 -1.774,-1.2879 -3.884,-1.9332 -6.318,-1.9332 -3.622,0 -6.513,0.5942 -8.672,1.7781 l 2.509,10.8641 c 1.042,-0.4191 2.089,-0.627 3.131,-0.627 1.604,0 3.152,0.6782 4.65,2.0372 1.499,1.357 2.629,3.8128 3.396,7.3636 l -21.835,52.2312 16.298,0 9.612,-29.3538" /><path
       inkscape:connector-curvature="0"
       id="path24"
       style="fill:#44789c;fill-opacity:1;fill-rule:nonzero;stroke:none"
       d="m 219.176,102.98 13.58,0 0,-52.2312 -13.58,0 0,52.2312 z m -1.986,14.731 c 0,2.019 0.744,3.742 2.243,5.169 1.498,1.428 3.569,2.144 6.216,2.144 2.647,0 4.788,-0.716 6.424,-2.144 1.636,-1.427 2.456,-3.15 2.456,-5.169 0,-2.022 -0.82,-3.709 -2.456,-5.068 -1.636,-1.357 -3.777,-2.037 -6.424,-2.037 -2.647,0 -4.718,0.68 -6.216,2.037 -1.499,1.359 -2.243,3.046 -2.243,5.068" /><path
       inkscape:connector-curvature="0"
       id="path26"
       style="fill:#44789c;fill-opacity:1;fill-rule:nonzero;stroke:none"
       d="m 245.373,102.98 13.58,0 0,-52.2312 -13.58,0 0,52.2312 z m -1.986,14.731 c 0,2.019 0.749,3.742 2.248,5.169 1.499,1.428 3.569,2.144 6.216,2.144 2.647,0 4.788,-0.716 6.424,-2.144 1.636,-1.427 2.456,-3.15 2.456,-5.169 0,-2.022 -0.82,-3.709 -2.456,-5.068 -1.636,-1.357 -3.777,-2.037 -6.424,-2.037 -2.647,0 -4.717,0.68 -6.216,2.037 -1.499,1.359 -2.248,3.046 -2.248,5.068" /><path
       inkscape:connector-curvature="0"
       id="path28"
       style="fill:#3f4143;fill-opacity:1;fill-rule:nonzero;stroke:none"
       d="m 266.903,102.98 8.148,0 0,2.926 c 0,3.201 0.262,5.988 0.785,8.358 0.523,2.365 1.374,4.298 2.558,5.797 1.184,1.496 2.718,2.611 4.598,3.342 1.88,0.732 4.212,1.098 6.996,1.098 2.23,0 4.198,-0.14 5.905,-0.419 1.703,-0.277 3.498,-0.801 5.378,-1.565 l -1.88,-7.001 c -1.605,0.696 -3.116,1.151 -4.544,1.359 -1.428,0.208 -2.766,0.313 -4.021,0.313 -1.813,0 -3.223,-0.28 -4.23,-0.836 -1.011,-0.559 -1.742,-1.377 -2.194,-2.454 -0.457,-1.082 -0.732,-2.403 -0.838,-3.97 -0.102,-1.567 -0.155,-3.394 -0.155,-5.485 l 0,-1.463 13.894,0 0,-7.3105 -13.894,0 0,-44.9207 -8.358,0 0,44.9207 -8.148,0 0,7.3105" /><path
       inkscape:connector-curvature="0"
       id="path30"
       style="fill:#3f4143;fill-opacity:1;fill-rule:nonzero;stroke:none"
       d="m 331.02,94.9379 c -2.088,0.6937 -4.074,1.0441 -5.954,1.0441 -2.993,0 -5.365,-0.8203 -7.103,-2.4539 -1.742,-1.6383 -2.819,-3.7086 -3.236,-6.216 l 0,-36.5633 -8.357,0 0,52.2312 5.848,0 1.565,-6.3706 0.421,0 c 1.321,2.3652 2.904,4.1946 4.752,5.4846 1.845,1.288 4.195,1.933 7.05,1.933 2.021,0 4.283,-0.35 6.792,-1.047 l -1.778,-8.0421" /><path
       inkscape:connector-curvature="0"
       id="path32"
       style="fill:#3f4143;fill-opacity:1;fill-rule:nonzero;stroke:none"
       d="m 354.105,57.2266 c 1.951,0 3.693,0.2613 5.227,0.7824 1.53,0.523 2.851,1.1836 3.969,1.9863 1.112,0.7981 2.034,1.6867 2.766,2.6621 0.732,0.9754 1.272,1.9153 1.618,2.8219 l 0,8.6699 c -0.975,0.0688 -1.968,0.1196 -2.975,0.1574 -1.011,0.0332 -2.004,0.0508 -2.979,0.0508 -2.159,0 -4.265,-0.1219 -6.318,-0.3656 -2.057,-0.2438 -3.866,-0.6961 -5.431,-1.3566 -1.569,-0.6629 -2.824,-1.5672 -3.764,-2.7176 -0.94,-1.1485 -1.41,-2.5938 -1.41,-4.334 0,-2.4383 0.874,-4.4402 2.612,-6.0074 1.742,-1.5672 3.972,-2.3496 6.685,-2.3496 z m -14.83,41.8898 c 2.643,1.6006 5.724,2.7846 9.244,3.5516 3.516,0.764 7.191,1.148 11.022,1.148 3.618,0 6.526,-0.488 8.721,-1.461 2.194,-0.977 3.866,-2.248 5.014,-3.8148 1.148,-1.5652 1.915,-3.2898 2.296,-5.1695 0.386,-1.8797 0.577,-3.7617 0.577,-5.6418 0,-4.1785 -0.107,-8.2527 -0.315,-12.2211 -0.208,-3.9699 -0.31,-7.7316 -0.31,-11.2832 0,-2.5781 0.102,-5.0141 0.31,-7.3129 0.208,-2.2965 0.594,-4.4226 1.153,-6.3707 l -6.167,0 -2.19,7.3106 -0.524,0 c -0.629,-0.9754 -1.409,-1.9309 -2.349,-2.8707 -0.94,-0.9418 -2.075,-1.7778 -3.396,-2.5071 -1.326,-0.7316 -2.856,-1.3437 -4.598,-1.8289 -1.742,-0.4879 -3.724,-0.732 -5.954,-0.732 -2.23,0 -4.301,0.3512 -6.216,1.0441 -1.915,0.6969 -3.569,1.6899 -4.961,2.9782 -1.397,1.2875 -2.492,2.8367 -3.29,4.648 -0.802,1.8109 -1.201,3.866 -1.201,6.1648 0,3.0633 0.625,5.6215 1.88,7.6766 1.254,2.0551 3.01,3.6906 5.275,4.9102 2.262,1.2168 4.979,2.0902 8.149,2.6113 3.166,0.523 6.664,0.7848 10.499,0.7848 0.971,0 1.928,0 2.873,0 0.94,0 1.893,-0.0711 2.868,-0.211 0.213,2.0906 0.315,3.9703 0.315,5.6418 0,3.8305 -0.767,6.5106 -2.297,8.0446 -1.534,1.5296 -4.318,2.2988 -8.357,2.2988 -1.183,0 -2.456,-0.0906 -3.813,-0.2703 -1.361,-0.1797 -2.753,-0.4301 -4.18,-0.7516 -1.428,-0.3234 -2.785,-0.7184 -4.075,-1.1816 -1.285,-0.4653 -2.42,-0.984 -3.391,-1.5582 l -2.612,6.373" /><path
       inkscape:connector-curvature="0"
       id="path34"
       style="fill:#3f4143;fill-opacity:1;fill-rule:nonzero;stroke:none"
       d="m 419.185,50.7488 0,29.5629 c 0,2.7844 -0.12,5.2051 -0.364,7.2598 -0.243,2.0551 -0.713,3.7773 -1.409,5.1719 -0.697,1.3921 -1.69,2.4363 -2.98,3.1343 -1.29,0.6942 -2.975,1.0442 -5.067,1.0442 -3.201,0 -5.866,-0.9754 -7.989,-2.9239 -2.124,-1.9507 -3.605,-4.389 -4.438,-7.3132 l 0,-35.936 -8.358,0 0,52.2312 5.848,0 1.565,-6.3706 0.421,0 c 1.88,2.2277 4.057,4.0546 6.527,5.4846 2.473,1.425 5.697,2.141 9.665,2.141 3.342,0 6.074,-0.645 8.202,-1.933 2.119,-1.29 3.773,-3.5356 4.961,-6.7391 1.6,2.718 3.813,4.8411 6.632,6.3731 2.82,1.532 6.008,2.299 9.559,2.299 2.926,0 5.396,-0.333 7.417,-0.993 2.017,-0.663 3.689,-1.829 5.015,-3.5006 1.321,-1.6711 2.278,-3.9344 2.872,-6.7898 0.59,-2.8551 0.887,-6.475 0.887,-10.8641 l 0,-31.3387 -8.357,0 0,31.4426 c 0,2.5074 -0.124,4.6844 -0.364,6.5309 -0.248,1.8441 -0.731,3.3757 -1.463,4.5953 -0.731,1.2191 -1.742,2.1234 -3.032,2.7152 -1.286,0.5922 -2.975,0.8891 -5.063,0.8891 -3.485,0 -6.203,-0.9754 -8.149,-2.9239 -1.951,-1.9507 -3.343,-4.7371 -4.181,-8.3574 l 0,-34.8918 -8.357,0" /><path
       inkscape:connector-curvature="0"
       id="path36"
       style="fill:#3f4143;fill-opacity:1;fill-rule:nonzero;stroke:none"
       d="m 488.969,96.9219 c -4.11,0 -7.4,-1.0793 -9.874,-3.2387 -2.469,-2.159 -3.95,-5.85 -4.438,-11.0727 l 25.905,0 c 0,5.2915 -1.006,9 -3.028,11.1258 -2.022,2.1239 -4.877,3.1856 -8.565,3.1856 z m 17.969,-41.9942 c -2.089,-1.6718 -4.722,-2.9949 -7.888,-3.9707 -3.17,-0.973 -6.53,-1.4601 -10.081,-1.4601 -3.969,0 -7.418,0.6422 -10.344,1.9301 -2.922,1.2878 -5.325,3.1347 -7.204,5.5378 -1.885,2.4032 -3.277,5.2758 -4.181,8.6188 -0.905,3.343 -1.357,7.1023 -1.357,11.2812 0,8.9133 1.982,15.7036 5.954,20.3696 3.968,4.6666 9.643,7.0006 17.03,7.0006 2.363,0 4.735,-0.262 7.102,-0.785 2.368,-0.521 4.491,-1.514 6.371,-2.977 1.88,-1.4609 3.409,-3.5355 4.598,-6.2156 1.183,-2.6801 1.773,-6.216 1.773,-10.6027 0,-2.2988 -0.208,-4.8414 -0.625,-7.6258 l -33.535,0 c 0,-3.0656 0.314,-5.7812 0.944,-8.1488 0.625,-2.3672 1.601,-4.3692 2.922,-6.0051 1.321,-1.6383 3.046,-2.8906 5.174,-3.7617 2.123,-0.8715 4.717,-1.3059 7.78,-1.3059 2.368,0 4.735,0.4192 7.103,1.2547 2.367,0.8359 4.145,1.809 5.329,2.9238 l 3.135,-6.0582" /><path
       inkscape:connector-curvature="0"
       id="path38"
       style="fill:#3f4143;fill-opacity:1;fill-rule:nonzero;stroke:none"
       d="m 555.511,102.98 12.015,-30.5023 2.611,-10.0285 0.209,0 1.986,10.2367 9.297,30.2941 7.94,0 -17.552,-53.3788 -4.074,0 -13.687,34.4722 -1.981,8.5657 -0.315,0 -2.088,-8.6696 -13.163,-34.3683 -4.075,0 -18.177,53.3788 9.088,0 10.344,-30.398 1.773,-10.1328 0.107,0 2.505,10.341 11.181,30.1898 6.056,0" /><path
       inkscape:connector-curvature="0"
       id="path40"
       style="fill:#3f4143;fill-opacity:1;fill-rule:nonzero;stroke:none"
       d="m 603.198,76.8648 c 0,-2.6468 0.262,-5.1894 0.785,-7.6257 0.518,-2.4383 1.339,-4.5621 2.452,-6.3731 1.112,-1.8113 2.575,-3.2742 4.389,-4.3871 1.809,-1.1148 4.003,-1.6715 6.579,-1.6715 9.474,-0.0687 14.209,6.6172 14.209,20.0574 0,2.7153 -0.261,5.2915 -0.784,7.7297 -0.523,2.4383 -1.339,4.5621 -2.456,6.3731 -1.113,1.8113 -2.576,3.2543 -4.385,4.3359 -1.814,1.0774 -4.008,1.6184 -6.584,1.6184 -9.47,0.0687 -14.205,-6.6168 -14.205,-20.0571 z m -8.672,0 c 0,8.845 1.969,15.6168 5.906,20.3188 3.932,4.6994 9.589,7.0514 16.971,7.0514 3.902,0 7.298,-0.645 10.188,-1.933 2.886,-1.29 5.276,-3.1344 7.156,-5.5375 1.88,-2.4028 3.272,-5.2938 4.176,-8.6696 0.905,-3.3785 1.361,-7.1226 1.361,-11.2301 0,-8.8449 -1.968,-15.6171 -5.905,-20.3187 -3.933,-4.7 -9.594,-7.0492 -16.976,-7.0492 -3.897,0 -7.293,0.6422 -10.184,1.9301 -2.89,1.2878 -5.276,3.1347 -7.155,5.5378 -1.88,2.4032 -3.272,5.2915 -4.177,8.67 -0.909,3.3781 -1.361,7.1199 -1.361,11.23" /><path
       inkscape:connector-curvature="0"
       id="path42"
       style="fill:#3f4143;fill-opacity:1;fill-rule:nonzero;stroke:none"
       d="m 675.172,94.9379 c -2.088,0.6937 -4.075,1.0441 -5.954,1.0441 -2.993,0 -5.365,-0.8203 -7.103,-2.4539 -1.742,-1.6383 -2.82,-3.7086 -3.236,-6.216 l 0,-36.5633 -8.358,0 0,52.2312 5.848,0 1.565,-6.3706 0.421,0 c 1.322,2.3652 2.904,4.1946 4.753,5.4846 1.844,1.288 4.194,1.933 7.049,1.933 2.022,0 4.283,-0.35 6.793,-1.047 l -1.778,-8.0421" /><path
       inkscape:connector-curvature="0"
       id="path44"
       style="fill:#3f4143;fill-opacity:1;fill-rule:nonzero;stroke:none"
       d="m 697.215,74.2531 -4.806,0 0,-23.5043 -8.357,0 0,73.1242 8.357,0 0,-44.5011 4.283,1.4629 16.191,22.1452 9.718,0 -15.987,-20.9968 -4.283,-3.4473 5.228,-4.1785 17.441,-23.6086 -10.339,0 -17.446,23.5043" /></g></svg>