<?xml version="1.0" encoding="UTF-8" standalone="no"?>
<!-- Created with Inkscape (http://www.inkscape.org/) -->

<svg
   xmlns:dc="http://purl.org/dc/elements/1.1/"
   xmlns:cc="http://creativecommons.org/ns#"
   xmlns:rdf="http://www.w3.org/1999/02/22-rdf-syntax-ns#"
   xmlns:svg="http://www.w3.org/2000/svg"
   xmlns="http://www.w3.org/2000/svg"
   xmlns:sodipodi="http://sodipodi.sourceforge.net/DTD/sodipodi-0.dtd"
   xmlns:inkscape="http://www.inkscape.org/namespaces/inkscape"
   id="svg2"
   version="1.1"
   inkscape:version="0.91 r13725"
   xml:space="preserve"
   width="906.25"
   height="196.25"
   viewBox="0 0 906.25 196.25"
   sodipodi:docname="logo_bw.svg"><metadata
     id="metadata8"><rdf:RDF><cc:Work
         rdf:about=""><dc:format>image/svg+xml</dc:format><dc:type
           rdf:resource="http://purl.org/dc/dcmitype/StillImage" /><dc:title></dc:title></cc:Work></rdf:RDF></metadata><defs
     id="defs6" /><sodipodi:namedview
     pagecolor="#1e6887"
     bordercolor="#666666"
     borderopacity="1"
     objecttolerance="10"
     gridtolerance="10"
     guidetolerance="10"
     inkscape:pageopacity="0"
     inkscape:pageshadow="2"
     inkscape:window-width="1607"
     inkscape:window-height="813"
     id="namedview4"
     showgrid="false"
     inkscape:zoom="0.832"
     inkscape:cx="405.53496"
     inkscape:cy="-16.76347"
     inkscape:window-x="0"
     inkscape:window-y="0"
     inkscape:window-maximized="0"
     inkscape:current-layer="g10" /><g
     id="g10"
     inkscape:groupmode="layer"
     inkscape:label="ink_ext_XXXXXX"
     transform="matrix(1.25,0,0,-1.25,0,196.25)"><path
       inkscape:connector-curvature="0"
       id="path16"
       style="fill:#c2c3c1;fill-opacity:1;fill-rule:nonzero;stroke:none"
       d="M 52.5363,1.32109 C 49.5906,24.2398 59.1699,43.7871 68.6738,55.707 74.134,62.4668 78.0613,68.5141 80.8469,73.9953 90.4547,69.3621 98.4578,63.443 105.16,54.8539 l 0,0 c -0.003,0.0371 -0.007,0.075 -0.01,0.1109 0.004,-0.0367 0.007,-0.0738 0.01,-0.1109 C 105.927,40.1012 95.1141,5.99688 52.5363,1.32109 M 105.147,55.002 c 0,0.0019 0,0.0019 0,0.005 l 0,0 c 0,-0.0019 0,-0.0031 0,-0.005 m -19.1325,54.807 c -8e-4,0.001 -0.002,0.003 -0.0028,0.004 0,0 0,0 0,0 8e-4,-0.001 0.002,-0.002 0.0024,-0.004 l 4e-4,0" /><path
       inkscape:connector-curvature="0"
       id="path18"
       style="fill:#c2c3c1;fill-opacity:1;fill-rule:nonzero;stroke:none"
       d="m 107.801,54.9078 c -1.041,22.727 -6.005,37.2121 -13.7592,57.5802 -7.3207,20.525 14.0812,42.535 31.6872,43.191 10.547,-5.348 19.608,-19.386 19.154,-38.435 -1.381,-23.4725 -18.477,-43.701 -37.082,-62.3362" /><path
       inkscape:connector-curvature="0"
       id="path20"
       style="fill:#c2c3c1;fill-opacity:1;fill-rule:nonzero;stroke:none"
       d="m 105.15,54.9648 c -0.001,0.0122 -0.002,0.025 -0.003,0.0372 10e-4,-0.0122 0.002,-0.025 0.003,-0.0372 M 80.8469,73.9953 c -3.3934,1.6363 -6.9871,3.1121 -10.7938,4.4887 -9.9801,3.6086 -19.1929,5.9969 -32.3484,9.873 -31.23986,8.4852 -38.94533,35.146 -37.550403,53.075 7.964063,3.136 16.091003,4.607 24.082003,4.607 22.4492,0 43.8512,-11.593 57.7528,-30.398 1.3968,-1.89 2.7382,-3.835 4.0226,-5.828 0.1426,-0.921 0.2813,-1.853 0.409,-2.799 1.2039,-8.9761 1.3945,-19.1585 -5.5941,-32.9226 0.0183,-0.0086 0.0375,-0.018 0.0554,-0.0266 -0.0121,-0.0242 -0.023,-0.0457 -0.0351,-0.0695" /><path
       inkscape:connector-curvature="0"
       id="path22"
       style="fill:#f2f2f0;fill-opacity:1;fill-rule:nonzero;stroke:none"
       d="m 105.16,54.8539 c -6.7022,8.5891 -14.7053,14.5082 -24.3131,19.1414 0.0121,0.0238 0.023,0.0453 0.0351,0.0695 9.5969,-4.6093 17.5844,-10.5207 24.267,-19.1019 l 0,0 c -0.001,0.0141 -0.001,0.0301 -0.002,0.0441 0,-0.0031 0,-0.0031 0,-0.005 10e-4,-0.0122 0.002,-0.025 0.003,-0.0372 0.003,-0.0359 0.007,-0.0738 0.01,-0.1109 M 86.4207,107.014 c -0.1277,0.946 -0.2664,1.878 -0.409,2.799 8e-4,-0.001 0.002,-0.003 0.0028,-0.004 0.1418,-0.92 0.2796,-1.851 0.4062,-2.795" /><path
       inkscape:connector-curvature="0"
       id="path24"
       style="fill:#575a5b;fill-opacity:1;fill-rule:nonzero;stroke:none"
       d="m 105.147,55.007 c -0.002,0.0231 -0.004,0.0469 -0.006,0.07 -0.001,0.0152 -0.003,0.0281 -0.004,0.0429 -0.002,0.0231 -0.004,0.0473 -0.006,0.0699 -0.001,0.0133 -0.003,0.0293 -0.004,0.0422 -0.002,0.0239 -0.004,0.0469 -0.006,0.0711 -10e-4,0.0141 -0.003,0.0289 -0.004,0.0418 -0.002,0.0242 -0.004,0.05 -0.006,0.0742 -0.001,0.0118 -0.003,0.0239 -0.004,0.0368 -0.002,0.0269 -0.005,0.0531 -0.007,0.0812 -10e-4,0.0109 -0.002,0.0199 -0.003,0.0309 -0.003,0.0308 -0.006,0.064 -0.009,0.0949 0,0.0062 -10e-4,0.0101 -10e-4,0.016 -0.011,0.116 -0.022,0.2313 -0.033,0.3473 0,0.0039 -0.001,0.0078 -0.001,0.0117 -0.003,0.0351 -0.007,0.0691 -0.01,0.1043 -0.001,0.0047 -0.001,0.0098 -0.002,0.0148 -0.003,0.0321 -0.006,0.066 -0.009,0.0981 -10e-4,0.007 -0.002,0.0148 -0.002,0.0219 -0.004,0.032 -0.007,0.064 -0.01,0.096 -10e-4,0.0059 -10e-4,0.0122 -0.002,0.018 -0.003,0.0328 -0.007,0.0668 -0.01,0.1 0,0.0051 -10e-4,0.0102 -10e-4,0.0149 -0.004,0.0382 -0.008,0.0742 -0.012,0.1132 l 0,0 c -0.02,0.1969 -0.041,0.3938 -0.062,0.5911 l 0,3e-4 c -1.876,17.2864 -8.5267,36.477 -18.9189,52.5985 -0.0047,0.031 -0.0094,0.062 -0.0141,0.093 0.1172,-0.14 0.1875,-0.256 0.2578,-0.396 5.6981,-7.299 17.7802,-33.3341 18.8892,-54.499" /><path
       inkscape:connector-curvature="0"
       id="path26"
       style="fill:#d9dad7;fill-opacity:1;fill-rule:nonzero;stroke:none"
       d="m 105.147,55.007 c -0.002,0.0231 -0.004,0.0469 -0.006,0.07 0.002,-0.0231 0.004,-0.0469 0.006,-0.07 l 0,0 m -0.01,0.1129 c -0.002,0.0231 -0.004,0.0461 -0.006,0.0699 0.002,-0.0226 0.004,-0.0468 0.006,-0.0699 m -0.01,0.1121 c -0.002,0.025 -0.004,0.0469 -0.006,0.0711 0.002,-0.0242 0.004,-0.0472 0.006,-0.0711 m -0.01,0.1129 c -0.002,0.025 -0.004,0.0492 -0.006,0.0742 0.002,-0.0242 0.004,-0.05 0.006,-0.0742 m -0.01,0.111 c -0.002,0.0269 -0.005,0.0543 -0.007,0.0812 0.002,-0.0281 0.005,-0.0543 0.007,-0.0812 m -0.01,0.1121 c -0.003,0.0308 -0.006,0.064 -0.009,0.0949 0.003,-0.0309 0.006,-0.0641 0.009,-0.0949 m -0.01,0.1109 c -0.011,0.1152 -0.022,0.232 -0.033,0.3473 0.011,-0.116 0.022,-0.2313 0.033,-0.3473 m -0.034,0.359 c -0.003,0.0351 -0.007,0.0691 -0.01,0.1043 0.003,-0.0352 0.007,-0.0692 0.01,-0.1043 m -0.012,0.1191 c -0.003,0.0321 -0.006,0.066 -0.009,0.0981 0.003,-0.0321 0.006,-0.066 0.009,-0.0981 m -0.011,0.12 c -0.004,0.032 -0.007,0.064 -0.01,0.096 0.003,-0.032 0.006,-0.064 0.01,-0.096 m -0.012,0.114 c -0.003,0.0328 -0.007,0.0668 -0.01,0.1 0.003,-0.0332 0.007,-0.0672 0.01,-0.1 m -0.011,0.1149 c -0.004,0.0382 -0.008,0.0742 -0.012,0.1132 0.004,-0.039 0.008,-0.075 0.012,-0.1132 m -0.012,0.1132 c -0.02,0.1969 -0.041,0.3938 -0.062,0.5911 0.021,-0.1973 0.042,-0.3942 0.062,-0.5911 m -0.062,0.5914 c -1.876,17.286 -8.5275,36.4766 -18.9185,52.5985 l -4e-4,0 C 96.4063,93.6875 103.057,74.4969 104.933,57.2105" /><path
       inkscape:connector-curvature="0"
       id="path28"
       style="fill:#d9dad7;fill-opacity:1;fill-rule:nonzero;stroke:none"
       d="m 105.141,55.077 c -0.001,0.014 -0.003,0.0289 -0.004,0.0429 0.001,-0.0148 0.003,-0.0277 0.004,-0.0429 m -0.01,0.1128 c -0.001,0.0141 -0.003,0.0282 -0.004,0.0422 0.001,-0.0129 0.003,-0.0289 0.004,-0.0422 m -0.01,0.1133 c -10e-4,0.0141 -0.003,0.0278 -0.004,0.0418 10e-4,-0.0129 0.003,-0.0277 0.004,-0.0418 m -0.01,0.116 c -0.001,0.0118 -0.003,0.025 -0.004,0.0368 0.001,-0.0129 0.003,-0.025 0.004,-0.0368 m -0.011,0.118 c -10e-4,0.0098 -0.002,0.0199 -0.003,0.0309 0.001,-0.011 0.002,-0.02 0.003,-0.0309 m -0.012,0.1258 c 0,0.0051 -10e-4,0.0109 -10e-4,0.016 0,-0.0059 10e-4,-0.0098 10e-4,-0.016 m -0.034,0.3633 c 0,0.0039 -0.001,0.0078 -0.001,0.0117 0,-0.0039 0.001,-0.0078 0.001,-0.0117 m -0.011,0.116 c -0.001,0.0058 -0.001,0.0098 -0.002,0.0148 0.001,-0.005 0.001,-0.0101 0.002,-0.0148 m -0.011,0.1129 c -10e-4,0.0078 -0.002,0.014 -0.002,0.0219 0,-0.0071 0.001,-0.0149 0.002,-0.0219 m -0.012,0.1179 c -10e-4,0.0071 -10e-4,0.0122 -0.002,0.018 0.001,-0.0058 0.001,-0.0121 0.002,-0.018 m -0.012,0.118 c 0,0.0051 -10e-4,0.011 -10e-4,0.0149 0,-0.0047 10e-4,-0.0098 10e-4,-0.0149 m -0.013,0.1281 0,0 m -0.062,0.5911 0,3e-4 0,-3e-4 M 80.882,74.0648 c -0.0179,0.0086 -0.0371,0.018 -0.0554,0.0266 6.9886,13.7641 6.798,23.9465 5.5941,32.9226 1.2133,-8.9785 1.4402,-19.1788 -5.5387,-32.9492" /><path
       inkscape:connector-curvature="0"
       id="path30"
       style="fill:#f8f8f7;fill-opacity:1;fill-rule:nonzero;stroke:none"
       d="m 105.149,54.9629 c -6.6826,8.5812 -14.6701,14.4926 -24.267,19.1019 6.9789,13.7704 6.752,23.9707 5.5387,32.9492 -0.1266,0.944 -0.2644,1.875 -0.4062,2.795 10.391,-16.1219 17.0425,-35.3125 18.9185,-52.5985 l 0,-3e-4 c 0.021,-0.1973 0.042,-0.3942 0.062,-0.5911 l 0,0 c 0.004,-0.039 0.008,-0.075 0.012,-0.1132 0,-0.0039 10e-4,-0.0098 10e-4,-0.0149 0.003,-0.0332 0.007,-0.0672 0.01,-0.1 0.001,-0.0058 0.001,-0.0109 0.002,-0.018 0.003,-0.032 0.006,-0.064 0.01,-0.096 0,-0.0079 0.001,-0.0141 0.002,-0.0219 0.003,-0.0321 0.006,-0.066 0.009,-0.0981 0.001,-0.005 0.001,-0.009 0.002,-0.0148 0.003,-0.0352 0.007,-0.0692 0.01,-0.1043 0,-0.0039 0.001,-0.0078 0.001,-0.0117 0.011,-0.1153 0.022,-0.2321 0.033,-0.3473 0,-0.0051 10e-4,-0.0109 10e-4,-0.016 0.003,-0.0309 0.006,-0.0641 0.009,-0.0949 0.001,-0.011 0.002,-0.0211 0.003,-0.0309 0.002,-0.0269 0.005,-0.0543 0.007,-0.0812 0.001,-0.0118 0.003,-0.025 0.004,-0.0368 0.002,-0.025 0.004,-0.0492 0.006,-0.0742 10e-4,-0.014 0.003,-0.0277 0.004,-0.0418 0.002,-0.0242 0.004,-0.0461 0.006,-0.0711 0.001,-0.014 0.003,-0.0281 0.004,-0.0422 0.002,-0.0238 0.004,-0.0468 0.006,-0.0699 0.001,-0.014 0.003,-0.0289 0.004,-0.0429 0.002,-0.0231 0.004,-0.0469 0.006,-0.07 10e-4,-0.014 10e-4,-0.03 0.002,-0.0441" /><path
       inkscape:connector-curvature="0"
       id="path32"
       style="fill:#c2c3c1;fill-opacity:1;fill-rule:nonzero;stroke:none"
       d="m 177.913,30.6551 c -3.622,0 -6.513,0.5937 -8.672,1.7769 l 2.509,10.8649 c 1.042,-0.4188 2.089,-0.6278 3.13,-0.6278 1.605,0 3.153,0.6789 4.651,2.0379 1.499,1.3559 2.629,3.8121 3.396,7.3641 l -21.835,52.2309 16.298,0 9.612,-29.3543 1.88,-8.1465 0.625,0 1.356,8.2508 7.941,29.25 14.001,0 -15.881,-47.1125 c -1.326,-3.9016 -2.594,-7.4684 -3.813,-10.7075 -1.219,-3.2379 -2.558,-6.0398 -4.021,-8.4101 -1.463,-2.3649 -3.081,-4.1938 -4.859,-5.484 -1.774,-1.2879 -3.884,-1.9328 -6.318,-1.9328" /><path
       inkscape:connector-curvature="0"
       id="path34"
       style="fill:#c2c3c1;fill-opacity:1;fill-rule:nonzero;stroke:none"
       d="m 232.756,52.0711 -13.58,0 0,52.2309 13.58,0 0,-52.2309 m -7.107,59.8569 c -2.647,0 -4.718,0.68 -6.216,2.037 -1.499,1.359 -2.243,3.046 -2.243,5.067 0,2.02 0.744,3.742 2.243,5.17 1.498,1.427 3.569,2.144 6.216,2.144 2.647,0 4.788,-0.717 6.424,-2.144 1.636,-1.428 2.456,-3.15 2.456,-5.17 0,-2.021 -0.82,-3.708 -2.456,-5.067 -1.636,-1.357 -3.777,-2.037 -6.424,-2.037" /><path
       inkscape:connector-curvature="0"
       id="path36"
       style="fill:#c2c3c1;fill-opacity:1;fill-rule:nonzero;stroke:none"
       d="m 258.953,52.0711 -13.58,0 0,52.2309 13.58,0 0,-52.2309 m -7.102,59.8569 c -2.647,0 -4.717,0.68 -6.216,2.037 -1.499,1.359 -2.248,3.046 -2.248,5.067 0,2.02 0.749,3.742 2.248,5.17 1.499,1.427 3.569,2.144 6.216,2.144 2.647,0 4.788,-0.717 6.424,-2.144 1.636,-1.428 2.456,-3.15 2.456,-5.17 0,-2.021 -0.82,-3.708 -2.456,-5.067 -1.636,-1.357 -3.777,-2.037 -6.424,-2.037" /><path
       inkscape:connector-curvature="0"
       id="path38"
       style="fill:#ffffff;fill-opacity:1;fill-rule:nonzero;stroke:none"
       d="m 266.903,104.302 8.148,0 0,2.926 c 0,3.201 0.262,5.988 0.785,8.357 0.523,2.365 1.374,4.299 2.558,5.797 1.184,1.497 2.718,2.611 4.598,3.343 1.88,0.732 4.212,1.097 6.996,1.097 2.23,0 4.198,-0.14 5.905,-0.419 1.703,-0.277 3.498,-0.8 5.378,-1.565 l -1.88,-7 c -1.605,0.696 -3.116,1.15 -4.544,1.358 -1.428,0.209 -2.766,0.313 -4.021,0.313 -1.813,0 -3.223,-0.279 -4.23,-0.836 -1.011,-0.558 -1.742,-1.376 -2.194,-2.453 -0.457,-1.082 -0.732,-2.404 -0.838,-3.971 -0.102,-1.567 -0.155,-3.394 -0.155,-5.484 l 0,-1.463 13.894,0 0,-7.311 -13.894,0 0,-44.9199 -8.358,0 0,44.9199 -8.148,0 0,7.311" /><path
       inkscape:connector-curvature="0"
       id="path40"
       style="fill:#ffffff;fill-opacity:1;fill-rule:nonzero;stroke:none"
       d="m 331.02,96.2598 c -2.088,0.6937 -4.074,1.0437 -5.954,1.0437 -2.993,0 -5.365,-0.8199 -7.103,-2.4539 -1.742,-1.6383 -2.819,-3.7086 -3.236,-6.2156 l 0,-36.5629 -8.357,0 0,52.2309 5.848,0 1.565,-6.3711 0.421,0 c 1.321,2.3651 2.904,4.1941 4.752,5.4841 1.845,1.288 4.195,1.933 7.05,1.933 2.021,0 4.283,-0.35 6.792,-1.046 l -1.778,-8.0422" /><path
       inkscape:connector-curvature="0"
       id="path42"
       style="fill:#ffffff;fill-opacity:1;fill-rule:nonzero;stroke:none"
       d="m 354.105,58.548 c 1.951,0 3.693,0.2618 5.227,0.7825 1.53,0.523 2.851,1.184 3.969,1.9863 1.112,0.798 2.034,1.6871 2.766,2.6625 0.732,0.9754 1.272,1.9152 1.618,2.8219 l 0,8.6695 c -0.975,0.0688 -1.968,0.1199 -2.975,0.1574 -1.011,0.0332 -2.004,0.0512 -2.979,0.0512 -2.159,0 -4.265,-0.1219 -6.318,-0.366 -2.057,-0.2438 -3.866,-0.6961 -5.431,-1.3567 -1.569,-0.6628 -2.824,-1.5671 -3.764,-2.7175 -0.94,-1.1485 -1.41,-2.5938 -1.41,-4.3336 0,-2.4387 0.874,-4.4403 2.612,-6.0078 1.742,-1.5672 3.972,-2.3497 6.685,-2.3497 z m -14.83,41.89 c 2.643,1.601 5.724,2.784 9.244,3.551 3.516,0.765 7.191,1.149 11.022,1.149 3.618,0 6.526,-0.488 8.721,-1.461 2.194,-0.978 3.866,-2.248 5.014,-3.8153 1.148,-1.5648 1.915,-3.2894 2.296,-5.1695 0.386,-1.8797 0.577,-3.7617 0.577,-5.6414 0,-4.1785 -0.107,-8.2531 -0.315,-12.2211 -0.208,-3.9703 -0.31,-7.732 -0.31,-11.2832 0,-2.5781 0.102,-5.0145 0.31,-7.3133 0.208,-2.2961 0.594,-4.4223 1.153,-6.3711 l -6.167,0 -2.19,7.3109 -0.524,0 c -0.629,-0.9753 -1.409,-1.9304 -2.349,-2.871 -0.94,-0.9418 -2.075,-1.777 -3.396,-2.5071 -1.326,-0.7308 -2.856,-1.3429 -4.598,-1.8277 -1.742,-0.4883 -3.724,-0.732 -5.954,-0.732 -2.23,0 -4.301,0.35 -6.216,1.0437 -1.915,0.6961 -3.569,1.6891 -4.961,2.977 -1.397,1.2882 -2.492,2.8379 -3.29,4.6488 -0.802,1.8109 -1.201,3.866 -1.201,6.1648 0,3.0637 0.625,5.6215 1.88,7.6766 1.254,2.0551 3.01,3.691 5.275,4.9102 2.262,1.2171 4.979,2.0906 8.149,2.6113 3.166,0.523 6.664,0.7847 10.499,0.7847 0.971,0 1.928,0 2.873,0 0.94,0 1.893,-0.071 2.868,-0.2105 0.213,2.0902 0.315,3.9703 0.315,5.6418 0,3.8305 -0.767,6.5105 -2.297,8.0445 -1.534,1.5293 -4.318,2.2989 -8.357,2.2989 -1.183,0 -2.456,-0.0911 -3.813,-0.2707 -1.361,-0.1793 -2.753,-0.4301 -4.18,-0.7512 -1.428,-0.3238 -2.785,-0.7184 -4.075,-1.1817 -1.285,-0.4656 -2.42,-0.9843 -3.391,-1.5586 l -2.612,6.3732" /><path
       inkscape:connector-curvature="0"
       id="path44"
       style="fill:#ffffff;fill-opacity:1;fill-rule:nonzero;stroke:none"
       d="m 419.185,52.0711 0,29.5625 c 0,2.784 -0.12,5.2047 -0.364,7.2598 -0.243,2.0546 -0.713,3.7773 -1.409,5.1714 -0.697,1.3922 -1.69,2.4364 -2.98,3.1348 -1.29,0.6938 -2.975,1.0442 -5.067,1.0442 -3.201,0 -5.866,-0.9754 -7.989,-2.9243 -2.124,-1.9507 -3.605,-4.389 -4.438,-7.3129 l 0,-35.9355 -8.358,0 0,52.2309 5.848,0 1.565,-6.3711 0.421,0 c 1.88,2.2281 4.057,4.0551 6.527,5.4841 2.473,1.426 5.697,2.142 9.665,2.142 3.342,0 6.074,-0.645 8.202,-1.934 2.119,-1.289 3.773,-3.535 4.961,-6.7382 1.6,2.7175 3.813,4.8412 6.632,6.3732 2.82,1.531 6.008,2.299 9.559,2.299 2.926,0 5.396,-0.333 7.417,-0.993 2.017,-0.663 3.689,-1.829 5.015,-3.501 1.321,-1.6712 2.278,-3.9345 2.872,-6.7896 0.59,-2.855 0.887,-6.4754 0.887,-10.8644 l 0,-31.3379 -8.357,0 0,31.4422 c 0,2.507 -0.124,4.684 -0.364,6.5305 -0.248,1.8445 -0.731,3.3761 -1.463,4.5953 -0.731,1.2191 -1.742,2.1238 -3.032,2.7156 -1.286,0.5918 -2.975,0.8891 -5.063,0.8891 -3.485,0 -6.203,-0.9754 -8.149,-2.9243 -1.951,-1.9507 -3.343,-4.7371 -4.181,-8.357 l 0,-34.8914 -8.357,0" /><path
       inkscape:connector-curvature="0"
       id="path46"
       style="fill:#ffffff;fill-opacity:1;fill-rule:nonzero;stroke:none"
       d="m 488.969,98.2438 c -4.11,0 -7.4,-1.0797 -9.874,-3.2387 -2.469,-2.1594 -3.95,-5.8504 -4.438,-11.0731 l 25.905,0 c 0,5.2914 -1.006,9 -3.028,11.1262 -2.022,2.1234 -4.877,3.1856 -8.565,3.1856 z m 17.969,-41.995 c -2.089,-1.6707 -4.722,-2.9949 -7.888,-3.9699 -3.17,-0.973 -6.53,-1.4609 -10.081,-1.4609 -3.969,0 -7.418,0.6429 -10.344,1.9308 -2.922,1.2883 -5.325,3.1352 -7.204,5.5375 -1.885,2.4032 -3.277,5.2762 -4.181,8.6192 -0.905,3.3425 -1.357,7.1023 -1.357,11.2808 0,8.9137 1.982,15.7035 5.954,20.37 3.968,4.6657 9.643,7.0007 17.03,7.0007 2.363,0 4.735,-0.262 7.102,-0.785 2.368,-0.521 4.491,-1.514 6.371,-2.977 1.88,-1.461 3.409,-3.536 4.598,-6.2161 1.183,-2.6801 1.773,-6.2156 1.773,-10.6027 0,-2.2989 -0.208,-4.8414 -0.625,-7.6254 l -33.535,0 c 0,-3.066 0.314,-5.7817 0.944,-8.1488 0.625,-2.3676 1.601,-4.3696 2.922,-6.0055 1.321,-1.6379 3.046,-2.8906 5.174,-3.7617 2.123,-0.8711 4.717,-1.3059 7.78,-1.3059 2.368,0 4.735,0.4191 7.103,1.2551 2.367,0.8355 4.145,1.8086 5.329,2.9238 l 3.135,-6.059" /><path
       inkscape:connector-curvature="0"
       id="path48"
       style="fill:#ffffff;fill-opacity:1;fill-rule:nonzero;stroke:none"
       d="m 555.511,104.302 12.015,-30.5028 2.611,-10.0285 0.209,0 1.986,10.2371 9.297,30.2942 7.94,0 -17.552,-53.3801 -4.074,0 -13.687,34.4734 -1.981,8.5656 -0.315,0 -2.088,-8.6699 -13.163,-34.3691 -4.075,0 -18.177,53.3801 9.088,0 10.344,-30.3985 1.773,-10.1328 0.107,0 2.505,10.341 11.181,30.1903 6.056,0" /><path
       inkscape:connector-curvature="0"
       id="path50"
       style="fill:#ffffff;fill-opacity:1;fill-rule:nonzero;stroke:none"
       d="m 603.198,78.1863 c 0,-2.6468 0.262,-5.1894 0.785,-7.6258 0.518,-2.4382 1.339,-4.5621 2.452,-6.373 1.112,-1.8109 2.575,-3.2742 4.389,-4.3871 1.809,-1.1149 4.003,-1.6715 6.579,-1.6715 9.474,-0.0684 14.209,6.6172 14.209,20.0574 0,2.7157 -0.261,5.2914 -0.784,7.7297 -0.523,2.4387 -1.339,4.5621 -2.456,6.3735 -1.113,1.8109 -2.576,3.2539 -4.385,4.3359 -1.814,1.0773 -4.008,1.6184 -6.584,1.6184 -9.47,0.0687 -14.205,-6.6172 -14.205,-20.0575 z m -8.672,0 c 0,8.845 1.969,15.6172 5.906,20.3188 3.932,4.6999 9.589,7.0519 16.971,7.0519 3.902,0 7.298,-0.645 10.188,-1.934 2.886,-1.289 5.276,-3.134 7.156,-5.5367 1.88,-2.4031 3.272,-5.2937 4.176,-8.6699 0.905,-3.3781 1.361,-7.1223 1.361,-11.2301 0,-8.8449 -1.968,-15.6172 -5.905,-20.3187 -3.933,-4.6996 -9.594,-7.0496 -16.976,-7.0496 -3.897,0 -7.293,0.6429 -10.184,1.9308 -2.89,1.2883 -5.276,3.1352 -7.155,5.5375 -1.88,2.4032 -3.272,5.2914 -4.177,8.67 -0.909,3.3785 -1.361,7.1203 -1.361,11.23" /><path
       inkscape:connector-curvature="0"
       id="path52"
       style="fill:#ffffff;fill-opacity:1;fill-rule:nonzero;stroke:none"
       d="m 675.172,96.2598 c -2.088,0.6937 -4.075,1.0437 -5.954,1.0437 -2.993,0 -5.365,-0.8199 -7.103,-2.4539 -1.742,-1.6383 -2.82,-3.7086 -3.236,-6.2156 l 0,-36.5629 -8.358,0 0,52.2309 5.848,0 1.565,-6.3711 0.421,0 c 1.322,2.3651 2.904,4.1941 4.753,5.4841 1.844,1.288 4.194,1.933 7.049,1.933 2.022,0 4.283,-0.35 6.793,-1.046 l -1.778,-8.0422" /><path
       inkscape:connector-curvature="0"
       id="path54"
       style="fill:#ffffff;fill-opacity:1;fill-rule:nonzero;stroke:none"
       d="m 697.215,75.575 -4.806,0 0,-23.5039 -8.357,0 0,73.1239 8.357,0 0,-44.5016 4.283,1.4632 16.191,22.1454 9.718,0 -15.987,-20.9973 -4.283,-3.4469 5.228,-4.1785 17.441,-23.6082 -10.339,0 -17.446,23.5039" /></g></svg>