<svg xmlns="http://www.w3.org/2000/svg" viewBox="0 0 315 270"><style>.st0{fill:#83bfb3}.st1{fill:#44789c}</style><g id="Objects"><path class="st0" d="M315 171.3c-2.9 3.1-6.3 5.8-9.4 8.6-3.8 3.4-7.6 6.7-11.5 9.9-7.2 6-14.6 11.9-21.9 17.8-1.4-3.6-4.5-6.7-7.7-8.9-4.9-3.2-10.7-4.9-16.7-5.7 3.6-4.7 9.8-6.7 15.1-9 6.2-2.7 11.1-7 16.4-11.1 5.2-4 10.8-7.7 17.6-8.1 6.3-.4 14 1.4 18.1 6.5z"/><path class="st0" d="M307.2 158.6c-.5 1.5-1.6 3-2.5 4.3-1.8-.4-3.6-.6-5.3-.7-7.4-.4-14.1 3.1-19.9 7.4-5.8 4.3-11 9.2-17.7 12.1-6.2 2.7-12.9 5-16.8 10.9v.1c-1.9-.2-3.9-.3-5.8-.4-.6 0-1.3-.1-1.9-.1 4.4-4.8 9.9-8.3 15.4-11.7 6.1-3.8 11.9-7.7 17.4-12.1 5.6-4.5 11.3-9.2 18.1-11.7 6-2.2 14.1-3 19 1.9zM284.9 155.1c-5.2 2.3-9.9 5.9-14.3 9.4-2.9 2.3-5.8 4.7-8.8 6.8-3.1 2.3-6.5 4.3-9.8 6.3-6.6 4.1-13.4 8.4-18.3 14.5-4.9 0-9.7.4-14.6.7 4.3-4.3 9.4-7.8 14.3-11.4 5.7-4.1 10.7-8.7 15.8-13.4 5-4.6 10.3-9.1 16.7-11.6 6-2.2 12.8-2.7 19-1.3z"/><path class="st0" d="M203.4 222.3c-.3 0-.6-.1-.8-.1-1.7-.2-3.5-.3-5.2-.4l-4.4-.2c-.1 0-.6.1-.7 0-2.4-.1-4.7 0-7.1.1l-2.5.1c-2.2.1-4.4.4-6.5.7-9.8 1.4-19.1 4.4-28 8.7-1.5.8-2.9-1.5-1.3-2.3 9.9-4.8 20.3-8.1 31.2-9.3 8.3-.9 16.7-.7 25.1 0h.5c1.2.1 2.5.3 3.7.4 8.2 1 16.3 2.5 24.5 3.2 8.3.7 17 .9 25-1.8 6.2-2.1 15.3-5.1 13.3-13-1.9-7.6-10.4-9.2-17.3-11.2-9.2-2.6-18.9-2.8-28.4-2.5-9.5.3-18.9-1.5-28.4-1.7-8.9-.2-18-3.7-25.8-8.2-.1 0-.2-.1-.3-.2l-.1-.1s-.1 0-.1-.1c-12.9-8.9-26.8-20.3-43.2-20.8-8.6-.3-17 2.1-25.4 3.8-4.1.8-8.4 1.7-12.6 1.8-4.2.1-8.4 0-12.6 0-9.8-.1-19.4.5-28.7 4-8.8 3.4-17.2 7.7-24.9 13.1-7.7 5.4-14.3 11.9-21.1 18.4-.4.4-.9.8-1.3 1.2L35.7 259c2.1-1.5 4.3-3 6.6-4.2 8.4-4.6 17.4-6.7 26.9-6.6 9.7.1 19.4 1.9 28.7 4 10.5 2.4 20.9 5.3 31.3 8 10.4 2.7 20.8 5.4 31.4 7.1 10.2 1.7 21.2 2.7 31.4.4h.3c9.7-5.8 17.8-13.8 25.7-21.7 4-3.9 8-7.9 12.2-11.6 3.2-2.8 6.6-5.8 10.3-8.1-10.2 0-20.5-2.1-30.6-3.4l-6.5-.6zM219.9 187.6h.2v-.2c0 .1-.1.2-.2.2z"/><path id="path14" class="st1" d="M162.5 148.5c-2.8-21.9 6.4-40.6 15.5-52 19.8-24.5 18.6-39.2 16.6-51.8C205 60.9 211.5 80.2 213 97.3c.7 14.1-9.7 46.8-50.5 51.2"/><path id="path16" class="st1" d="M202.3 42.2c-7-19.6 13.5-40.7 30.4-41.3 10.1 5.1 18.8 18.6 18.4 36.8-1.3 22.5-17.7 41.8-35.6 59.7-1-21.9-5.8-35.7-13.2-55.2"/><path id="path18" class="st1" d="M148.2 65.3c-30-8.1-37.4-33.6-36-50.8 29.1-11.4 60.4.3 78.5 24.7 12.7 17.1 20.6 39 22.2 58.2-8.7-11.1-19.7-17.6-33.7-22.6-9.5-3.5-18.4-5.8-31-9.5"/><path id="path20" d="M212.9 97.2c-6.4-8.2-14.1-13.9-23.3-18.3 7.4-14.6 6.4-25 5-34.3.1.1.2.2.2.4 5.5 7 17.1 32 18.1 52.2" fill="#86a8bc"/></g></svg>