<?xml version="1.0" encoding="utf-8"?>
<svg version="1.1" xmlns="http://www.w3.org/2000/svg" xmlns:xlink="http://www.w3.org/1999/xlink" x="0px" y="0px"
	 viewBox="0 0 315 270" style="enable-background:new 0 0 315 270;" xml:space="preserve">
<style type="text/css">
	.st0{fill:#83BFB3;}
	.st1{fill:#44789C;}
	.st2{fill:#86A8BC;}
</style>
<g id="Background">
</g>
<g id="Objects">
	<g>
		<g>
			<g>
				<path class="st0" d="M315,171.3c-2.9,3.1-6.3,5.8-9.4,8.6c-3.8,3.4-7.6,6.7-11.5,9.9c-7.2,6-14.6,11.9-21.9,17.8
					c-1.4-3.6-4.5-6.7-7.7-8.9c-4.9-3.2-10.7-4.9-16.7-5.7c3.6-4.7,9.8-6.7,15.1-9c6.2-2.7,11.1-7,16.4-11.1
					c5.2-4,10.8-7.7,17.6-8.1C303.2,164.4,310.9,166.2,315,171.3z"/>
				<path class="st0" d="M307.2,158.6c-0.5,1.5-1.6,3-2.5,4.3c-1.8-0.4-3.6-0.6-5.3-0.7c-7.4-0.4-14.1,3.1-19.9,7.4
					c-5.8,4.3-11,9.2-17.7,12.1c-6.2,2.7-12.9,5-16.8,10.9c0,0,0,0,0,0.1c-1.9-0.2-3.9-0.3-5.8-0.4c-0.6,0-1.3-0.1-1.9-0.1
					c4.4-4.8,9.9-8.3,15.4-11.7c6.1-3.8,11.9-7.7,17.4-12.1c5.6-4.5,11.3-9.2,18.1-11.7C294.2,154.5,302.3,153.7,307.2,158.6z"/>
				<path class="st0" d="M284.9,155.1c-5.2,2.3-9.9,5.9-14.3,9.4c-2.9,2.3-5.8,4.7-8.8,6.8c-3.1,2.3-6.5,4.3-9.8,6.3
					c-6.6,4.1-13.4,8.4-18.3,14.5c-4.9,0-9.7,0.4-14.6,0.7c4.3-4.3,9.4-7.8,14.3-11.4c5.7-4.1,10.7-8.7,15.8-13.4
					c5-4.6,10.3-9.1,16.7-11.6C271.9,154.2,278.7,153.7,284.9,155.1z"/>
				<path class="st0" d="M203.4,222.3c-0.3,0-0.6-0.1-0.8-0.1c-1.7-0.2-3.5-0.3-5.2-0.4l-4.4-0.2c-0.1,0-0.6,0.1-0.7,0
					c-2.4-0.1-4.7,0-7.1,0.1l-2.5,0.1c-2.2,0.1-4.4,0.4-6.5,0.7c-9.8,1.4-19.1,4.4-28,8.7c-1.5,0.8-2.9-1.5-1.3-2.3
					c9.9-4.8,20.3-8.1,31.2-9.3c8.3-0.9,16.7-0.7,25.1,0c0.2,0,0.3,0,0.5,0c1.2,0.1,2.5,0.3,3.7,0.4c8.2,1,16.3,2.5,24.5,3.2
					c8.3,0.7,17,0.9,25-1.8c6.2-2.1,15.3-5.1,13.3-13c-1.9-7.6-10.4-9.2-17.3-11.2c-9.2-2.6-18.9-2.8-28.4-2.5
					c-9.5,0.3-18.9-1.5-28.4-1.7c-8.9-0.2-18-3.7-25.8-8.2c-0.1,0-0.2-0.1-0.3-0.2c0,0-0.1-0.1-0.1-0.1c0,0,0,0,0,0
					c0,0-0.1,0-0.1-0.1c-12.9-8.9-26.8-20.3-43.2-20.8c-8.6-0.3-17,2.1-25.4,3.8c-4.1,0.8-8.4,1.7-12.6,1.8c-4.2,0.1-8.4,0-12.6,0
					c-9.8-0.1-19.4,0.5-28.7,4c-8.8,3.4-17.2,7.7-24.9,13.1c-7.7,5.4-14.3,11.9-21.1,18.4c-0.4,0.4-0.9,0.8-1.3,1.2L35.7,259
					c2.1-1.5,4.3-3,6.6-4.2c8.4-4.6,17.4-6.7,26.9-6.6c9.7,0.1,19.4,1.9,28.7,4c10.5,2.4,20.9,5.3,31.3,8
					c10.4,2.7,20.8,5.4,31.4,7.1c10.2,1.7,21.2,2.7,31.4,0.4c0.1,0,0.2,0,0.3,0c9.7-5.8,17.8-13.8,25.7-21.7c4-3.9,8-7.9,12.2-11.6
					c3.2-2.8,6.6-5.8,10.3-8.1c-10.2,0-20.5-2.1-30.6-3.4L203.4,222.3z"/>
				<path class="st0" d="M219.9,187.6c0.1,0,0.1,0,0.2,0v-0.2C220.1,187.5,220,187.6,219.9,187.6z"/>
			</g>
		</g>
		<path id="path14" connector-curvature="0" class="st1" d="M162.5,148.5c-2.8-21.9,6.4-40.6,15.5-52
			c19.8-24.5,18.6-39.2,16.6-51.8C205,60.9,211.5,80.2,213,97.3C213.7,111.4,203.3,144.1,162.5,148.5L162.5,148.5"/>
		<path id="path16" connector-curvature="0" class="st1" d="M202.3,42.2c-7-19.6,13.5-40.7,30.4-41.3
			c10.1,5.1,18.8,18.6,18.4,36.8c-1.3,22.5-17.7,41.8-35.6,59.7C214.5,75.5,209.7,61.7,202.3,42.2L202.3,42.2"/>
		<path id="path18" connector-curvature="0" class="st1" d="M148.2,65.3c-30-8.1-37.4-33.6-36-50.8
			c29.1-11.4,60.4,0.3,78.5,24.7c12.7,17.1,20.6,39,22.2,58.2c-8.7-11.1-19.7-17.6-33.7-22.6C169.7,71.3,160.8,69,148.2,65.3
			L148.2,65.3"/>
		<path id="path20" connector-curvature="0" class="st2" d="M212.9,97.2c-6.4-8.2-14.1-13.9-23.3-18.3
			c7.4-14.6,6.4-25,5-34.3c0.1,0.1,0.2,0.2,0.2,0.4C200.3,52,211.9,77,212.9,97.2"/>
	</g>
</g>
</svg>
