<svg xmlns="http://www.w3.org/2000/svg" viewBox="0 0 119 90"><path d="M89.09 45.6a1.75 1.75 0 00-1.67-1.23h-9.71a1.74 1.74 0 00-1.67 1.23l-11.6 37.83a1.75 1.75 0 001.67 2.25h6.02a1.746 1.746 0 001.69-1.28l2.6-9.33h11.87l2.81 9.37a1.752 1.752 0 001.68 1.24h6.4a1.754 1.754 0 001.67-2.26zM77.76 68.1l4.37-16.74h.12l4.68 16.74h-9.17zM.82 55.07l4.1.97L5 57a35.44 35.44 0 0016.98 27.69A36.1 36.1 0 0040.85 90a35.748 35.748 0 0013.83-2.76 1.055 1.055 0 00.59-.6 1.11 1.11 0 00-.03-.84l-2.98-6.24a1.05 1.05 0 00-.41-.45 1.088 1.088 0 00-.96-.08A26.9 26.9 0 0114.65 60.3l-.48-2.07 3.98.94a.777.777 0 00.16.02c.01 0 .05.01.07.01a1.066 1.066 0 001.04-1.37l-5.11-17.02a1.133 1.133 0 00-.76-.73c-.03 0-.06-.01-.09-.01l-.05-.01a1.086 1.086 0 00-.9.33L.29 53.31a1.044 1.044 0 00-.25 1.04 1.09 1.09 0 00.78.72z" fill-rule="evenodd" fill="#70c1b3"/><path d="M19.82 12.25h26.06c-.73 4.7-3.23 9.69-7.42 14.87a58.152 58.152 0 01-5.37-11.17 1.76 1.76 0 00-1.65-1.16h-4.29a1.748 1.748 0 00-1.41.72 1.718 1.718 0 00-.25 1.55 62.493 62.493 0 007.68 15.82A89.8 89.8 0 0121 42.72a1.735 1.735 0 00-.51 2.37l2.15 3.44a1.766 1.766 0 001.11.77 1.553 1.553 0 00.37.04 1.71 1.71 0 00.96-.28 94 94 0 0012.8-10.22 94.006 94.006 0 009.67 7.89 1.8 1.8 0 001.51.27 1.76 1.76 0 001.14-1.02l1.61-3.91a1.746 1.746 0 00-.7-2.14 41.686 41.686 0 01-8.18-6.55c6.24-7.29 9.8-14.39 10.59-21.12h1.37a1.746 1.746 0 001.75-1.75V5.87a1.743 1.743 0 00-1.75-1.74h-13.6V1.74A1.75 1.75 0 0039.54 0h-4.36a1.743 1.743 0 00-1.75 1.74v2.39H19.82a1.74 1.74 0 00-1.74 1.74v4.64a1.74 1.74 0 001.74 1.74zm46.92 3.18a1.05 1.05 0 00.41.45 1.088 1.088 0 00.96.08 26.9 26.9 0 0136.24 18.73l.48 2.07-3.98-.94a.777.777 0 00-.16-.02c-.01 0-.05-.01-.07-.01a1.066 1.066 0 00-1.04 1.37l5.11 17.02a1.133 1.133 0 00.76.73c.03 0 .06.01.09.01l.05.01a1.086 1.086 0 00.9-.33l12.22-12.92a1.067 1.067 0 00.25-1.04 1.122 1.122 0 00-.78-.73l-4.11-.97-.07-.96A35.423 35.423 0 0097.01 10.3a36.06 36.06 0 00-18.86-5.31 35.748 35.748 0 00-13.83 2.76 1.055 1.055 0 00-.59.6 1.11 1.11 0 00.03.84z" fill="#247ba0" fill-rule="evenodd"/></svg>