<svg xmlns="http://www.w3.org/2000/svg" viewBox="0 0 102 100"><path d="M99.87 69.957l.06-.03-43.5-43.72-.07-20.573L35.33 0l-2.25 2.248 11.2 11.162-10.91 10.926-11.19-11.17-2.24 2.222 5.64 21.02 20.01.077-.13.107 43.79 44 .05-.052a7.48 7.48 0 0010.57-10.583zm-2.83 7.746a3.316 3.316 0 110-4.686 3.3 3.3 0 010 4.683z" data-name="Color Fill 1" fill-rule="evenodd" fill="#70c1b3"/><path d="M9.37 45.3a13.738 13.738 0 0110.47 11.123 13.778 13.778 0 00-3.67 9.47c0 .044.01.074.01.1h23.73v-.1a13.778 13.778 0 00-3.67-9.47A13.76 13.76 0 0146.71 45.3a1.443 1.443 0 00-.51-2.84 16.922 16.922 0 00-12.44 11.933 10.928 10.928 0 00-11.43.01A16.935 16.935 0 009.88 42.467a1.44 1.44 0 00-.51 2.832zm45.37 11.544a1.93 1.93 0 00-2.41 1.266s-2.35 7.57-2.84 9.2c-1.02.275-4.13 1.154-6.28 1.747-.08-.344-.14-.683-.22-1.017h-29.9c-.07.334-.14.673-.22 1.017-2.14-.605-5.26-1.472-6.27-1.747-.51-1.626-2.85-9.2-2.85-9.2a1.915 1.915 0 10-3.66 1.13l3.46 11.19 8.77 2.443a33.05 33.05 0 00-.11 2.463c0 1.02.07 2.038.16 3.03L3.6 82.288.86 97.754a1.927 1.927 0 001.57 2.223 1.907 1.907 0 002.22-1.55s2.08-11.72 2.38-13.47c.84-.382 3.62-1.626 5.99-2.67 2.07 8.85 8.02 15.253 15.03 15.253s12.97-6.394 15.05-15.252c2.35 1.043 5.13 2.287 5.97 2.67.3 1.737 2.38 13.47 2.38 13.47a1.925 1.925 0 003.79-.674L52.5 82.288l-8.76-3.91c.09-.99.15-2.008.15-3.025 0-.837-.05-1.66-.11-2.472l8.77-2.435 3.47-11.2a1.942 1.942 0 00-1.28-2.4z" fill="#247ba0" fill-rule="evenodd"/></svg>