<svg xmlns="http://www.w3.org/2000/svg" viewBox="0 0 98.031 100.03">
  <defs>
    <style>
      .cls-1 { fill: #ff1654; fill-rule: evenodd; }
    </style>
  </defs>
  <path id="ico_review_code" d="M17.142 22.66a6.266 6.266 0 0 1-1.447.94v.96a6.1 6.1 0 0 0 1.04-.51 5.37 5.37 0 0 0 .93-.68v6.3h.986v-8.09h-.63a3.777 3.777 0 0 1-.87 1.08zm8.592-.07a2.13 2.13 0 0 0-.8-.75 2.31 2.31 0 0 0-1.132-.26 2.207 2.207 0 0 0-1.46.47 2.89 2.89 0 0 0-.868 1.34 7.548 7.548 0 0 0-.29 2.31 5.33 5.33 0 0 0 .79 3.27 2.427 2.427 0 0 0 3.286.36 2.84 2.84 0 0 0 .867-1.34 7.416 7.416 0 0 0 .294-2.29 8.035 8.035 0 0 0-.18-1.91 3.944 3.944 0 0 0-.5-1.2zm-.8 5.75a1.32 1.32 0 0 1-2.286 0 5.077 5.077 0 0 1-.46-2.64 5.147 5.147 0 0 1 .507-2.72 1.257 1.257 0 0 1 1.086-.58 1.36 1.36 0 0 1 1.16.65 7.755 7.755 0 0 1 .01 5.29zm7.04-5.75a2.132 2.132 0 0 0-.807-.75 2.316 2.316 0 0 0-1.135-.26 2.188 2.188 0 0 0-1.454.47 2.886 2.886 0 0 0-.872 1.34 7.47 7.47 0 0 0-.293 2.31 5.306 5.306 0 0 0 .795 3.27 2.423 2.423 0 0 0 3.282.36 2.86 2.86 0 0 0 .87-1.34 7.434 7.434 0 0 0 .288-2.29 7.955 7.955 0 0 0-.18-1.91 4.045 4.045 0 0 0-.49-1.2zm-.8 5.75a1.32 1.32 0 0 1-2.287 0 5.067 5.067 0 0 1-.46-2.64 5.13 5.13 0 0 1 .506-2.72 1.258 1.258 0 0 1 1.087-.58 1.36 1.36 0 0 1 1.153.65 5.05 5.05 0 0 1 .465 2.65 4.984 4.984 0 0 1-.463 2.64zm7.043-5.75a2.18 2.18 0 0 0-.807-.75 2.31 2.31 0 0 0-1.135-.26 2.193 2.193 0 0 0-1.454.47 2.886 2.886 0 0 0-.87 1.34 7.48 7.48 0 0 0-.29 2.31 5.314 5.314 0 0 0 .8 3.27 2.427 2.427 0 0 0 3.29.36 2.86 2.86 0 0 0 .87-1.34 7.427 7.427 0 0 0 .29-2.29 8.166 8.166 0 0 0-.18-1.91 4.33 4.33 0 0 0-.49-1.2zm-.8 5.75a1.322 1.322 0 0 1-2.29 0 7.66 7.66 0 0 1 .05-5.36 1.254 1.254 0 0 1 1.084-.58 1.363 1.363 0 0 1 1.16.65 7.8 7.8 0 0 1 0 5.29zm5.21-4.98v6.31h.987v-8.09h-.636a3.864 3.864 0 0 1-.876 1.08 6.245 6.245 0 0 1-1.447.94v.96a6.07 6.07 0 0 0 1.04-.51 5.218 5.218 0 0 0 .936-.69zm4.882-.7a6.353 6.353 0 0 1-1.45.94v.96a6.057 6.057 0 0 0 1.04-.51 5.42 5.42 0 0 0 .93-.68v6.3h.99v-8.09h-.64a3.864 3.864 0 0 1-.88 1.08zm8.59-.07a2.154 2.154 0 0 0-.81-.75 2.3 2.3 0 0 0-1.13-.26 2.188 2.188 0 0 0-1.46.47 2.844 2.844 0 0 0-.88 1.34 7.54 7.54 0 0 0-.29 2.31 5.328 5.328 0 0 0 .79 3.27 2.424 2.424 0 0 0 3.28.36 2.847 2.847 0 0 0 .87-1.34 7.386 7.386 0 0 0 .29-2.29 8.06 8.06 0 0 0-.18-1.91 4.074 4.074 0 0 0-.5-1.2zm-.8 5.75a1.318 1.318 0 0 1-2.29 0 7.6 7.6 0 0 1 .05-5.36 1.255 1.255 0 0 1 1.08-.58 1.357 1.357 0 0 1 1.15.65 7.74 7.74 0 0 1 0 5.29zm-38.17 7.83a5.984 5.984 0 0 1-1.45.95v.95a6.1 6.1 0 0 0 1.04-.51 4.9 4.9 0 0 0 .93-.68v6.31h.98v-8.1H18a3.648 3.648 0 0 1-.865 1.08zm8.59-.06a2.24 2.24 0 0 0-.8-.76 2.426 2.426 0 0 0-1.13-.26 2.212 2.212 0 0 0-1.46.48 2.827 2.827 0 0 0-.87 1.34 7.522 7.522 0 0 0-.29 2.3 5.343 5.343 0 0 0 .79 3.28 2.427 2.427 0 0 0 3.28.36 2.874 2.874 0 0 0 .86-1.35 7.42 7.42 0 0 0 .29-2.29 7.95 7.95 0 0 0-.18-1.9 3.793 3.793 0 0 0-.5-1.2zm-.8 5.74a1.32 1.32 0 0 1-2.29 0 5.077 5.077 0 0 1-.46-2.64 5.214 5.214 0 0 1 .5-2.73 1.27 1.27 0 0 1 1.08-.57 1.383 1.383 0 0 1 1.15.65 5.03 5.03 0 0 1 .464 2.64 5.116 5.116 0 0 1-.455 2.65zm6.2 1.34v-8.1h-.64a3.68 3.68 0 0 1-.88 1.08 5.946 5.946 0 0 1-1.45.95v.95a5.97 5.97 0 0 0 1.03-.51 5.025 5.025 0 0 0 .93-.68v6.31h.99zm4.42-6.31v6.31h.98v-8.1h-.64a3.647 3.647 0 0 1-.88 1.08 5.946 5.946 0 0 1-1.45.95v.96a7.1 7.1 0 0 0 1.03-.52 4.58 4.58 0 0 0 .94-.68zm8.07-.77a2.223 2.223 0 0 0-.8-.76 2.426 2.426 0 0 0-1.13-.26 2.193 2.193 0 0 0-1.46.48 2.83 2.83 0 0 0-.88 1.34 7.453 7.453 0 0 0-.29 2.3 5.328 5.328 0 0 0 .79 3.28 2.427 2.427 0 0 0 3.28.36A2.89 2.89 0 0 0 44 41.5a7.427 7.427 0 0 0 .29-2.29 7.848 7.848 0 0 0-.18-1.9 3.89 3.89 0 0 0-.496-1.2zm-.8 5.74a1.32 1.32 0 0 1-2.29 0 5.067 5.067 0 0 1-.46-2.64 5.192 5.192 0 0 1 .51-2.73 1.27 1.27 0 0 1 1.08-.57 1.384 1.384 0 0 1 1.15.65 7.8 7.8 0 0 1 .01 5.29zm4.68-5.68a6.063 6.063 0 0 1-1.45.95v.95a6.057 6.057 0 0 0 1.04-.51 4.938 4.938 0 0 0 .93-.68v6.31H49v-8.1h-.635a3.73 3.73 0 0 1-.866 1.08zm8.59-.06a2.267 2.267 0 0 0-.81-.76 2.41 2.41 0 0 0-1.13-.26 2.193 2.193 0 0 0-1.46.48 2.857 2.857 0 0 0-.88 1.34 7.545 7.545 0 0 0-.29 2.3 5.34 5.34 0 0 0 .79 3.28 2.424 2.424 0 0 0 3.28.36 2.88 2.88 0 0 0 .87-1.35 7.416 7.416 0 0 0 .292-2.29 7.96 7.96 0 0 0-.18-1.9 3.888 3.888 0 0 0-.485-1.2zm-.8 5.74a1.318 1.318 0 0 1-2.29 0 5.09 5.09 0 0 1-.47-2.64 5.162 5.162 0 0 1 .51-2.73 1.27 1.27 0 0 1 1.084-.57 1.38 1.38 0 0 1 1.15.65 7.74 7.74 0 0 1 .014 5.29zm4.68-5.68a6.1 6.1 0 0 1-1.45.95v.95a6.166 6.166 0 0 0 1.04-.51 4.94 4.94 0 0 0 .93-.68v6.31h.98v-8.1h-.64a3.62 3.62 0 0 1-.86 1.08zM17.12 49.69a6.266 6.266 0 0 1-1.446.94v.96a7.116 7.116 0 0 0 1.04-.52 4.9 4.9 0 0 0 .93-.68v6.31h.99v-8.09H18a3.777 3.777 0 0 1-.858 1.08zm8.593-.07a2.13 2.13 0 0 0-.8-.75 2.426 2.426 0 0 0-1.134-.26 2.212 2.212 0 0 0-1.46.48 2.827 2.827 0 0 0-.87 1.34 7.477 7.477 0 0 0-.29 2.3 5.363 5.363 0 0 0 .79 3.28 2.2 2.2 0 0 0 1.83.83 2.25 2.25 0 0 0 1.45-.47 2.874 2.874 0 0 0 .86-1.35 7.42 7.42 0 0 0 .29-2.29 7.893 7.893 0 0 0-.186-1.9 3.854 3.854 0 0 0-.49-1.21zm-.8 5.74a1.325 1.325 0 0 1-2.288.01 5.053 5.053 0 0 1-.46-2.64 5.19 5.19 0 0 1 .51-2.73 1.27 1.27 0 0 1 1.085-.57 1.36 1.36 0 0 1 1.154.65 7.727 7.727 0 0 1 .012 5.28zm7.037-5.74a2.132 2.132 0 0 0-.805-.75 2.432 2.432 0 0 0-1.135-.26 2.193 2.193 0 0 0-1.453.48 2.836 2.836 0 0 0-.87 1.34 7.4 7.4 0 0 0-.29 2.3 5.34 5.34 0 0 0 .795 3.28 2.185 2.185 0 0 0 1.826.83 2.253 2.253 0 0 0 1.456-.47 2.892 2.892 0 0 0 .87-1.35 7.434 7.434 0 0 0 .286-2.29 7.808 7.808 0 0 0-.18-1.9 4 4 0 0 0-.476-1.21zm-.8 5.74a1.325 1.325 0 0 1-2.285.01 5.042 5.042 0 0 1-.46-2.64A5.17 5.17 0 0 1 28.91 50a1.27 1.27 0 0 1 1.09-.57 1.36 1.36 0 0 1 1.154.65 5.05 5.05 0 0 1 .465 2.65 4.937 4.937 0 0 1-.45 2.63zm7.045-5.74a2.18 2.18 0 0 0-.807-.75 2.424 2.424 0 0 0-1.135-.26 2.2 2.2 0 0 0-1.455.48 2.836 2.836 0 0 0-.87 1.34 7.41 7.41 0 0 0-.29 2.3 5.348 5.348 0 0 0 .793 3.28 2.19 2.19 0 0 0 1.83.83 2.258 2.258 0 0 0 1.46-.47 2.892 2.892 0 0 0 .87-1.35 7.427 7.427 0 0 0 .29-2.29 8.014 8.014 0 0 0-.18-1.9 4.273 4.273 0 0 0-.48-1.21zm-.8 5.74a1.327 1.327 0 0 1-2.29.01 5.073 5.073 0 0 1-.46-2.64 5.165 5.165 0 0 1 .51-2.73 1.268 1.268 0 0 1 1.084-.57 1.363 1.363 0 0 1 1.15.65 5.088 5.088 0 0 1 .46 2.65 5 5 0 0 1-.45 2.63zm4.683-5.67a6.245 6.245 0 0 1-1.447.94v.96a7.116 7.116 0 0 0 1.04-.52 5.163 5.163 0 0 0 .94-.68v6.31h.99v-8.09h-.64a3.84 3.84 0 0 1-.86 1.08zm5.41 0a6.353 6.353 0 0 1-1.448.94v.96a7.055 7.055 0 0 0 1.038-.52 4.938 4.938 0 0 0 .934-.68v6.31h.99v-8.09h-.637a3.864 3.864 0 0 1-.86 1.08zm8.59-.07a2.154 2.154 0 0 0-.808-.75 2.41 2.41 0 0 0-1.132-.26 2.193 2.193 0 0 0-1.452.48 2.82 2.82 0 0 0-.873 1.34 7.5 7.5 0 0 0-.29 2.3 5.36 5.36 0 0 0 .792 3.28 2.194 2.194 0 0 0 1.83.83 2.24 2.24 0 0 0 1.45-.47 2.88 2.88 0 0 0 .87-1.35 7.416 7.416 0 0 0 .296-2.29 7.9 7.9 0 0 0-.18-1.9 3.95 3.95 0 0 0-.48-1.21zm-.8 5.74a1.368 1.368 0 0 1-1.14.66 1.354 1.354 0 0 1-1.14-.65 5.064 5.064 0 0 1-.465-2.64A5.138 5.138 0 0 1 53.05 50a1.27 1.27 0 0 1 1.087-.57 1.357 1.357 0 0 1 1.15.65 5.07 5.07 0 0 1 .466 2.65 4.982 4.982 0 0 1-.445 2.63zm18.327-18.4A36.818 36.818 0 1 0 36.79 73.92a36.92 36.92 0 0 0 36.84-36.96zM12.45 24a5.183 5.183 0 0 1 .45 2.62 5.034 5.034 0 0 1-.464 2.64 1.366 1.366 0 0 1-1.142.66 1.3 1.3 0 0 1-1-.52A27.6 27.6 0 0 1 12.47 24zm48.395 25.53a3.663 3.663 0 0 1-.876 1.08 6.1 6.1 0 0 1-1.45.95v.95a6.166 6.166 0 0 0 1.04-.51 5.143 5.143 0 0 0 .63-.46 27.46 27.46 0 0 1-46.39.67c-.03-.16-.04-.33-.08-.46a4.182 4.182 0 0 0-.5-1.2 2.134 2.134 0 0 0-.81-.75c-.02-.01-.04-.01-.05-.02a27.56 27.56 0 0 1-2.53-6.99 2.217 2.217 0 0 0 1.44.53 2.19 2.19 0 0 0 1.45-.47 2.874 2.874 0 0 0 .87-1.35 7.434 7.434 0 0 0 .29-2.29 7.805 7.805 0 0 0-.19-1.9 4.065 4.065 0 0 0-.5-1.2 2.253 2.253 0 0 0-.808-.76 2.418 2.418 0 0 0-1.136-.26 2.2 2.2 0 0 0-1.454.48 2.448 2.448 0 0 0-.58.73 27.546 27.546 0 0 1 .79-5.94 2.31 2.31 0 0 0 1.245.38 2.195 2.195 0 0 0 1.46-.48 2.874 2.874 0 0 0 .872-1.35 7.39 7.39 0 0 0 .29-2.29 7.805 7.805 0 0 0-.185-1.9 4.374 4.374 0 0 0-.5-1.21 1.933 1.933 0 0 0-.33-.3 27.447 27.447 0 0 1 47.304-.8c-.08.08-.143.16-.24.24a6 6 0 0 1-1.447.95v.96a7.217 7.217 0 0 0 1.04-.52 4.517 4.517 0 0 0 .922-.68v6.31h.985v-4.98a27.532 27.532 0 0 1 2.895 12.27c0 .27-.035.54-.045.81-.01.03-.024.04-.035.07a7.52 7.52 0 0 0-.29 2.3c0 .3.02.58.04.85a27.483 27.483 0 0 1-2.713 8.55h-.48v-.01h.003zM9.688 39.21a5.13 5.13 0 0 1 .506-2.72 1.253 1.253 0 0 1 1.086-.58 1.382 1.382 0 0 1 1.154.65 7.755 7.755 0 0 1 0 5.29 1.318 1.318 0 0 1-2.284 0 5.037 5.037 0 0 1-.44-2.64zm51.91 32.42l8.138-8.17L98.02 91.85l-8.14 8.17z" class="cls-1"/>
</svg>
