<svg xmlns="http://www.w3.org/2000/svg" viewBox="0 0 89 100.031"><path d="M88.994 73.953L81.33 67.48v4.61H54.17V50.1h4.507v10.587h9.678V65.3l7.664-5.866-7.666-6.477v4.608H61.72V50.1h9.6a16.226 16.226 0 100-32.446h-.067c.042-.477.07-.956.07-1.442A16.373 16.373 0 0054.81-.013 16.55 16.55 0 0040.42 8.26a16.725 16.725 0 00-6.134-1.17 16.492 16.492 0 00-15.48 10.615c-.375-.025-.747-.055-1.13-.055a16.226 16.226 0 100 32.446h9.6v7.463h-6.64v-4.61l-7.656 6.48 7.66 5.866v-4.61h9.68V50.1h4.507v21.992H7.66v-4.61L0 73.952l7.66 5.87v-4.61h30.21V50.1h5.04v42.4h-4.693l6.277 7.53 6.28-7.53h-4.69V50.1h5.038v25.107h30.206v4.608z" fill="#ff1654" fill-rule="evenodd"/></svg>