<svg xmlns="http://www.w3.org/2000/svg" viewBox="0 0 95 90.03"><path d="M31.75 74.47H14.07a6.09 6.09 0 01-6.17-6.01v-54.6a6.066 6.066 0 016.17-5.99h42.79a6.03 6.03 0 016.13 5.99v45.75l7.9-9.36V8.01A7.95 7.95 0 0062.95 0H7.67A7.663 7.663 0 000 7.69v66.83a8 8 0 008 8.02h31.04l-3.67-3.17a14.017 14.017 0 01-3.62-4.9zm21.82-56.51H18.08a3.935 3.935 0 000 7.87h35.48a3.935 3.935 0 00.01-7.87zm0 13.12H18.08a3.935 3.935 0 000 7.87h35.48a3.935 3.935 0 00.01-7.87zm0 13.12H18.08a3.83 3.83 0 100 7.66h35.48a3.83 3.83 0 10.01-7.66zM14.14 60.54a3.85 3.85 0 003.94 3.83h13.24a15.566 15.566 0 012.57-4.41 13.927 13.927 0 014.23-3.26H18.08a3.87 3.87 0 00-3.94 3.84zm39.43-3.83h-2.96a10.892 10.892 0 012.74 1.82l3.93 3.35a3.66 3.66 0 00.23-1.3 3.9 3.9 0 00-3.94-3.87zm39.02-10.52a6.907 6.907 0 00-9.73.78L60.2 73.44l-11.33-9.7a6.942 6.942 0 00-9.74.74 6.868 6.868 0 00.75 9.7l16.58 14.18a6.95 6.95 0 004.49 1.67 5.068 5.068 0 00.55-.03 6.905 6.905 0 004.71-2.39l27.17-31.73a6.86 6.86 0 00-.79-9.69z" fill="#70c1b3" fill-rule="evenodd"/></svg>