<svg xmlns="http://www.w3.org/2000/svg" viewBox="0 0 78 80"><path d="M13.034 3.975A19.11 19.11 0 0127.6 19.435a19.132 19.132 0 00-5.11 13.162c0 .06.01.1.01.132h33.015v-.13a19.155 19.155 0 00-5.1-13.165A19.122 19.122 0 0164.97 3.975 2.006 2.006 0 0064.26.03c-.14.03-13.494 2.606-17.31 16.586a15.213 15.213 0 00-15.9.012C27.226 2.636 13.89.072 13.74.042a2 2 0 00-.706 3.933zm63.1 16.044a2.677 2.677 0 00-3.343 1.756s-3.262 10.52-3.955 12.78c-1.415.383-5.743 1.606-8.728 2.43-.113-.478-.2-.95-.31-1.415H18.2c-.1.467-.2.938-.3 1.415-2.984-.84-7.32-2.046-8.727-2.428L5.21 21.77a2.664 2.664 0 00-5.093 1.57l4.817 15.553 12.2 3.394c-.078 1.12-.15 2.26-.15 3.423 0 1.42.09 2.832.216 4.21L5.01 55.37 1.2 76.87a2.67 2.67 0 005.26.938s2.9-16.287 3.313-18.72c1.176-.532 5.032-2.26 8.328-3.71 2.886 12.3 11.16 21.2 20.915 21.2s18.035-8.886 20.925-21.2c3.276 1.45 7.14 3.178 8.315 3.71.412 2.415 3.307 18.72 3.307 18.72a2.674 2.674 0 005.267-.936L73.01 55.38l-12.178-5.434c.125-1.378.21-2.79.21-4.2 0-1.163-.073-2.31-.15-3.436l12.19-3.387 4.824-15.56a2.69 2.69 0 00-1.778-3.344z" fill="#247ba0" fill-rule="evenodd"/></svg>