<svg xmlns="http://www.w3.org/2000/svg" viewBox="0 0 95 90">
  <defs>
    <style>
      .cls-1 { fill: #ff1654; fill-rule: evenodd; }
    </style>
  </defs>
  <path id="ico_improve" d="M94.3 81.17l-41.437-78A5.957 5.957 0 0 0 47.6 0h-.006a5.963 5.963 0 0 0-5.26 3.17L.71 81.17A6 6 0 0 0 5.972 90h83.054a5.947 5.947 0 0 0 5.124-2.92 6.022 6.022 0 0 0 .15-5.91zM47.592 78a6 6 0 1 1 5.973-6 5.99 5.99 0 0 1-5.973 6zm5.98-23.9a5.973 5.973 0 1 1-11.946 0v-24a5.973 5.973 0 1 1 11.945 0v24z" class="cls-1"/>
</svg>
