<svg xmlns="http://www.w3.org/2000/svg" viewBox="0 0 226 246">
  <defs>
    <style>
      .cls-1 { fill: none; stroke: #d1d1d1; stroke-width: 2px; fill-rule: evenodd; }
    </style>
  </defs>
  <path id="license_ill" d="M113 148.55c41.58 0 75.28-33.03 75.28-73.77S154.58 1 113 1 37.73 34.04 37.73 74.8s33.7 73.77 75.27 73.77zm63.55-6.35c-.08.08-29.04 25.98-69.47 22.32l50.28 78.9a3.85 3.85 0 0 0 3.28 1.57h.27a3.65 3.65 0 0 0 3.23-1.98l12.68-30.2a3.28 3.28 0 0 1 1.86-1.67 4.84 4.84 0 0 1 1.62-.28 4.7 4.7 0 0 1 1.23.15l38.6 10.52a4.75 4.75 0 0 0 1.25.16 4.18 4.18 0 0 0 2.73-.94 2.35 2.35 0 0 0 .55-3.13zm-126.87.14c-.06-.05-.15-.1-.23-.14L1.38 217.6a2.37 2.37 0 0 0 .56 3.15 4.23 4.23 0 0 0 2.75.95 4.47 4.47 0 0 0 1.2-.15l38.6-10.53a4.85 4.85 0 0 1 2.84.13 3.28 3.28 0 0 1 1.86 1.68l12.7 30.2a3.63 3.63 0 0 0 3.2 1.94h.26a3.9 3.9 0 0 0 3.3-1.56l32.66-51.25-20.9-32.77c-.07-.03-18.28-5.7-30.74-17.03z" class="cls-1"/>
</svg>
