<svg xmlns="http://www.w3.org/2000/svg" viewBox="0 0 500.49 266.44"><defs><style>.a{fill:gray;}.b{fill:#4d4d4d;}.c{fill:#fedfa5;}.d{fill:#3d7a9c;}.e{font-size:50.58px;}.e,.g,.n{fill:#fff;}.e,.n{font-family:Arial;font-weight:700;}.f{fill:none;stroke:#fff;stroke-miterlimit:10;stroke-width:2px;}.h{fill:#ff7300;}.i{fill:#d1881d;}.j{fill:#f3ad42;}.k{fill:#e5e4e3;}.l{fill:#ff1654;}.m{fill:#ee7c98;}.n{font-size:34.38px;}</style></defs><title>issues_secret</title><path class="a" d="M376.39,237a10.83,10.83,0,0,1-3.18,7.21c-11.6-12.91-53.77-22.48-104-22.48s-92.37,9.57-104,22.48a10.83,10.83,0,0,1-3.18-7.21c0-16.38,48-29.68,107.15-29.68S376.39,220.66,376.39,237Z" transform="translate(0 -7.78)"/><path class="b" d="M373.21,244.25c-9.49,10.52-39.29,18.83-77.21,21.51-8.57.62-17.53,0.94-26.78,0.94-5.25,0-10.41-.1-15.45-0.31-43.23-1.73-78.11-10.59-88.52-22.14,10.26-11.41,44.39-20.22,86.84-22.1,5.57-.25,11.3-0.38,17.13-0.38q7.58,0,14.88.3C327.6,223.72,362.77,232.63,373.21,244.25Z" transform="translate(0 -7.78)"/><path class="c" d="M296,265.76c-8.57.62-17.53,0.94-26.78,0.94-5.25,0-10.41-.1-15.45-0.31-1.32-9.82-1.54-31.25-1.68-44.25-0.06-5.47-.1-9.44-0.2-10.41-0.39-3.92-3.09-13.83-3.57-20s4.9-18.88,6.73-24.18,2.65-16.07,1.9-19.35a68.26,68.26,0,0,1-1.9-14.05c0-5.06,4.7-7.83,10.54-7.83,5.12,0,6.52,15.2,7.7,22.1S284,165.9,286.18,178.11s-5,20.26-5,28.78c0,2.5,1.18,8.21,2.88,15.18C287.86,237.48,294.19,259.06,296,265.76Z" transform="translate(0 -7.78)"/><rect class="a" x="246.53" y="86.32" width="19.39" height="158.77" rx="5.2" ry="5.2" transform="translate(532.12 288.26) rotate(172.4)"/><rect class="d" x="147.05" y="20.15" width="192.13" height="79.01" transform="translate(-5.75 24.91) rotate(-7.6)"/><text class="e" transform="matrix(0.99, -0.13, 0.13, 0.99, 170.46, 79.06)">ISSUE</text><line class="f" x1="153.08" y1="103.74" x2="343.52" y2="78.32"/><path class="c" d="M252.46,210.71c-3.66,0-5.79-3.48-6-6.92a7.17,7.17,0,0,1,1.66-5.3H248a8.63,8.63,0,0,1-.94.05,6.2,6.2,0,0,1-6.41-5.77,6,6,0,0,1,2.29-5.2c-2.51-.47-4.25-2.62-4.73-5.95a6.13,6.13,0,0,1,4.68-7.2,6.37,6.37,0,0,1-3.75-5.1c-0.35-2.76,1-6.47,6-7.82a112.93,112.93,0,0,1,22.68-4.32c0.25,0,.5,0,0.74,0,4.16,0,6.53,3.42,6.72,6.8a6.72,6.72,0,0,1-2,5.36l0.67,0c4.66,0,7,3.25,7.24,6.27s-1.51,6.15-5.78,7.08a5.83,5.83,0,0,1,3.17,4.67A6.45,6.45,0,0,1,274,194a6.16,6.16,0,0,1,3.88,4.78c0.5,3.46-2.19,7.32-5.75,8.25a110.87,110.87,0,0,1-19,3.61A5.77,5.77,0,0,1,252.46,210.71Z" transform="translate(0 -7.78)"/><path class="g" d="M281.7,175.54c-0.3-4.22-3.74-6.54-7.18-6.79a7.65,7.65,0,0,0,1.29-4.81c-0.21-3.65-2.78-7.35-7.29-7.36q-0.39,0-.79,0A113.36,113.36,0,0,0,245,161c-5,1.36-6.79,5.23-6.38,8.47a6.9,6.9,0,0,0,2.88,4.89,6.69,6.69,0,0,0-3.81,7.42c0.46,3.13,2,5.3,4.16,6.15a6.3,6.3,0,0,0-1.72,5,6.76,6.76,0,0,0,6.83,6.31,8.37,8.37,0,0,0-1,4.68c0.22,3.71,2.55,7.47,6.56,7.47a6.41,6.41,0,0,0,.7,0,111.34,111.34,0,0,0,19.07-3.62,8.44,8.44,0,0,0,6.17-8.9,6.65,6.65,0,0,0-3.07-4.65,7,7,0,0,0,3.76-6.82,6.53,6.53,0,0,0-2.33-4.41A7.14,7.14,0,0,0,281.7,175.54Zm-7.08,6.66-0.16,0c-1.89.26-5.75,0.77-9.63,1.18-5.44.59-10.84,1.42-10.84,1.42v0.1s5.44-.56,10.89-0.88c4.4-.25,8.8-0.62,10.33-0.76,3.77,2,3.85,8-.95,10l-2.33.65h0l-1.67.34a6.24,6.24,0,0,1,.75-0.1c-1.5.39-3.29,0.82-5.11,1.2-2.22.46-4.45,0.93-6.11,1.33l-2.76.67,2.8-.49c1.68-.29,3.92-0.61,6.18-0.93s4.5-.72,6.18-1.06l1.53-.32a5.6,5.6,0,0,1,3.59,4.33,7.33,7.33,0,0,1-5.32,7.59A110.59,110.59,0,0,1,253,210.09a5.32,5.32,0,0,1-.58,0c-6.29,0-7.71-11.75-1.13-12.6-1.35.17-2,.26-3.38,0.4a8.09,8.09,0,0,1-.88,0c-7.11,0-8.23-10-.65-11.15l-1.47.22a6.18,6.18,0,0,1-.9.07c-2.57,0-4.7-1.73-5.26-5.55a5.55,5.55,0,0,1,4.46-6.59l3.72-.78a7.46,7.46,0,0,1-1.52.16c-6.69,0-8.58-10-.19-12.25a112.52,112.52,0,0,1,22.59-4.3q0.35,0,.69,0c5.92,0,7.95,7.63,4.44,11l-3.09.42c-2,.29-4.69.76-7.34,1.34l-7.26,1.61-3.31.68v0l3.34-.51,7.33-1.23c2.66-.44,5.33-0.76,7.34-0.94,0.15,0,1.56-.1,2.82-0.23l0.21,0c0.3,0,.6,0,0.89,0C282,169.9,283.28,180.86,274.63,182.2Z" transform="translate(0 -7.78)"/><polygon class="h" points="0.01 260.04 0.33 260.55 0.33 255.56 0 255.06 0.01 260.04"/><polygon class="i" points="109.72 251.09 140.35 253.03 141.49 253.5 84.93 261.22 79.15 261.31 0.33 255.56 0 255.06 32.6 251.39 109.72 251.09"/><polygon class="j" points="84.93 261.22 79.15 261.31 79.15 261.31 0.33 255.56 0.33 260.55 79.15 266.44 84.93 266.35 141.49 258.45 141.49 253.5 84.93 261.22"/><path class="k" d="M51.69,174.47l6.52-28.71c0.49,0,1.75.09,3.53,0.12,1.46,0,3.28,0,5.32.06H74.4c2.55,0,4.81,0,6.54-.07s2.84-.07,3.31-0.12l6.52,28.71c-0.76.13-2.61,0.25-5.18,0.35s-6,.16-9.73.2l-4.63,0c-2.15,0-4.22,0-6.16,0-3.24,0-6.1-.1-8.38-0.19C54.21,174.72,52.44,174.6,51.69,174.47Z" transform="translate(0 -7.78)"/><path class="k" d="M38.44,232.79L45.21,203c0.36,0.32,2.72.62,6.41,0.85,3,0.19,7,.33,11.43.41,2.57,0,5.31.07,8.17,0.07q3.16,0,6.1,0c5-.07,9.5-0.21,12.92-0.41,4-.24,6.62-0.54,7-0.88L104,232.79c-0.61.33-3.93,0.64-9,.87-4.32.2-9.91,0.34-16.21,0.4q-3.67,0-7.6,0c-3.58,0-7,0-10.23-.07-5.71-.08-10.73-0.23-14.58-0.42C41.93,233.39,39,233.11,38.44,232.79Z" transform="translate(0 -7.78)"/><path class="j" d="M77.54,116.27l6.7,29.49c-0.47,0-1.65.09-3.31,0.12s-4,.06-6.54.07H67.07c-2,0-3.86,0-5.32-.06-1.78,0-3-.07-3.53-0.12l6.7-29.49a5.93,5.93,0,0,1,2-.26c0.62,0,1.36-.06,2.17-0.07l2.1,0h1.66c1.3,0,2.43.06,3.25,0.12A3.54,3.54,0,0,1,77.54,116.27Z" transform="translate(0 -7.78)"/><path class="j" d="M90.77,174.47L97.24,203c-0.37.34-3,.65-7,0.88-3.42.2-7.88,0.34-12.92,0.41q-2.94,0-6.1,0c-2.86,0-5.6,0-8.17-.07-4.47-.08-8.4-0.23-11.43-0.41-3.69-.23-6-0.52-6.41-0.85l6.48-28.51c0.75,0.13,2.52.25,5,.34,2.27,0.09,5.14.15,8.38,0.19,1.94,0,4,0,6.16,0l4.63,0c3.77,0,7.13-.1,9.73-0.2S90,174.6,90.77,174.47Z" transform="translate(0 -7.78)"/><path class="j" d="M104,232.79l6.54,28.79c0,0.72-4.08,1.37-10.73,1.86-5.17.38-11.9,0.65-19.48,0.78-2.93,0-6,.07-9.12.07-4.3,0-8.43,0-12.3-.14-7-.16-13.07-0.45-17.7-0.82-5.82-.47-9.33-1.08-9.33-1.75l6.54-28.79c0.57,0.31,3.49.6,8,.82,3.85,0.19,8.88.34,14.58,0.42,3.22,0,6.65.07,10.23,0.07q3.93,0,7.6,0c6.3-.06,11.89-0.21,16.21-0.4C100.09,233.43,103.41,233.13,104,232.79Z" transform="translate(0 -7.78)"/><path class="j" d="M104,232.79l6.54,28.79c0,0.72-4.08,1.37-10.73,1.86-5.17.38-11.9,0.65-19.48,0.78-2.93,0-6,.07-9.12.07-4.3,0-8.43,0-12.3-.14-7-.16-13.07-0.45-17.7-0.82-5.82-.47-9.33-1.08-9.33-1.75l6.54-28.79c0.57,0.31,3.49.6,8,.82,3.85,0.19,8.88.34,14.58,0.42,3.22,0,6.65.07,10.23,0.07q3.93,0,7.6,0c6.3-.06,11.89-0.21,16.21-0.4C100.09,233.43,103.41,233.13,104,232.79Z" transform="translate(0 -7.78)"/><polygon class="i" points="468.72 251.09 499.35 253.03 500.49 253.5 443.93 261.22 438.15 261.31 359.33 255.56 359 255.06 391.6 251.39 468.72 251.09"/><polygon class="j" points="443.93 261.22 438.15 261.31 438.15 261.31 359.33 255.56 359.33 260.55 438.15 266.44 443.93 266.35 500.49 258.45 500.49 253.5 443.93 261.22"/><path class="k" d="M410.69,174.47l6.52-28.71c0.49,0,1.75.09,3.53,0.12,1.46,0,3.28,0,5.32.06h7.33c2.55,0,4.81,0,6.54-.07s2.84-.07,3.31-0.12l6.52,28.71c-0.76.13-2.61,0.25-5.18,0.35s-6,.16-9.73.2l-4.63,0c-2.15,0-4.22,0-6.16,0-3.24,0-6.1-.1-8.38-0.19C413.21,174.72,411.44,174.6,410.69,174.47Z" transform="translate(0 -7.78)"/><path class="k" d="M397.44,232.79L404.21,203c0.36,0.32,2.72.62,6.41,0.85,3,0.19,7,.33,11.43.41,2.57,0,5.31.07,8.17,0.07q3.16,0,6.1,0c5-.07,9.5-0.21,12.92-0.41,4-.24,6.62-0.54,7-0.88L463,232.79c-0.61.33-3.93,0.64-9,.87-4.32.2-9.91,0.34-16.21,0.4q-3.67,0-7.6,0c-3.58,0-7,0-10.23-.07-5.71-.08-10.73-0.23-14.58-0.42C400.93,233.39,398,233.11,397.44,232.79Z" transform="translate(0 -7.78)"/><path class="j" d="M436.54,116.27l6.7,29.49c-0.47,0-1.65.09-3.31,0.12s-4,.06-6.54.07h-7.33c-2,0-3.86,0-5.32-.06-1.78,0-3-.07-3.53-0.12l6.7-29.49a5.93,5.93,0,0,1,2-.26c0.62,0,1.36-.06,2.17-0.07l2.1,0h1.66c1.3,0,2.43.06,3.25,0.12A3.54,3.54,0,0,1,436.54,116.27Z" transform="translate(0 -7.78)"/><path class="j" d="M449.77,174.47L456.24,203c-0.37.34-3,.65-7,0.88-3.42.2-7.88,0.34-12.92,0.41q-2.94,0-6.1,0c-2.86,0-5.6,0-8.17-.07-4.47-.08-8.4-0.23-11.43-0.41-3.69-.23-6-0.52-6.41-0.85l6.48-28.51c0.75,0.13,2.52.25,5,.34,2.27,0.09,5.14.15,8.38,0.19,1.94,0,4,0,6.16,0l4.63,0c3.77,0,7.13-.1,9.73-0.2S449,174.6,449.77,174.47Z" transform="translate(0 -7.78)"/><path class="j" d="M463,232.79l6.54,28.79c0,0.72-4.08,1.37-10.73,1.86-5.17.38-11.9,0.65-19.48,0.78-2.93,0-6,.07-9.12.07-4.3,0-8.43,0-12.3-.14-7-.16-13.07-0.45-17.7-0.82-5.82-.47-9.33-1.08-9.33-1.75l6.54-28.79c0.57,0.31,3.49.6,8,.82,3.85,0.19,8.88.34,14.58,0.42,3.22,0,6.65.07,10.23,0.07q3.93,0,7.6,0c6.3-.06,11.89-0.21,16.21-0.4C459.09,233.43,462.41,233.13,463,232.79Z" transform="translate(0 -7.78)"/><path class="j" d="M463,232.79l6.54,28.79c0,0.72-4.08,1.37-10.73,1.86-5.17.38-11.9,0.65-19.48,0.78-2.93,0-6,.07-9.12.07-4.3,0-8.43,0-12.3-.14-7-.16-13.07-0.45-17.7-0.82-5.82-.47-9.33-1.08-9.33-1.75l6.54-28.79c0.57,0.31,3.49.6,8,.82,3.85,0.19,8.88.34,14.58,0.42,3.22,0,6.65.07,10.23,0.07q3.93,0,7.6,0c6.3-.06,11.89-0.21,16.21-0.4C459.09,233.43,462.41,233.13,463,232.79Z" transform="translate(0 -7.78)"/><polygon class="l" points="458.89 206.95 62.67 177.37 49.48 176.39 55.41 150.31 59.11 134.02 70.1 134.84 100.88 137.13 135.92 139.73 166.71 142.02 201.73 144.63 232.51 146.92 267.55 149.52 298.33 151.81 333.36 154.41 364.15 156.7 399.18 159.31 429.96 161.6 448.81 163.01 452 177.62 452 177.63 458.47 205.64 458.89 206.95"/><polygon class="m" points="100.89 137.12 100.88 137.13 62.67 177.37 49.48 176.39 55.41 150.31 70.1 134.84 70.11 134.83 100.89 137.12"/><polygon class="m" points="128.49 182.27 97.71 179.98 135.93 139.73 166.71 142.02 128.49 182.27"/><polygon class="m" points="194.3 187.16 163.52 184.87 201.74 144.62 232.52 146.91 194.3 187.16"/><polygon class="m" points="254.11 192.06 223.33 189.77 261.55 149.52 292.33 151.81 254.11 192.06"/><polygon class="m" points="319.93 196.95 289.14 194.66 327.36 154.41 358.15 156.7 319.93 196.95"/><polygon class="m" points="385.74 201.84 354.96 199.56 393.18 159.31 423.96 161.6 385.74 201.84"/><polygon class="m" points="452.59 205.64 451.55 206.74 420.77 204.45 446.24 177.63 452.59 205.64"/><text class="n" transform="matrix(0.99, 0.08, -0.08, 1, 61.37, 167.6)">SECURIT<tspan x="150.9" y="0">Y</tspan></text><text class="n" transform="matrix(0.99, 0.08, -0.08, 1, 274.71, 185.77)">SECURIT<tspan x="150.9" y="0">Y</tspan></text><circle class="g" cx="252.65" cy="170.06" r="6.7"/></svg>