<svg xmlns="http://www.w3.org/2000/svg" viewBox="0 0 500.49 266.44"><defs><style>.a{fill:gray}.c{fill:#fedfa5}.g,.n{fill:#fff}.n{font-family:Arial;font-weight:700}.i{fill:#d1881d}.j{fill:#f3ad42}.k{fill:#e5e4e3}.m{fill:#ee7c98}.n{font-size:34.38px}</style></defs><path class="a" d="M376.39 229.22a10.83 10.83 0 01-3.18 7.21c-11.6-12.91-53.77-22.48-104-22.48s-92.37 9.57-104 22.48a10.83 10.83 0 01-3.18-7.21c0-16.38 48-29.68 107.15-29.68s107.21 13.34 107.21 29.68z"/><path d="M373.21 236.47c-9.49 10.52-39.29 18.83-77.21 21.51-8.57.62-17.53.94-26.78.94-5.25 0-10.41-.1-15.45-.31-43.23-1.73-78.11-10.59-88.52-22.14 10.26-11.41 44.39-20.22 86.84-22.1 5.57-.25 11.3-.38 17.13-.38q7.58 0 14.88.3c43.5 1.65 78.67 10.56 89.11 22.18z" fill="#4d4d4d"/><path class="c" d="M296 257.98c-8.57.62-17.53.94-26.78.94-5.25 0-10.41-.1-15.45-.31-1.32-9.82-1.54-31.25-1.68-44.25-.06-5.47-.1-9.44-.2-10.41-.39-3.92-3.09-13.83-3.57-20s4.9-18.88 6.73-24.18 2.65-16.07 1.9-19.35a68.26 68.26 0 01-1.9-14.05c0-5.06 4.7-7.83 10.54-7.83 5.12 0 6.52 15.2 7.7 22.1s10.71 17.48 12.89 29.69-5 20.26-5 28.78c0 2.5 1.18 8.21 2.88 15.18 3.8 15.41 10.13 36.99 11.94 43.69z"/><rect class="a" x="246.53" y="86.32" width="19.39" height="158.77" rx="5.2" ry="5.2" transform="rotate(172.4 256.487 161.802)"/><path fill="#3d7a9c" d="M142.673 25.435L333.115.025l10.45 78.315-190.442 25.41z"/><text transform="rotate(-8.1 704.847 -1257.012)" font-family="Arial" font-weight="700" fill="#fff" font-size="50.58">ISSUE</text><path fill="none" stroke="#fff" stroke-miterlimit="10" stroke-width="2" d="M153.08 103.74l190.44-25.42"/><path class="c" d="M252.46 202.93c-3.66 0-5.79-3.48-6-6.92a7.17 7.17 0 011.66-5.3H248a8.63 8.63 0 01-.94.05 6.2 6.2 0 01-6.41-5.77 6 6 0 012.29-5.2c-2.51-.47-4.25-2.62-4.73-5.95a6.13 6.13 0 014.68-7.2 6.37 6.37 0 01-3.75-5.1c-.35-2.76 1-6.47 6-7.82a112.93 112.93 0 0122.68-4.32h.74c4.16 0 6.53 3.42 6.72 6.8a6.72 6.72 0 01-2 5.36h.67c4.66 0 7 3.25 7.24 6.27s-1.51 6.15-5.78 7.08a5.83 5.83 0 013.17 4.67 6.45 6.45 0 01-4.58 6.64 6.16 6.16 0 013.88 4.78c.5 3.46-2.19 7.32-5.75 8.25a110.87 110.87 0 01-19 3.61 5.77 5.77 0 01-.67.07z"/><path class="g" d="M281.7 167.76c-.3-4.22-3.74-6.54-7.18-6.79a7.65 7.65 0 001.29-4.81c-.21-3.65-2.78-7.35-7.29-7.36h-.79a113.36 113.36 0 00-22.73 4.42c-5 1.36-6.79 5.23-6.38 8.47a6.9 6.9 0 002.88 4.89 6.69 6.69 0 00-3.81 7.42c.46 3.13 2 5.3 4.16 6.15a6.3 6.3 0 00-1.72 5 6.76 6.76 0 006.83 6.31 8.37 8.37 0 00-1 4.68c.22 3.71 2.55 7.47 6.56 7.47a6.41 6.41 0 00.7 0 111.34 111.34 0 0019.07-3.62 8.44 8.44 0 006.17-8.9 6.65 6.65 0 00-3.07-4.65 7 7 0 003.76-6.82 6.53 6.53 0 00-2.33-4.41 7.14 7.14 0 004.88-7.45zm-7.08 6.66h-.16c-1.89.26-5.75.77-9.63 1.18-5.44.59-10.84 1.42-10.84 1.42v.1s5.44-.56 10.89-.88c4.4-.25 8.8-.62 10.33-.76 3.77 2 3.85 8-.95 10l-2.33.65-1.67.34a6.24 6.24 0 01.75-.1c-1.5.39-3.29.82-5.11 1.2-2.22.46-4.45.93-6.11 1.33l-2.76.67 2.8-.49c1.68-.29 3.92-.61 6.18-.93s4.5-.72 6.18-1.06l1.53-.32a5.6 5.6 0 013.59 4.33 7.33 7.33 0 01-5.32 7.59 110.59 110.59 0 01-18.99 3.62 5.32 5.32 0 01-.58 0c-6.29 0-7.71-11.75-1.13-12.6-1.35.17-2 .26-3.38.4a8.09 8.09 0 01-.88 0c-7.11 0-8.23-10-.65-11.15l-1.47.22a6.18 6.18 0 01-.9.07c-2.57 0-4.7-1.73-5.26-5.55a5.55 5.55 0 014.46-6.59l3.72-.78a7.46 7.46 0 01-1.52.16c-6.69 0-8.58-10-.19-12.25a112.52 112.52 0 0122.59-4.3h.69c5.92 0 7.95 7.63 4.44 11l-3.09.42c-2 .29-4.69.76-7.34 1.34l-7.26 1.61-3.31.68 3.34-.51 7.33-1.23c2.66-.44 5.33-.76 7.34-.94.15 0 1.56-.1 2.82-.23h1.1c8.13.04 9.41 11 .76 12.34z"/><path fill="#ff7300" d="M.01 260.04l.32.51v-4.99l-.33-.5.01 4.98z"/><path class="i" d="M109.72 251.09l30.63 1.94 1.14.47-56.56 7.72-5.78.09-78.82-5.75-.33-.5 32.6-3.67 77.12-.3z"/><path class="j" d="M84.93 261.22l-5.78.09-78.82-5.75v4.99l78.82 5.89 5.78-.09 56.56-7.9v-4.95l-56.56 7.72z"/><path class="k" d="M51.69 166.69l6.52-28.71c.49 0 1.75.09 3.53.12 1.46 0 3.28 0 5.32.06h7.34c2.55 0 4.81 0 6.54-.07s2.84-.07 3.31-.12l6.52 28.71c-.76.13-2.61.25-5.18.35s-6 .16-9.73.2H65.07c-3.24 0-6.1-.1-8.38-.19-2.48-.1-4.25-.22-5-.35zM38.44 225.01l6.77-29.79c.36.32 2.72.62 6.41.85 3 .19 7 .33 11.43.41 2.57 0 5.31.07 8.17.07h6.1c5-.07 9.5-.21 12.92-.41 4-.24 6.62-.54 7-.88l6.76 29.75c-.61.33-3.93.64-9 .87-4.32.2-9.91.34-16.21.4h-7.6c-3.58 0-7 0-10.23-.07-5.71-.08-10.73-.23-14.58-.42-4.45-.18-7.38-.46-7.94-.78z"/><path class="j" d="M77.54 108.49l6.7 29.49c-.47 0-1.65.09-3.31.12s-4 .06-6.54.07h-7.32c-2 0-3.86 0-5.32-.06-1.78 0-3-.07-3.53-.12l6.7-29.49a5.93 5.93 0 012-.26c.62 0 1.36-.06 2.17-.07h3.76c1.3 0 2.43.06 3.25.12a3.54 3.54 0 011.44.2zM90.77 166.69l6.47 28.53c-.37.34-3 .65-7 .88-3.42.2-7.88.34-12.92.41h-6.1c-2.86 0-5.6 0-8.17-.07-4.47-.08-8.4-.23-11.43-.41-3.69-.23-6-.52-6.41-.85l6.48-28.51c.75.13 2.52.25 5 .34 2.27.09 5.14.15 8.38.19h10.79c3.77 0 7.13-.1 9.73-.2s4.41-.18 5.18-.31zM104 225.01l6.54 28.79c0 .72-4.08 1.37-10.73 1.86-5.17.38-11.9.65-19.48.78-2.93 0-6 .07-9.12.07-4.3 0-8.43 0-12.3-.14-7-.16-13.07-.45-17.7-.82-5.82-.47-9.33-1.08-9.33-1.75l6.54-28.79c.57.31 3.49.6 8 .82 3.85.19 8.88.34 14.58.42 3.22 0 6.65.07 10.23.07h7.6c6.3-.06 11.89-.21 16.21-.4 5.05-.27 8.37-.57 8.96-.91z"/><path class="j" d="M104 225.01l6.54 28.79c0 .72-4.08 1.37-10.73 1.86-5.17.38-11.9.65-19.48.78-2.93 0-6 .07-9.12.07-4.3 0-8.43 0-12.3-.14-7-.16-13.07-.45-17.7-.82-5.82-.47-9.33-1.08-9.33-1.75l6.54-28.79c.57.31 3.49.6 8 .82 3.85.19 8.88.34 14.58.42 3.22 0 6.65.07 10.23.07h7.6c6.3-.06 11.89-.21 16.21-.4 5.05-.27 8.37-.57 8.96-.91z"/><path class="i" d="M468.72 251.09l30.63 1.94 1.14.47-56.56 7.72-5.78.09-78.82-5.75-.33-.5 32.6-3.67 77.12-.3z"/><path class="j" d="M443.93 261.22l-5.78.09-78.82-5.75v4.99l78.82 5.89 5.78-.09 56.56-7.9v-4.95l-56.56 7.72z"/><path class="k" d="M410.69 166.69l6.52-28.71c.49 0 1.75.09 3.53.12 1.46 0 3.28 0 5.32.06h7.33c2.55 0 4.81 0 6.54-.07s2.84-.07 3.31-.12l6.52 28.71c-.76.13-2.61.25-5.18.35s-6 .16-9.73.2h-10.79c-3.24 0-6.1-.1-8.38-.19-2.47-.1-4.24-.22-4.99-.35zM397.44 225.01l6.77-29.79c.36.32 2.72.62 6.41.85 3 .19 7 .33 11.43.41 2.57 0 5.31.07 8.17.07h6.1c5-.07 9.5-.21 12.92-.41 4-.24 6.62-.54 7-.88l6.76 29.75c-.61.33-3.93.64-9 .87-4.32.2-9.91.34-16.21.4h-7.6c-3.58 0-7 0-10.23-.07-5.71-.08-10.73-.23-14.58-.42-4.45-.18-7.38-.46-7.94-.78z"/><path class="j" d="M436.54 108.49l6.7 29.49c-.47 0-1.65.09-3.31.12s-4 .06-6.54.07h-7.33c-2 0-3.86 0-5.32-.06-1.78 0-3-.07-3.53-.12l6.7-29.49a5.93 5.93 0 012-.26c.62 0 1.36-.06 2.17-.07h3.76c1.3 0 2.43.06 3.25.12a3.54 3.54 0 011.45.2zM449.77 166.69l6.47 28.53c-.37.34-3 .65-7 .88-3.42.2-7.88.34-12.92.41h-6.1c-2.86 0-5.6 0-8.17-.07-4.47-.08-8.4-.23-11.43-.41-3.69-.23-6-.52-6.41-.85l6.48-28.51c.75.13 2.52.25 5 .34 2.27.09 5.14.15 8.38.19h10.79c3.77 0 7.13-.1 9.73-.2s4.41-.18 5.18-.31zM463 225.01l6.54 28.79c0 .72-4.08 1.37-10.73 1.86-5.17.38-11.9.65-19.48.78-2.93 0-6 .07-9.12.07-4.3 0-8.43 0-12.3-.14-7-.16-13.07-.45-17.7-.82-5.82-.47-9.33-1.08-9.33-1.75l6.54-28.79c.57.31 3.49.6 8 .82 3.85.19 8.88.34 14.58.42 3.22 0 6.65.07 10.23.07h7.6c6.3-.06 11.89-.21 16.21-.4 5.05-.27 8.37-.57 8.96-.91z"/><path class="j" d="M463 225.01l6.54 28.79c0 .72-4.08 1.37-10.73 1.86-5.17.38-11.9.65-19.48.78-2.93 0-6 .07-9.12.07-4.3 0-8.43 0-12.3-.14-7-.16-13.07-.45-17.7-.82-5.82-.47-9.33-1.08-9.33-1.75l6.54-28.79c.57.31 3.49.6 8 .82 3.85.19 8.88.34 14.58.42 3.22 0 6.65.07 10.23.07h7.6c6.3-.06 11.89-.21 16.21-.4 5.05-.27 8.37-.57 8.96-.91z"/><path fill="#ff1654" d="M458.89 206.95L62.67 177.37l-13.19-.98 5.93-26.08 3.7-16.29 10.99.82 30.78 2.29 35.04 2.6 30.79 2.29 35.02 2.61 30.78 2.29 35.04 2.6 30.78 2.29 35.03 2.6 30.79 2.29 35.03 2.61 30.78 2.29 18.85 1.41 3.19 14.61v.01l6.47 28.01.42 1.31z"/><path class="m" d="M100.89 137.12l-.01.01-38.21 40.24-13.19-.98 5.93-26.08 14.69-15.47.01-.01 30.78 2.29zM128.49 182.27l-30.78-2.29 38.22-40.25 30.78 2.29-38.22 40.25zM194.3 187.16l-30.78-2.29 38.22-40.25 30.78 2.29-38.22 40.25zM254.11 192.06l-30.78-2.29 38.22-40.25 30.78 2.29-38.22 40.25zM319.93 196.95l-30.79-2.29 38.22-40.25 30.79 2.29-38.22 40.25zM385.74 201.84l-30.78-2.28 38.22-40.25 30.78 2.29-38.22 40.24zM452.59 205.64l-1.04 1.1-30.78-2.29 25.47-26.82 6.35 28.01z"/><text class="n" transform="matrix(.99 .08 -.08 1 61.37 167.6)">SECURIT<tspan x="150.9" y="0">Y</tspan></text><text class="n" transform="matrix(.99 .08 -.08 1 274.71 185.77)">SECURIT<tspan x="150.9" y="0">Y</tspan></text><circle class="g" cx="252.65" cy="170.06" r="6.7"/></svg>