<svg xmlns="http://www.w3.org/2000/svg" viewBox="0 0 500 278.44">
  <defs>
    <style>
      .a {
        fill: gray;
      }

      .b {
        fill: #4d4d4d;
      }

      .c {
        fill: #fedfa5;
      }

      .d {
        fill: #3d7a9c;
      }

      .e {
        fill: #fff;
      }

      .f {
        fill: none;
        stroke: #fff;
        stroke-miterlimit: 10;
        stroke-width: 2px;
      }

      .g {
        fill: #e5e4e3;
      }

      .h {
        fill: #f3ad42;
      }

      .i {
        fill: #ff7300;
      }

      .j {
        fill: #ea6603;
      }

      .k {
        fill: #d1881d;
      }

      .l {
        fill: #b37419;
      }
    </style>
  </defs>
  <title>issues</title>
  <g>
    <path class="a" d="M500,246.54a11.65,11.65,0,0,1-3.42,7.75c-12.48-13.89-57.82-24.18-111.83-24.18s-99.34,10.29-111.81,24.18a11.65,11.65,0,0,1-3.42-7.75c0-17.62,51.6-31.91,115.23-31.91S500,228.93,500,246.54Z" transform="translate(0)"/>
    <path class="b" d="M496.58,254.3c-10.21,11.32-42.25,20.25-83,23.13-9.21.66-18.85,1-28.8,1-5.64,0-11.2-.11-16.62-0.33-46.48-1.86-84-11.39-95.2-23.81,11-12.27,47.73-21.74,93.39-23.77,6-.27,12.15-0.41,18.43-0.41q8.15,0,16,.32C447.54,232.22,485.35,241.8,496.58,254.3Z" transform="translate(0)"/>
    <path class="c" d="M413.55,277.43c-9.21.66-18.85,1-28.8,1-5.64,0-11.2-.11-16.62-0.33-1.41-10.56-1.66-33.61-1.81-47.58-0.06-5.88-.11-10.15-0.21-11.2-0.42-4.22-3.33-14.87-3.84-21.55s5.27-20.31,7.24-26,2.85-17.29,2-20.81a73.41,73.41,0,0,1-2-15.11c0-5.44,5.06-8.42,11.33-8.42,5.51,0,7,16.35,8.28,23.77s11.53,18.83,13.86,32-5.34,21.79-5.34,30.95c0,2.69,1.26,8.82,3.1,16.32C404.8,247,411.61,270.22,413.55,277.43Z" transform="translate(0)"/>
    <g>
      <rect class="a" x="360.36" y="84.46" width="20.85" height="170.73" rx="5.2" ry="5.2" transform="matrix(-0.99, 0.13, -0.13, -0.99, 760.78, 289.1)"/>
      <g>
        <rect class="d" x="253.38" y="13.3" width="206.61" height="84.96" transform="translate(-4.24 47.68) rotate(-7.6)"/>
        <g>
          <path class="e" d="M282.24,84.54l-5.11-38.6,7.76-1L290,83.5Z" transform="translate(0)"/>
          <path class="e" d="M293.77,70.22l7.46-1.74a9.33,9.33,0,0,0,3.51,5.24,8.42,8.42,0,0,0,5.86,1A8.71,8.71,0,0,0,316,72.41a4.79,4.79,0,0,0,1.41-4,3.56,3.56,0,0,0-1.11-2.22,6.46,6.46,0,0,0-3-1.3q-1.43-.29-6.44-0.85-6.45-.72-9.27-2.65a10.25,10.25,0,0,1-3.64-13,10.54,10.54,0,0,1,4.28-4.55,19.36,19.36,0,0,1,7.39-2.35q7.24-1,11.32,1.73a11.35,11.35,0,0,1,5,8l-7.72,1.38a6.68,6.68,0,0,0-2.71-4,7.86,7.86,0,0,0-5.09-.65,8.94,8.94,0,0,0-5.11,2.1,2.84,2.84,0,0,0-.92,2.56,3,3,0,0,0,1.46,2.19q1.63,1,7.48,1.63a37.9,37.9,0,0,1,8.75,1.66,10.91,10.91,0,0,1,4.77,3.36,12.29,12.29,0,0,1,1.33,12.4,11.12,11.12,0,0,1-4.62,5,21.91,21.91,0,0,1-8.18,2.53q-7.29,1-11.65-1.89T293.77,70.22Z" transform="translate(0)"/>
          <path class="e" d="M329.6,65.44l7.46-1.74a9.33,9.33,0,0,0,3.51,5.24,8.42,8.42,0,0,0,5.86,1,8.71,8.71,0,0,0,5.44-2.35,4.79,4.79,0,0,0,1.41-4,3.55,3.55,0,0,0-1.11-2.22,6.46,6.46,0,0,0-3-1.3q-1.43-.29-6.44-0.85-6.45-.72-9.27-2.65a10.25,10.25,0,0,1-3.64-13A10.54,10.54,0,0,1,334.09,39a19.36,19.36,0,0,1,7.39-2.35q7.24-1,11.32,1.73a11.35,11.35,0,0,1,5,8l-7.72,1.38a6.68,6.68,0,0,0-2.7-4,7.87,7.87,0,0,0-5.09-.65,8.94,8.94,0,0,0-5.11,2.1,2.84,2.84,0,0,0-.92,2.56A3,3,0,0,0,337.7,50q1.63,1,7.48,1.63a37.94,37.94,0,0,1,8.75,1.66,10.92,10.92,0,0,1,4.77,3.36A12.29,12.29,0,0,1,360,69a11.11,11.11,0,0,1-4.62,5,21.9,21.9,0,0,1-8.18,2.53q-7.29,1-11.65-1.89T329.6,65.44Z" transform="translate(0)"/>
          <path class="e" d="M363.89,34.36l7.76-1,2.77,20.91a43.75,43.75,0,0,0,1.14,6.41,6.29,6.29,0,0,0,2.88,3.49,8.31,8.31,0,0,0,5.32.75,7.88,7.88,0,0,0,4.8-2,5.42,5.42,0,0,0,1.58-3.6,44,44,0,0,0-.53-6.6l-2.83-21.35,7.76-1,2.69,20.27a52.83,52.83,0,0,1,.67,9.9,11,11,0,0,1-1.68,5.16,11.87,11.87,0,0,1-4.11,3.75,19.82,19.82,0,0,1-7.24,2.16q-5.51.73-8.52-.16a12,12,0,0,1-4.94-2.72,10.73,10.73,0,0,1-2.75-4A47.5,47.5,0,0,1,366.62,55Z" transform="translate(0)"/>
          <path class="e" d="M407.85,67.78l-5.11-38.6,28.51-3.81,0.86,6.53-20.75,2.77,1.13,8.56,19.3-2.58,0.86,6.5-19.3,2.58,1.39,10.5,21.48-2.87,0.86,6.5Z" transform="translate(0)"/>
        </g>
      </g>
      <line class="f" x1="259.86" y1="111.56" x2="464.66" y2="84.23"/>
    </g>
    <g>
      <path class="c" d="M366.73,218.23c-3.94,0-6.22-3.74-6.44-7.44a7.71,7.71,0,0,1,1.78-5.7h-0.13a9.28,9.28,0,0,1-1,.06A6.66,6.66,0,0,1,354,199a6.4,6.4,0,0,1,2.47-5.59c-2.7-.51-4.57-2.82-5.09-6.4a6.59,6.59,0,0,1,5-7.74,6.85,6.85,0,0,1-4-5.48c-0.37-3,1.08-7,6.41-8.41,9.82-2.68,14.73-3.73,24.39-4.65,0.27,0,.53,0,0.79,0,4.47,0,7,3.68,7.23,7.31a7.22,7.22,0,0,1-2.16,5.77l0.72,0c5,0,7.55,3.49,7.79,6.74s-1.62,6.61-6.22,7.61a6.27,6.27,0,0,1,3.41,5,6.93,6.93,0,0,1-4.91,7.22,6.63,6.63,0,0,1,4.17,5.14c0.54,3.72-2.35,7.87-6.18,8.87a119.23,119.23,0,0,1-20.43,3.88A6.21,6.21,0,0,1,366.73,218.23Z" transform="translate(0)"/>
      <path class="e" d="M398.18,180.4c-0.33-4.53-4-7-7.72-7.3a8.23,8.23,0,0,0,1.38-5.17c-0.22-3.93-3-7.91-7.84-7.91q-0.41,0-.85,0c-9.71.93-14.63,2-24.49,4.66-5.35,1.46-7.3,5.62-6.86,9.1a7.42,7.42,0,0,0,3.1,5.26,7.19,7.19,0,0,0-4.1,8c0.49,3.37,2.1,5.7,4.47,6.61a6.77,6.77,0,0,0-1.85,5.32,7.27,7.27,0,0,0,7.35,6.79,9,9,0,0,0-1.09,5c0.24,4,2.74,8,7.06,8a6.9,6.9,0,0,0,.75,0,119.73,119.73,0,0,0,20.51-3.9c4.19-1.09,7.23-5.48,6.64-9.57a7.15,7.15,0,0,0-3.3-5,7.47,7.47,0,0,0,4-7.33,7,7,0,0,0-2.51-4.74A7.68,7.68,0,0,0,398.18,180.4Zm-7.61,7.16-0.17,0c-2,.28-6.18.83-10.35,1.27-5.85.63-11.66,1.52-11.66,1.52v0.11s5.85-.61,11.71-0.95c4.73-.26,9.46-0.67,11.11-0.82,4.05,2.12,4.14,8.57-1,10.76l-2.51.7h0l-1.79.37a6.71,6.71,0,0,1,.81-0.11c-1.61.42-3.54,0.88-5.5,1.29-2.39.5-4.79,1-6.57,1.43l-3,.73,3-.53c1.81-.31,4.22-0.65,6.64-1s4.84-.78,6.64-1.14l1.64-.35a6,6,0,0,1,3.86,4.66c0.47,3.29-2,7.2-5.73,8.16a118.92,118.92,0,0,1-20.34,3.86,5.72,5.72,0,0,1-.62,0c-6.77,0-8.29-12.64-1.22-13.55-1.46.19-2.18,0.28-3.64,0.43a8.7,8.7,0,0,1-.95.05c-7.64,0-8.85-10.76-.7-12l-1.58.24a6.64,6.64,0,0,1-1,.07c-2.77,0-5.06-1.86-5.65-6a6,6,0,0,1,4.79-7.09l4-.84a8,8,0,0,1-1.63.17c-7.19,0-9.23-10.72-.2-13.18,9.67-2.64,14.58-3.7,24.29-4.63q0.38,0,.74,0c6.36,0,8.54,8.2,4.77,11.86l-3.32.45c-2.16.32-5,.82-7.89,1.44l-7.81,1.73-3.56.73v0l3.59-.55,7.88-1.32c2.86-.47,5.74-0.82,7.9-1,0.16,0,1.67-.11,3-0.25l0.23,0c0.33,0,.64,0,1,0C398.54,174.34,399.88,186.12,390.57,187.57Z" transform="translate(0)"/>
    </g>
    <g>
      <path class="g" d="M60.11,120.42L44.34,136.76c-12.12,18.29,5,48.93,29.2,53.14l18.12-1.08C65.38,182.43,45.56,142.19,60.11,120.42Z" transform="translate(0)"/>
      <path class="h" d="M130.45,186.52l-38.79,2.3c-21.22-5.16-42.23-35.53-35-60.79,2.15-7.46,2.52-6.66,24.59-29.53,0,0,4.12-3.82.84-.67-20.13,19.35-9.68,60.64,19.15,80C115,187.06,125,186.43,130.45,186.52Z" transform="translate(0)"/>
      <path class="h" d="M43.17,78.38l100.2-5.62,5.25,4.11,39.24,110.9L186,192.29,87.89,206.65,82,202.48l-41.13-120Zm80.52,108c23.91,2.51,39.84-17.14,35.49-43.82s-27.38-50.42-51.29-52.93S68,106.79,72.39,133.47,99.76,183.89,123.69,186.4Z" transform="translate(0)"/>
      <polygon class="i" points="39.2 79.36 36.88 83.57 40.9 82.52 43.17 78.38 43.17 78.38 39.2 79.36"/>
      <polygon class="h" points="39.2 79.36 36.88 83.57 40.9 82.52 43.17 78.38 43.17 78.38 39.2 79.36"/>
      <polygon class="j" points="185.97 192.29 87.89 206.65 83.81 207.57 184.4 192.95 185.97 192.29"/>
      <polygon class="k" points="185.97 192.29 87.89 206.65 83.81 207.57 184.4 192.95 185.97 192.29"/>
      <polygon class="i" points="77.94 203.41 82.02 202.48 40.9 82.52 36.88 83.57 77.94 203.41"/>
      <polygon class="k" points="77.94 203.41 82.02 202.48 40.9 82.52 36.88 83.57 77.94 203.41"/>
      <polygon class="j" points="83.81 207.56 87.89 206.65 82.02 202.48 77.94 203.41 83.81 207.56"/>
      <polygon class="k" points="83.81 207.56 87.89 206.65 82.02 202.48 77.94 203.41 83.81 207.56"/>
      <path class="h" d="M1,181.62L15.17,167c-4.85,8.81,2.76,23.22,12.64,25.63-20.92,1.24-20.14,1.6-23,0A9.68,9.68,0,0,1,0,185.87,9.25,9.25,0,0,1,1,181.62Z" transform="translate(0)"/>
      <path class="g" d="M27.81,192.61l22.62-1.34c-16.88-2.83-29.21-26.46-20.35-39.73L15.17,167C10.32,175.79,17.94,190.21,27.81,192.61Z" transform="translate(0)"/>
      <path class="h" d="M50.43,191.27l23.11-1.37c-24.25-4.22-41.26-35-29.2-53.14L30.08,151.54C21.13,164.93,33.75,188.47,50.43,191.27Z" transform="translate(0)"/>
      <path class="k" d="M138.2,186.3c-14,4.33-29.59-1.26-41.13-10.3-40.43-31.68-32.47-92,10.62-87.52C156.64,93.63,182.54,172.55,138.2,186.3Z" transform="translate(0)"/>
      <path class="l" d="M135.36,183.43c-13.37,4.07-28.25-1-39.21-9.26-38.43-29-30.49-84.6,10.62-80.72C153.46,97.92,177.76,170.51,135.36,183.43Z" transform="translate(0)"/>
    </g>
    <path class="b" d="M200.85,231.32c-5.83-1.78-11.85-1.54-14.36.47s-3.41,3.23-3.53,4.49c-0.13,1.47,2.11,2,3.53.83,1-1.82,2.84-4.24,5.65-4.61,4.07-.52,9.52,1.7,11.54,3.12,3.4,2.42,15.7,13.59,15.7,13.59s-7.83,1.41-12.77,2.83-7.17,3.89-10.59,4.49-5.94-1-11.52-.41-23.47,4.08-25.71,2.42-6.06-10-7.56-12.68a4.21,4.21,0,0,0-.2-0.38h0c-0.68-1.18-2.73-4.86-2.21-6.13a0.72,0.72,0,0,1,.51-0.44,0.53,0.53,0,0,1,.56.18,3,3,0,0,1,0,2.42,0.69,0.69,0,0,1-.3.39,29.77,29.77,0,0,0,1.65,3.3c1.16-1.58,1.31-6.53-.28-8.62s-4.76-2.36-4.76,2.07c0,2.07.58,8.33,2.41,10.34-0.76.59-.76,2.53,0.7,4.89s5.71,14.7,10.12,15.53c3.95,6.31,7.95,4.72,12.53,4.72A49,49,0,0,0,186.9,271c3.12-1.3,6.59-7.74,7-8.68s3.71-1.66,4.24-.54,0.46,7.21,8.73,6.08,14.32-3,16.55-7.43,2.24-11.27,2.24-11.27-19-16.05-24.83-17.83h0Zm-13.7,37.61c-1.82,2.13-13.6,3.72-13.6,3.72s-5.94.36-7.88,0.31a5.67,5.67,0,0,1-3.9-2.75,19.91,19.91,0,0,0,5.44,0l12.17-.95v-3.52h0l0-.1v-0.14H179.3l-1.39-2.75-11.76.68h-4.71c-0.07-1.75,2.06-2.58,4.06-2.85s16.71-2.38,18.25-2.38,6.69,0,7,3-1.77,5.68-3.59,7.8h0Zm-8.12-3.1v3.08l-11.47.89V266.6Zm-11.57.29-0.83-2.41,11.06-.64,1.18,2.31Zm50.68-2.67c-3.86,1.14-9.17,2.77-11.26,3.13-1.63.29-3.31,0.38-4-.29-1.49-1.39-.87-4.65-1-6.52-0.42-3.1,5.94-5.46,5.94-5.46s10.11-2.84,13-3.19c0.36,0,2.64,4.66,2.64,4.66s-1.36,6.52-5.23,7.67h0Zm0,0" transform="translate(0)"/>
  </g>
</svg>
