<?xml version="1.0" encoding="UTF-8" standalone="no"?>
<svg
   viewBox="0 0 500 278.44"
   version="1.1"
   id="svg25"
   sodipodi:docname="partners.svg"
   xml:space="preserve"
   inkscape:version="1.4.2 (ebf0e940d0, 2025-05-08)"
   xmlns:inkscape="http://www.inkscape.org/namespaces/inkscape"
   xmlns:sodipodi="http://sodipodi.sourceforge.net/DTD/sodipodi-0.dtd"
   xmlns="http://www.w3.org/2000/svg"
   xmlns:svg="http://www.w3.org/2000/svg"><sodipodi:namedview
     id="namedview25"
     pagecolor="#ffffff"
     bordercolor="#000000"
     borderopacity="0.25"
     inkscape:showpageshadow="2"
     inkscape:pageopacity="0.0"
     inkscape:pagecheckerboard="0"
     inkscape:deskcolor="#d1d1d1"
     inkscape:zoom="1.4509409"
     inkscape:cx="203.31634"
     inkscape:cy="36.52802"
     inkscape:window-width="1856"
     inkscape:window-height="1011"
     inkscape:window-x="1920"
     inkscape:window-y="32"
     inkscape:window-maximized="1"
     inkscape:current-layer="svg25" /><defs
     id="defs1"><style
       id="style1">.a{fill:gray}.b{fill:#4d4d4d}.c{fill:#fedfa5}.e{fill:#fff}.g{fill:#e5e4e3}.h{fill:#f3ad42}.i{fill:#ff7300}.j{fill:#ea6603}.k{fill:#d1881d}</style><clipPath
       clipPathUnits="userSpaceOnUse"
       id="clipPath25"><rect
         id="rect25"
         style="color:#000000;fill:none;stroke:#000000;stroke-width:1.73151"
         rx="38.708122"
         ry="33.171513"
         height="251.26578"
         width="482.25674"
         y="-24.386562"
         x="14.957787" /></clipPath><clipPath
       clipPathUnits="userSpaceOnUse"
       id="clipPath26"><rect
         id="rect26"
         style="color:#000000;fill:none;stroke:#000000;stroke-width:1.73151"
         rx="38.708122"
         ry="33.171513"
         height="251.26578"
         width="482.25674"
         y="-24.386562"
         x="14.957787" /></clipPath><clipPath
       clipPathUnits="userSpaceOnUse"
       id="clipPath27"><rect
         id="rect27"
         style="color:#000000;fill:none;stroke:#000000;stroke-width:1.73151"
         rx="38.708122"
         ry="33.171513"
         height="251.26578"
         width="482.25674"
         y="-24.386562"
         x="14.957787" /></clipPath><clipPath
       clipPathUnits="userSpaceOnUse"
       id="clipPath28"><rect
         id="rect28"
         style="color:#000000;fill:none;stroke:#000000;stroke-width:1.73151"
         rx="38.708122"
         ry="33.171513"
         height="251.26578"
         width="482.25674"
         y="-24.386562"
         x="14.957787" /></clipPath><clipPath
       clipPathUnits="userSpaceOnUse"
       id="clipPath29"><rect
         id="rect29"
         style="color:#000000;fill:none;stroke:#000000;stroke-width:1.73151"
         rx="38.708122"
         ry="33.171513"
         height="251.26578"
         width="482.25674"
         y="-24.386562"
         x="14.957787" /></clipPath><clipPath
       clipPathUnits="userSpaceOnUse"
       id="clipPath30"><rect
         id="rect30"
         style="color:#000000;fill:none;stroke:#000000;stroke-width:1.73151"
         rx="38.708122"
         ry="33.171513"
         height="251.26578"
         width="482.25674"
         y="-24.386562"
         x="14.957787" /></clipPath><clipPath
       clipPathUnits="userSpaceOnUse"
       id="clipPath31"><rect
         id="rect31"
         style="color:#000000;fill:none;stroke:#000000;stroke-width:1.73151"
         rx="38.708122"
         ry="33.171513"
         height="251.26578"
         width="482.25674"
         y="-24.386562"
         x="14.957787" /></clipPath><clipPath
       clipPathUnits="userSpaceOnUse"
       id="clipPath32"><rect
         id="rect32"
         style="color:#000000;fill:none;stroke:#000000;stroke-width:1.73151"
         rx="38.708122"
         ry="33.171513"
         height="251.26578"
         width="482.25674"
         y="-24.386562"
         x="14.957787" /></clipPath><clipPath
       clipPathUnits="userSpaceOnUse"
       id="clipPath33"><rect
         id="rect33"
         style="color:#000000;fill:none;stroke:#000000;stroke-width:1.73151"
         rx="38.708122"
         ry="33.171513"
         height="251.26578"
         width="482.25674"
         y="-24.386562"
         x="14.957787" /></clipPath><clipPath
       clipPathUnits="userSpaceOnUse"
       id="clipPath34"><rect
         id="rect34"
         style="color:#000000;fill:none;stroke:#000000;stroke-width:1.73151"
         rx="38.708122"
         ry="33.171513"
         height="251.26578"
         width="482.25674"
         y="-24.386562"
         x="14.957787" /></clipPath><clipPath
       clipPathUnits="userSpaceOnUse"
       id="clipPath35"><rect
         id="rect35"
         style="color:#000000;fill:none;stroke:#000000;stroke-width:1.73151"
         rx="38.708122"
         ry="33.171513"
         height="251.26578"
         width="482.25674"
         y="-24.386562"
         x="14.957787" /></clipPath><clipPath
       clipPathUnits="userSpaceOnUse"
       id="clipPath36"><rect
         id="rect36"
         style="color:#000000;fill:none;stroke:#000000;stroke-width:1.73151"
         rx="38.708122"
         ry="33.171513"
         height="251.26578"
         width="482.25674"
         y="-24.386562"
         x="14.957787" /></clipPath></defs><path
     id="path4929"
     style="fill:#ffcaa1;fill-opacity:0.99899;fill-rule:evenodd;stroke:#4d4d4d;stroke-width:1.45081"
     inkscape:connector-curvature="0"
     d="m 146.85226,70.703907 c 16.10732,0.397012 32.21464,0.794023 48.32196,1.191035 2.62567,-1.210686 5.24836,-2.42175 7.87104,-3.632815 5.85578,-1.519646 11.78622,-3.651617 17.63901,-5.171642 5.34985,-2.408871 9.77645,-5.477839 14.94329,-5.823112 5.92273,-0.397977 14.26901,1.091878 20.08829,4.71186 10.67512,20.497018 21.35023,40.994037 32.02534,61.491057 9.47632,12.11286 18.94966,24.22534 28.42635,36.33522 3.86273,6.87198 2.04265,16.76877 -1.40718,20.81704 -2.96171,3.47629 -12.34339,4.81541 -17.82072,1.75143 -0.25273,5.21835 -2.13743,11.15472 -5.19418,14.16093 -3.84215,1.88134 -10.37702,3.11159 -14.70498,1.53109 0.66225,4.50944 -2.12916,10.32467 -5.30585,12.60288 -3.2776,2.35639 -7.55368,3.56996 -14.05738,1.30388 -0.68895,2.17835 -1.022,5.04186 -2.68397,6.23532 -3.09334,2.21901 -7.51484,2.762 -11.5842,3.99573 -51.05567,-35.60348 -70.75655,-38.51604 -97.43483,-47.25204 -0.13463,-30.58538 1.01002,-73.66584 0.87801,-104.247863 z"
     clip-path="url(#clipPath36)"
     transform="translate(-2.0585468e-8,53.758218)" /><path
     id="path3183"
     style="fill:#dca67c;fill-rule:evenodd;stroke:#4d4d4d;stroke-width:1.45081"
     inkscape:connector-curvature="0"
     d="m 146.85226,70.703907 c 16.10732,0.397012 32.21464,0.794023 48.32196,1.191035 2.62567,-1.210686 5.24836,-2.42175 7.87104,-3.632815 5.85578,-1.519646 11.78622,-3.651617 17.63901,-5.171642 5.34985,-2.408871 9.77645,-5.477839 14.94329,-5.823112 5.92273,-0.397977 14.26901,1.091878 20.08829,4.71186 10.67512,20.497018 21.35023,40.994037 32.02534,61.491057 9.47632,12.11286 18.94966,24.22534 28.42635,36.33522 3.86273,6.87198 2.04265,16.76877 -1.40718,20.81704 -2.96171,3.47629 -12.34339,4.81541 -17.82072,1.75143 -0.25273,5.21835 -2.13743,11.15472 -5.19418,14.16093 -3.84215,1.88134 -10.37702,3.11159 -14.70498,1.53109 0.66225,4.50944 -2.12916,10.32467 -5.30585,12.60288 -3.2776,2.35639 -7.55368,3.56996 -14.05738,1.30388 -0.68895,2.17835 -1.022,5.04186 -2.68397,6.23532 -3.09334,2.21901 -7.51484,2.762 -11.5842,3.99573 -51.05567,-35.60348 -70.75655,-38.51604 -97.43483,-47.25204 -0.13463,-30.58538 1.01002,-73.66584 0.87801,-104.247863 z"
     clip-path="url(#clipPath35)"
     transform="translate(-2.0585468e-8,53.758218)" /><path
     id="path3686"
     sodipodi:nodetypes="cccccsccscssccccscscccssccc"
     style="fill:#ffd8b4;fill-rule:evenodd;stroke:#4d4d4d;stroke-width:1.45081"
     inkscape:connector-curvature="0"
     d="m 165.55509,157.44192 c -2.30486,2.4259 -5.8146,20.30961 -6.83062,24.11409 -0.15411,0.5771 1.64305,-0.39522 2.16542,0.043 1.80085,2.56853 4.259,4.04561 7.11909,6.44684 1.41877,1.191 6.85079,2.66458 8.34127,2.3444 -0.21621,2.20785 0.44752,1.9793 1.46993,4.32468 0.97686,2.24109 5.1473,4.84959 6.97191,5.40053 2.31043,0.69745 6.5107,0.31788 6.5107,0.31788 0,0 0.18629,2.19575 2.76473,5.29673 1.94674,2.34127 5.43531,3.82058 8.32604,4.8714 4.3326,1.45069 5.31184,1.39706 8.95669,1.23775 3.66377,-0.16014 9.8171,-1.33562 13.72531,-1.66997 3.36789,-0.28814 8.1763,-0.0508 9.90013,-1.71745 2.00205,-1.93568 -1.06264,-6.12536 -2.26512,-9.01145 -0.81075,-1.94581 -4.21011,-3.35293 -6.62668,-4.46405 1.38198,-1.65336 3.251,-2.82081 3.33846,-4.48281 0.19703,-3.74796 0.46331,-5.71575 -2.72654,-8.35357 -2.91723,-2.41234 -13.97987,-3.04049 -18.48939,-1.84456 1.21306,-1.28166 1.92646,-5.3942 1.81836,-7.71464 0,0 -0.91819,-3.33441 -1.92101,-4.7447 -1.76495,-2.81318 -7.69718,-1.84359 -12.99832,-0.45676 -8.9533,2.34227 -6.75899,1.70556 -12.08646,3.56287 -2.89651,1.00991 8.5914,-2.95388 13.7767,-5.72486 1.80321,-0.96367 1.49277,-8.02743 1.51538,-9.82081 0.20201,-16.01074 -27.36565,2.93578 -28.83282,0.87085 -0.91362,-1.28574 -2.29822,2.08964 -3.9229,1.17434 z"
     clip-path="url(#clipPath34)"
     transform="translate(-2.0585468e-8,53.758218)" /><path
     id="path8038"
     sodipodi:nodetypes="ccccscccc"
     style="fill:#808080;fill-opacity:1;fill-rule:evenodd;stroke:#4d4d4d;stroke-width:1.45081"
     inkscape:connector-curvature="0"
     d="M 6.7943318,33.785143 C 28.920892,38.652532 172.91387,66.325077 194.86974,71.856303 c 10.23127,2.57835 2.51429,52.944587 -3.37634,77.684797 -4.69175,19.71473 -5.56853,20.91713 -16.60427,38.13399 -3.84987,6.00547 -14.20215,10.71231 -18.6589,10.14675 C 151.67198,197.24339 9.7592656,165.23655 -2.632273,160.67942 L 5.9894645,44.602118 6.7929828,33.784062 Z"
     clip-path="url(#clipPath33)"
     transform="translate(-2.0585468e-8,53.758218)" /><path
     id="path13008"
     style="fill:#404f60;fill-rule:evenodd;stroke:#4d4d4d;stroke-width:1.45081"
     inkscape:connector-curvature="0"
     d="m 313.06206,72.34425 -3.79898,0.752409 -2.05922,4.060953 12.75454,86.835498 3.33646,2.8924 2.0511,0.87905 2.58442,-0.90957 3.63188,-11.57777 0.54736,-28.64557 -4.11868,-33.250578 -9.00539,-19.050629 z"
     clip-path="url(#clipPath32)"
     transform="translate(-2.0585468e-8,53.758218)" /><path
     id="path919"
     style="fill:#ffd8b4;fill-opacity:1;stroke:#4d4d4d;stroke-width:1.45081"
     inkscape:connector-curvature="0"
     d="m 316.91447,75.353687 c -3.76371,0.450535 -11.01904,2.744993 -14.62077,1.799592 -3.93298,-1.035968 -11.21459,-4.247017 -20.14533,-6.93938 -9.10047,-2.741201 -13.48614,-6.591767 -21.83108,-7.996524 -9.66612,-1.630045 -13.19697,4.227851 -18.67678,8.473498 -9.79578,5.032544 -24.05926,9.370742 -27.33871,13.510403 -3.5574,4.4896 -9.55214,15.254916 -10.2192,19.698794 -3.15143,4.54111 -7.59141,8.57597 -8.61551,13.94515 -1.49639,7.84801 8.46492,10.09182 13.13181,8.85808 3.41485,-0.90429 5.754,-3.17958 8.63119,-4.77086 7.83978,-1.88057 14.07865,-10.07614 20.39646,-17.17279 5.76986,-1.08164 9.2028,-2.67822 13.68674,-5.673185 1.90842,2.529195 5.24307,2.400325 8.47188,1.384465 -1.07107,5.1418 22.90413,19.35543 28.52634,23.38111 9.18188,12.49711 18.33936,23.46544 28.19589,35.83281 0.24882,1.26608 1.22395,3.71626 1.47575,4.98272 1.73645,-0.70477 4.46133,-0.88068 5.85151,-2.03583 1.83129,-1.52382 2.97266,-3.94504 4.45769,-5.91924 6.28336,-0.84965 12.56634,-1.69632 18.84671,-2.54635 -4.65666,-28.17459 -9.31669,-56.346571 -13.97335,-84.521161 -5.5241,2.180504 -10.72715,3.528195 -16.25124,5.708698 z"
     clip-path="url(#clipPath31)"
     transform="translate(-2.0585468e-8,53.758218)" /><path
     id="path9902"
     sodipodi:nodetypes="cccccccccccccc"
     style="fill:#3d7a9c;fill-opacity:1;fill-rule:evenodd;stroke:#4d4d4d;stroke-width:1.45081"
     inkscape:connector-curvature="0"
     d="m 305.98892,77.003437 c -0.085,-1.839791 2.19706,-5.12327 5.70828,-6.069922 33.59795,-8.696543 166.60584,-44.67142 198.4809,-50.092992 l -2.95171,136.163627 c -34.42265,1.40388 -158.69182,8.28884 -181.42386,12.05285 -1.26227,-0.18748 -4.41769,-2.68989 -5.87799,-4.7588 1.84849,0.8503 4.66655,2.73663 5.54211,2.55353 1.87843,-0.3895 2.93844,-6.40019 3.09632,-9.7955 0.66069,-14.40865 1.48964,-29.37832 -0.6406,-43.6164 -1.93487,-12.93329 -3.08912,-30.368839 -11.55473,-37.897716 -1.22662,-1.089875 -3.43352,-2.079694 -5.01947,-1.819909 -1.25144,0.205173 -2.68521,1.512514 -3.49492,3.208432 l -1.85955,0.07341 z"
     clip-path="url(#clipPath30)"
     transform="translate(-2.0585468e-8,53.758218)" /><path
     id="path3604"
     style="fill:none;stroke:#4d4d4d;stroke-width:1.45081"
     inkscape:connector-curvature="0"
     d="m 176.49595,190.30554 c 0,0 11.40224,-2.57383 19.9256,-4.9843 7.45368,-2.10792 3.38744,-1.85005 16.28446,-5.33474"
     clip-path="url(#clipPath29)"
     transform="translate(-2.0585468e-8,53.758218)" /><path
     id="path3604-1"
     style="fill:none;stroke:#4d4d4d;stroke-width:1.45081"
     inkscape:connector-curvature="0"
     d="m 191.54547,200.52015 c 0,0 11.62973,-1.73965 19.39393,-3.58644 8.38471,-1.99433 4.80474,-1.15598 15.51378,-2.29473"
     clip-path="url(#clipPath28)"
     transform="translate(-2.0585468e-8,53.758218)" /><path
     id="path3604-1-7"
     style="fill:none;stroke:#4d4d4d;stroke-width:1.45081"
     inkscape:connector-curvature="0"
     d="m 271.81739,155.85481 c 0,0 7.94769,8.16594 13.52236,13.54384 6.20264,5.98415 3.05275,5.47221 11.1989,12.51648"
     clip-path="url(#clipPath27)"
     transform="translate(-2.0585468e-8,53.758218)" /><path
     id="path3604-1-7-4"
     style="fill:none;stroke:#4d4d4d;stroke-width:1.45081"
     inkscape:connector-curvature="0"
     d="m 252.82497,172.05014 c 0,0 7.94769,8.16594 13.52236,13.54384 6.20265,5.98415 3.05275,5.4722 11.1989,12.51648"
     clip-path="url(#clipPath26)"
     transform="translate(-2.0585468e-8,53.758218)" /><path
     id="path3604-1-7-9"
     style="fill:none;stroke:#4d4d4d;stroke-width:1.45081"
     inkscape:connector-curvature="0"
     d="m 236.56931,187.3067 c 0,0 6.29172,5.45434 10.99704,11.607 5.57497,7.29005 4.41961,3.79815 10.45941,12.88459"
     clip-path="url(#clipPath25)"
     transform="translate(-2.0585468e-8,53.758218)"
     inkscape:label="path3604-1-7-9" /></svg>
