<svg xmlns="http://www.w3.org/2000/svg" viewBox="0 0 14 16">
  <path id="ico_dislike" fill="#ff1654" d="M1346.72,2463.16a1.227,1.227,0,0,1,1.28,1.2,1.257,1.257,0,0,1-1.12,1.36l-4.48.57a8.38,8.38,0,0,1,.93,3.93,1.588,1.588,0,0,1-1.75,1.78c-0.51,0-.64-1-0.64-1h0a7.366,7.366,0,0,0-.79-2.24c-0.59-1.16-1.38-1.05-2.31-2.09a4.63,4.63,0,0,1-.6-0.85,0.158,0.158,0,0,1-.05-0.08,1.339,1.339,0,0,0-.06-0.12,2.116,2.116,0,0,1-.11-0.21,2.494,2.494,0,0,0-1.85-.52,1.067,1.067,0,0,1-1.17-1.18v-5.42a0.953,0.953,0,0,1,1.17-1.1h1.16a5.434,5.434,0,0,0,1.75-.6,15.148,15.148,0,0,1,4.88-.59h1.78a1.411,1.411,0,0,1,.98.42,0.789,0.789,0,0,1,.22.46,0.906,0.906,0,0,1,.01.23,0.937,0.937,0,0,1-.63,1.04,0.02,0.02,0,0,0,.02.01l0.76-.03a1.268,1.268,0,0,1,1.34,1.3,1.234,1.234,0,0,1-1.23,1.22l0.4-.02a1.242,1.242,0,0,1,1.28,1.21A1.258,1.258,0,0,1,1346.72,2463.16Z" transform="translate(-1334 -2456)"/>
</svg>