<svg xmlns="http://www.w3.org/2000/svg" viewBox="0 0 14 16"><path fill="#70c1b3" d="M12.72 8.84A1.227 1.227 0 0014 7.64a1.242 1.242 0 00-1.12-1.35L8.4 5.71a8.38 8.38 0 00.93-3.93A1.588 1.588 0 007.58 0c-.51 0-.64 1-.64 1a7.366 7.366 0 01-.79 2.24C5.56 4.4 4.77 4.29 3.84 5.33a4.63 4.63 0 00-.6.85.158.158 0 00-.05.08 1.339 1.339 0 01-.06.12 2.116 2.116 0 00-.11.21 2.494 2.494 0 01-1.85.52A1.067 1.067 0 000 8.29v5.42a.95.95 0 001.17 1.1h1.16a5.642 5.642 0 011.75.59 14.79 14.79 0 004.88.6h1.78a1.411 1.411 0 00.98-.42.789.789 0 00.22-.46.906.906 0 00.01-.23.937.937 0 00-.63-1.04.02.02 0 01.02-.01l.76.03a1.268 1.268 0 001.34-1.3 1.234 1.234 0 00-1.23-1.22l.4.02a1.267 1.267 0 00.11-2.53z"/></svg>