<svg xmlns="http://www.w3.org/2000/svg" viewBox="0 0 39 40"><path fill="#70c1b3" d="M19.5 9.74a9.6 9.6 0 00-9.78 9.43c0 6.18 4.26 7.76 4.26 11.36a2.95 2.95 0 001.7 2.32.78.78 0 00-.34.58.98.98 0 00.6.75.93.93 0 00-.56.73.76.76 0 010 1.5 1.16 1.16 0 00.8.9.83.83 0 00-.3.6c0 .68.97 1.2 2.34 1.4a1.5 1.5 0 002.6 0c1.4-.2 2.37-.72 2.37-1.4a.82.82 0 00-.3-.6 1.18 1.18 0 00.8-.9.76.76 0 010-1.42.96.96 0 00-.6-.74.94.94 0 00.52-.74.78.78 0 00-.36-.6 2.95 2.95 0 001.66-2.3c0-3.6 4.28-5.2 4.28-11.37a9.6 9.6 0 00-9.77-9.47zM24.6 25a9.75 9.75 0 00-2.15 5.3 4.95 4.95 0 01-5.9 0A9.77 9.77 0 0014.4 25a9.36 9.36 0 01-2.14-5.83 7.23 7.23 0 0114.44 0A9.4 9.4 0 0124.6 25zM19.5 6.45a1.54 1.54 0 001.27-1.7V1.7a1.33 1.33 0 10-2.55 0v3.04a1.54 1.54 0 001.27 1.7zM12.93 8.2a1.56 1.56 0 00.26-2.1l-1.5-2.64a1.53 1.53 0 00-2-.83 1.55 1.55 0 00-.3 2.12L11 7.38a1.53 1.53 0 001.94.83zM7.3 11.07L4.7 9.55a1.33 1.33 0 10-1.3 2.23l2.63 1.52a1.53 1.53 0 002.1-.26 1.55 1.55 0 00-.82-1.97zM35.57 27.5l-2.6-1.53a1.53 1.53 0 00-2.1.26 1.55 1.55 0 00.82 1.97l2.6 1.52a1.33 1.33 0 101.2-2.23zM6.4 19.62a1.54 1.54 0 00-1.7-1.28H1.68a1.33 1.33 0 100 2.57H4.7a1.54 1.54 0 001.7-1.3zm30.9-1.28h-3a1.33 1.33 0 100 2.57h3a1.33 1.33 0 100-2.5zM6.05 25.97l-2.6 1.52a1.33 1.33 0 101.25 2.2l2.62-1.6a1.55 1.55 0 00.82-1.97 1.53 1.53 0 00-2.1-.26zm26.9-12.67l2.62-1.52a1.33 1.33 0 10-1.28-2.23l-2.6 1.52a1.55 1.55 0 00-.9 1.97 1.53 1.53 0 002.1.26zm-3.7-10.67a1.53 1.53 0 00-1.95.83L25.8 6.1a1.55 1.55 0 00.25 2.1A1.53 1.53 0 0028 7.38l1.5-2.62a1.55 1.55 0 00-.25-2.12z"/></svg>