<svg xmlns="http://www.w3.org/2000/svg" viewBox="0 0 14 16"><path fill="#ff1654" d="M12.72 7.16A1.227 1.227 0 0114 8.36a1.257 1.257 0 01-1.12 1.36l-4.48.57a8.38 8.38 0 01.93 3.93A1.588 1.588 0 017.58 16c-.51 0-.64-1-.64-1a7.366 7.366 0 00-.79-2.24c-.59-1.16-1.38-1.05-2.31-2.09a4.63 4.63 0 01-.6-.85.158.158 0 01-.05-.08 1.339 1.339 0 00-.06-.12 2.116 2.116 0 01-.11-.21 2.494 2.494 0 00-1.85-.52A1.067 1.067 0 010 7.71V2.29a.953.953 0 011.17-1.1h1.16a5.434 5.434 0 001.75-.6A15.148 15.148 0 018.96 0h1.78a1.411 1.411 0 01.98.42.789.789 0 01.22.46.906.906 0 01.01.23.937.937 0 01-.63 1.04.02.02 0 00.02.01l.76-.03a1.268 1.268 0 011.34 1.3 1.234 1.234 0 01-1.23 1.22l.4-.02a1.242 1.242 0 011.28 1.21 1.258 1.258 0 01-1.17 1.32z"/></svg>