<svg xmlns="http://www.w3.org/2000/svg" viewBox="0 0 14 16">
  <path id="ico_like" fill="#70c1b3" d="M1296.72,2464.84a1.227,1.227,0,0,0,1.28-1.2,1.242,1.242,0,0,0-1.12-1.35l-4.48-.58a8.38,8.38,0,0,0,.93-3.93,1.588,1.588,0,0,0-1.75-1.78c-0.51,0-.64,1-0.64,1h0a7.366,7.366,0,0,1-.79,2.24c-0.59,1.16-1.38,1.05-2.31,2.09a4.63,4.63,0,0,0-.6.85,0.158,0.158,0,0,0-.05.08,1.339,1.339,0,0,1-.06.12,2.116,2.116,0,0,0-.11.21,2.494,2.494,0,0,1-1.85.52,1.067,1.067,0,0,0-1.17,1.18v5.42a0.95,0.95,0,0,0,1.17,1.1h1.16a5.642,5.642,0,0,1,1.75.59,14.79,14.79,0,0,0,4.88.6h1.78a1.411,1.411,0,0,0,.98-0.42,0.789,0.789,0,0,0,.22-0.46,0.906,0.906,0,0,0,.01-0.23,0.937,0.937,0,0,0-.63-1.04,0.02,0.02,0,0,1,.02-0.01l0.76,0.03a1.268,1.268,0,0,0,1.34-1.3,1.234,1.234,0,0,0-1.23-1.22l0.4,0.02A1.267,1.267,0,0,0,1296.72,2464.84Z" transform="translate(-1284 -2456)"/>
</svg>