<svg xmlns="http://www.w3.org/2000/svg" xmlns:xlink="http://www.w3.org/1999/xlink" version="1.1" x="0px" y="0px" width="512px" height="512px" viewBox="0 0 512 512" enable-background="new 0 0 512 512" xml:space="preserve">
  <style>
	.logo {
		clip-rule:	evenodd;
		fill-rule:	evenodd;
		fill: #fff;
	}
</style>
  <g id="5151e0c8492e5103c096af88a51f4333">
    <path display="inline" d="M494.657 127.735c-4.55 77.706-60.874 144.672-122.181 206.4 c-3.419-75.23-19.783-123.187-45.333-190.611C303.023 75.5 373.5 2.7 431.5 0.5 C466.303 18.2 496.2 64.7 494.7 127.735z M278.585 280.458c-8.703 15.572-20.134 32.473-35.025 51 c-31.312 39.463-62.872 104.172-53.174 180.04c129.33-14.267 169.713-111.337 173.256-164.674 C339.27 310.1 295 287.4 278.6 280.458z M17.797 47.66c-4.596 59.4 20.8 147.6 123.7 175.7 c43.34 12.8 73.7 20.7 106.6 32.679c48.065 17.5 85.8 39.8 115.7 78.233c-5.544-66.205-32.807-142.061-76.35-201.242 C225.322 48.6 117.8 8.1 17.8 47.66z" class="logo"/>
  </g>
</svg>
